<svg xmlns="http://www.w3.org/2000/svg" xmlns:xlink="http://www.w3.org/1999/xlink" width="500" zoomAndPan="magnify" viewBox="0 0 375 374.999991" height="500" preserveAspectRatio="xMidYMid meet" version="1.0"><defs><clipPath id="b31c60e8dc"><path d="M 126.269531 105.308594 L 284.519531 105.308594 L 284.519531 239.558594 L 126.269531 239.558594 Z M 126.269531 105.308594 " clip-rule="nonzero"/></clipPath><clipPath id="7b38c1fe8d"><path d="M 18 0.601562 L 158.398438 0.601562 L 158.398438 134.519531 L 18 134.519531 Z M 18 0.601562 " clip-rule="nonzero"/></clipPath><clipPath id="e78456e8c9"><path d="M 0.527344 14 L 58 14 L 58 75 L 0.527344 75 Z M 0.527344 14 " clip-rule="nonzero"/></clipPath><clipPath id="dd944b2e03"><rect x="0" width="159" y="0" height="135"/></clipPath></defs><rect x="-37.5" width="450" fill="#ffffff" y="-37.499999" height="449.999989" fill-opacity="1"/><rect x="-37.5" width="450" fill="#ffffff" y="-37.499999" height="449.999989" fill-opacity="1"/><g clip-path="url(#b31c60e8dc)"><g transform="matrix(1, 0, 0, 1, 126, 105)"><g clip-path="url(#dd944b2e03)"><g clip-path="url(#7b38c1fe8d)"><path fill="#3cacae" d="M 58.84375 24.429688 C 58.84375 17.421875 53.144531 11.71875 46.132812 11.71875 C 39.125 11.71875 33.421875 17.421875 33.421875 24.429688 C 33.421875 31.4375 39.125 37.140625 46.132812 37.140625 C 53.144531 37.140625 58.84375 31.4375 58.84375 24.429688 Z M 155.855469 56.894531 C 153.316406 62.625 149.078125 66.601562 143.601562 68.398438 C 137.371094 70.449219 130.464844 69.816406 124.144531 66.625 C 120.976562 65.019531 118.0625 62.980469 115.105469 60.855469 C 112.222656 58.78125 109.28125 56.554688 106.355469 54.234375 C 106.25 54.152344 106.160156 54.050781 106.097656 53.9375 C 97.265625 48.03125 86.96875 44.910156 76.304688 44.910156 C 70.015625 44.910156 63.863281 45.988281 58.007812 48.113281 L 58.007812 50.90625 L 91.382812 50.90625 L 91.382812 75.308594 L 58.007812 75.308594 L 58.007812 110.441406 L 32.964844 110.441406 L 32.964844 75.308594 L 27.929688 75.308594 C 24.417969 82.59375 22.636719 90.421875 22.636719 98.578125 C 22.636719 111.261719 27.140625 123.566406 35.324219 133.226562 L 34.328125 134.226562 C 33.75 133.738281 33.164062 133.222656 32.585938 132.6875 L 32.542969 132.644531 C 23.175781 122.457031 18.015625 109.21875 18.015625 95.371094 C 18.015625 88.082031 19.417969 81.003906 22.179688 74.332031 C 25.257812 66.882812 30.054688 60.0625 36.046875 54.617188 C 42.066406 49.140625 49.347656 45.003906 57.09375 42.65625 C 62.257812 41.089844 67.640625 40.292969 73.097656 40.292969 C 86.359375 40.292969 99.171875 45.074219 109.175781 53.757812 C 112.082031 56.023438 114.957031 58.164062 117.722656 60.121094 C 120.953125 62.40625 123.730469 64.195312 126.769531 65.519531 C 133.597656 68.496094 141.65625 68.050781 147.289062 64.382812 C 151.375 61.730469 154.492188 56.570312 155.628906 50.578125 C 156.667969 45.09375 156.179688 38.585938 154.289062 32.722656 C 150.027344 19.507812 136.5 12.058594 128.816406 8.792969 C 117.132812 3.832031 103.660156 1.933594 89.859375 3.3125 C 80.75 4.21875 68.085938 7.246094 59.207031 16.484375 C 60.621094 18.800781 61.4375 21.519531 61.4375 24.429688 C 61.4375 32.867188 54.570312 39.730469 46.132812 39.730469 C 37.699219 39.730469 30.832031 32.867188 30.832031 24.429688 C 30.832031 15.992188 37.699219 9.128906 46.132812 9.128906 C 50.890625 9.128906 55.148438 11.308594 57.957031 14.726562 C 58.859375 13.800781 59.792969 12.929688 60.730469 12.144531 C 68.933594 5.28125 80.683594 1.378906 94.714844 0.859375 C 109.699219 0.304688 123.785156 3.335938 135.445312 9.632812 C 141.5 12.898438 146.511719 16.859375 150.339844 21.40625 C 154.347656 26.160156 156.84375 31.925781 157.765625 38.542969 C 158.753906 45.636719 158.109375 51.8125 155.855469 56.894531 " fill-opacity="1" fill-rule="nonzero"/></g><g clip-path="url(#e78456e8c9)"><path fill="#0b2e4f" d="M 55.882812 24.429688 C 55.882812 29.8125 51.515625 34.175781 46.132812 34.175781 C 40.75 34.175781 36.386719 29.8125 36.386719 24.429688 C 36.386719 19.046875 40.75 14.679688 46.132812 14.679688 C 51.515625 14.679688 55.882812 19.046875 55.882812 24.429688 Z M 57.300781 37.375 L 57.300781 39.261719 C 48.371094 41.378906 40.292969 45.699219 33.671875 51.613281 L 33.671875 36.128906 C 36.789062 39.449219 41.21875 41.523438 46.132812 41.523438 C 50.402344 41.523438 54.304688 39.964844 57.300781 37.375 Z M 0.292969 74.605469 L 18.417969 74.605469 C 21.46875 65.664062 26.777344 57.773438 33.671875 51.613281 L 0.292969 51.613281 L 0.292969 74.605469 " fill-opacity="1" fill-rule="nonzero"/></g></g></g></g></svg>