<svg xmlns="http://www.w3.org/2000/svg" xmlns:xlink="http://www.w3.org/1999/xlink" width="500" zoomAndPan="magnify" viewBox="0 0 375 374.999991" height="500" preserveAspectRatio="xMidYMid meet" version="1.0"><defs><g/></defs><rect x="-37.5" width="450" fill="#ffffff" y="-37.499999" height="449.999989" fill-opacity="1"/><rect x="-37.5" width="450" fill="#3cacae" y="-37.499999" height="449.999989" fill-opacity="1"/><g fill="#ffffff" fill-opacity="1"><g transform="translate(43.072919, 197.67778)"><g><path d="M 16.234375 0.53125 C 12.910156 0.53125 10.234375 0.175781 8.203125 -0.53125 C 6.171875 -1.25 4.625 -2.234375 3.5625 -3.484375 C 2.5 -4.734375 1.785156 -6.175781 1.421875 -7.8125 L 12.359375 -7.8125 C 13.171875 -6.644531 14.460938 -6.0625 16.234375 -6.0625 C 18.003906 -6.0625 19.289062 -6.644531 20.09375 -7.8125 C 20.164062 -7.925781 20.203125 -8.023438 20.203125 -8.109375 C 20.203125 -8.421875 19.789062 -8.65625 18.96875 -8.8125 C 18.15625 -8.96875 16.941406 -9.082031 15.328125 -9.15625 C 13.285156 -9.25 11.140625 -9.46875 8.890625 -9.8125 C 3.878906 -10.582031 1.375 -12.597656 1.375 -15.859375 C 1.375 -16.128906 1.390625 -16.421875 1.421875 -16.734375 C 1.785156 -18.359375 2.5 -19.796875 3.5625 -21.046875 C 4.625 -22.296875 6.171875 -23.273438 8.203125 -23.984375 C 10.234375 -24.703125 12.910156 -25.0625 16.234375 -25.0625 C 19.554688 -25.0625 22.234375 -24.703125 24.265625 -23.984375 C 26.296875 -23.273438 27.835938 -22.296875 28.890625 -21.046875 C 29.953125 -19.796875 30.671875 -18.359375 31.046875 -16.734375 L 20.09375 -16.734375 C 19.289062 -17.890625 18.003906 -18.46875 16.234375 -18.46875 C 14.460938 -18.46875 13.171875 -17.890625 12.359375 -16.734375 C 12.304688 -16.640625 12.28125 -16.550781 12.28125 -16.46875 C 12.28125 -16.195312 12.671875 -15.992188 13.453125 -15.859375 C 14.234375 -15.734375 15.382812 -15.625 16.90625 -15.53125 C 18.425781 -15.4375 20.046875 -15.285156 21.765625 -15.078125 C 23.492188 -14.878906 25.109375 -14.523438 26.609375 -14.015625 C 28.109375 -13.503906 29.28125 -12.753906 30.125 -11.765625 C 30.789062 -10.992188 31.125 -10.019531 31.125 -8.84375 C 31.125 -8.519531 31.097656 -8.175781 31.046875 -7.8125 C 30.671875 -6.175781 29.953125 -4.734375 28.890625 -3.484375 C 27.835938 -2.234375 26.296875 -1.25 24.265625 -0.53125 C 22.234375 0.175781 19.554688 0.53125 16.234375 0.53125 Z M 16.234375 0.53125 "/></g></g></g><g fill="#ffffff" fill-opacity="1"><g transform="translate(73.170513, 197.67778)"><g><path d="M 41.265625 0 L 30.8125 0 L 28.5 -4.015625 L 13.015625 -4.015625 L 10.703125 0 L 0.25 0 L 15.96875 -24.546875 L 25.546875 -24.546875 Z M 25.03125 -10.09375 L 20.765625 -17.546875 L 16.484375 -10.09375 Z M 25.03125 -10.09375 "/></g></g><g transform="translate(114.687386, 197.67778)"><g><path d="M 36.28125 0 L 26.53125 0 C 26.09375 -0.613281 25.78125 -1.398438 25.59375 -2.359375 C 25.4375 -3.097656 25.195312 -3.820312 24.875 -4.53125 C 24.550781 -5.25 24 -5.84375 23.21875 -6.3125 C 22.4375 -6.789062 21.273438 -7.050781 19.734375 -7.09375 L 13.046875 -7.09375 L 13.046875 0 L 2.734375 0 L 2.734375 -24.5625 L 19.5 -24.5625 C 23.507812 -24.5625 26.742188 -24.257812 29.203125 -23.65625 C 31.660156 -23.0625 33.453125 -22.125 34.578125 -20.84375 C 35.710938 -19.5625 36.28125 -17.882812 36.28125 -15.8125 C 36.28125 -14.09375 35.890625 -12.644531 35.109375 -11.46875 C 34.328125 -10.289062 33.09375 -9.363281 31.40625 -8.6875 C 33.03125 -8.007812 34.082031 -7.195312 34.5625 -6.25 C 35.050781 -5.3125 35.351562 -4.28125 35.46875 -3.15625 C 35.582031 -2.144531 35.851562 -1.09375 36.28125 0 Z M 13.046875 -13.15625 L 18.9375 -13.171875 C 20.582031 -13.171875 21.878906 -13.242188 22.828125 -13.390625 C 23.773438 -13.535156 24.472656 -13.734375 24.921875 -13.984375 C 25.367188 -14.242188 25.65625 -14.53125 25.78125 -14.84375 C 25.90625 -15.164062 25.96875 -15.488281 25.96875 -15.8125 C 25.96875 -16.144531 25.90625 -16.472656 25.78125 -16.796875 C 25.65625 -17.117188 25.367188 -17.40625 24.921875 -17.65625 C 24.472656 -17.914062 23.773438 -18.117188 22.828125 -18.265625 C 21.878906 -18.410156 20.582031 -18.484375 18.9375 -18.484375 L 13.046875 -18.484375 Z M 13.046875 -13.15625 "/></g></g></g><g fill="#ffffff" fill-opacity="1"><g transform="translate(150.280615, 197.67778)"><g><path d="M 23.59375 0 L 14.015625 0 L 0.25 -24.546875 L 10.703125 -24.546875 L 18.8125 -7 L 26.90625 -24.546875 L 37.359375 -24.546875 Z M 23.59375 0 "/></g></g></g><g fill="#ffffff" fill-opacity="1"><g transform="translate(179.333867, 197.67778)"><g><path d="M 41.265625 0 L 30.8125 0 L 28.5 -4.015625 L 13.015625 -4.015625 L 10.703125 0 L 0.25 0 L 15.96875 -24.546875 L 25.546875 -24.546875 Z M 25.03125 -10.09375 L 20.765625 -17.546875 L 16.484375 -10.09375 Z M 25.03125 -10.09375 "/></g></g></g><g fill="#ffffff" fill-opacity="1"><g transform="translate(218.111482, 197.67778)"><g><path d="M 18.578125 0.53125 C 12.503906 0.53125 8.035156 -0.71875 5.171875 -3.21875 C 2.640625 -5.4375 1.375 -8.453125 1.375 -12.265625 C 1.375 -16.085938 2.640625 -19.101562 5.171875 -21.3125 C 8.035156 -23.8125 12.503906 -25.0625 18.578125 -25.0625 C 22.035156 -25.0625 24.910156 -24.671875 27.203125 -23.890625 C 29.492188 -23.117188 31.289062 -22.0625 32.59375 -20.71875 C 33.90625 -19.382812 34.800781 -17.84375 35.28125 -16.09375 L 24.265625 -16.09375 C 23.109375 -17.675781 21.210938 -18.46875 18.578125 -18.46875 C 16.085938 -18.46875 14.253906 -17.753906 13.078125 -16.328125 C 12.140625 -15.179688 11.671875 -13.828125 11.671875 -12.265625 C 11.671875 -10.691406 12.140625 -9.335938 13.078125 -8.203125 C 14.253906 -6.773438 16.085938 -6.0625 18.578125 -6.0625 C 20.585938 -6.0625 22.097656 -6.234375 23.109375 -6.578125 C 24.117188 -6.929688 24.859375 -7.382812 25.328125 -7.9375 L 21.296875 -7.9375 L 21.296875 -12.265625 L 35.28125 -12.265625 L 35.28125 0.015625 L 31 0.015625 L 30.125 -2.359375 C 27.40625 -0.429688 23.554688 0.53125 18.578125 0.53125 Z M 18.578125 0.53125 "/></g></g><g transform="translate(255.450988, 197.67778)"><g><path d="M 17.28125 0.53125 C 11.28125 0.53125 7.0625 -0.710938 4.625 -3.203125 C 2.570312 -5.285156 1.546875 -8.304688 1.546875 -12.265625 L 1.546875 -24.546875 L 11.84375 -24.546875 L 11.84375 -12.265625 C 11.84375 -10.546875 12.132812 -9.191406 12.71875 -8.203125 C 13.550781 -6.773438 15.070312 -6.0625 17.28125 -6.0625 C 19.5 -6.0625 21.019531 -6.773438 21.84375 -8.203125 C 22.425781 -9.222656 22.71875 -10.578125 22.71875 -12.265625 L 22.71875 -24.546875 L 33.03125 -24.546875 L 33.03125 -12.125 C 33.03125 -8.257812 32.003906 -5.285156 29.953125 -3.203125 C 27.503906 -0.710938 23.28125 0.53125 17.28125 0.53125 Z M 17.28125 0.53125 "/></g></g><g transform="translate(290.016995, 197.67778)"><g><path d="M 39.1875 0 L 26.9375 0 L 13.046875 -16.625 L 13.046875 0 L 2.734375 0 L 2.734375 -24.5625 L 15 -24.5625 L 28.875 -8.03125 L 28.875 -24.5625 L 39.1875 -24.5625 Z M 39.1875 0 "/></g></g></g><g fill="#044581" fill-opacity="1"><g transform="translate(44.602919, 208.655012)"><g><path d="M 7.5 -1.5625 L 7.5 0 L 1 0 L 1 -8.40625 L 7.34375 -8.40625 L 7.34375 -6.84375 L 2.921875 -6.84375 L 2.921875 -5.015625 L 6.828125 -5.015625 L 6.828125 -3.5 L 2.921875 -3.5 L 2.921875 -1.5625 Z M 7.5 -1.5625 "/></g></g></g><g fill="#044581" fill-opacity="1"><g transform="translate(53.614935, 208.655012)"><g><path d="M 4.78125 -6.546875 C 5.582031 -6.546875 6.226562 -6.304688 6.71875 -5.828125 C 7.21875 -5.347656 7.46875 -4.640625 7.46875 -3.703125 L 7.46875 0 L 5.59375 0 L 5.59375 -3.40625 C 5.59375 -3.914062 5.476562 -4.296875 5.25 -4.546875 C 5.03125 -4.804688 4.707031 -4.9375 4.28125 -4.9375 C 3.8125 -4.9375 3.4375 -4.789062 3.15625 -4.5 C 2.875 -4.207031 2.734375 -3.769531 2.734375 -3.1875 L 2.734375 0 L 0.859375 0 L 0.859375 -6.453125 L 2.65625 -6.453125 L 2.65625 -5.703125 C 2.90625 -5.972656 3.210938 -6.179688 3.578125 -6.328125 C 3.941406 -6.472656 4.34375 -6.546875 4.78125 -6.546875 Z M 4.78125 -6.546875 "/></g></g></g><g fill="#044581" fill-opacity="1"><g transform="translate(62.866945, 208.655012)"><g><path d="M 5.03125 -0.3125 C 4.84375 -0.175781 4.613281 -0.0703125 4.34375 0 C 4.082031 0.0625 3.800781 0.09375 3.5 0.09375 C 2.738281 0.09375 2.144531 -0.0976562 1.71875 -0.484375 C 1.300781 -0.878906 1.09375 -1.457031 1.09375 -2.21875 L 1.09375 -4.875 L 0.09375 -4.875 L 0.09375 -6.3125 L 1.09375 -6.3125 L 1.09375 -7.890625 L 2.96875 -7.890625 L 2.96875 -6.3125 L 4.578125 -6.3125 L 4.578125 -4.875 L 2.96875 -4.875 L 2.96875 -2.25 C 2.96875 -1.976562 3.035156 -1.765625 3.171875 -1.609375 C 3.316406 -1.460938 3.515625 -1.390625 3.765625 -1.390625 C 4.066406 -1.390625 4.320312 -1.46875 4.53125 -1.625 Z M 5.03125 -0.3125 "/></g></g></g><g fill="#044581" fill-opacity="1"><g transform="translate(68.842946, 208.655012)"><g><path d="M 7.1875 -3.203125 C 7.1875 -3.179688 7.175781 -3.015625 7.15625 -2.703125 L 2.265625 -2.703125 C 2.359375 -2.296875 2.566406 -1.976562 2.890625 -1.75 C 3.222656 -1.519531 3.628906 -1.40625 4.109375 -1.40625 C 4.453125 -1.40625 4.753906 -1.453125 5.015625 -1.546875 C 5.273438 -1.648438 5.515625 -1.8125 5.734375 -2.03125 L 6.734375 -0.953125 C 6.117188 -0.253906 5.226562 0.09375 4.0625 0.09375 C 3.332031 0.09375 2.6875 -0.046875 2.125 -0.328125 C 1.570312 -0.609375 1.144531 -1 0.84375 -1.5 C 0.539062 -2.007812 0.390625 -2.585938 0.390625 -3.234375 C 0.390625 -3.859375 0.535156 -4.425781 0.828125 -4.9375 C 1.128906 -5.445312 1.539062 -5.84375 2.0625 -6.125 C 2.59375 -6.40625 3.179688 -6.546875 3.828125 -6.546875 C 4.460938 -6.546875 5.035156 -6.410156 5.546875 -6.140625 C 6.054688 -5.867188 6.457031 -5.476562 6.75 -4.96875 C 7.039062 -4.46875 7.1875 -3.878906 7.1875 -3.203125 Z M 3.84375 -5.140625 C 3.414062 -5.140625 3.054688 -5.019531 2.765625 -4.78125 C 2.484375 -4.539062 2.3125 -4.210938 2.25 -3.796875 L 5.421875 -3.796875 C 5.359375 -4.203125 5.179688 -4.523438 4.890625 -4.765625 C 4.609375 -5.015625 4.257812 -5.140625 3.84375 -5.140625 Z M 3.84375 -5.140625 "/></g></g></g><g fill="#044581" fill-opacity="1"><g transform="translate(77.374962, 208.655012)"><g><path d="M 2.65625 -5.609375 C 2.875 -5.921875 3.171875 -6.15625 3.546875 -6.3125 C 3.929688 -6.46875 4.375 -6.546875 4.875 -6.546875 L 4.875 -4.828125 C 4.664062 -4.835938 4.523438 -4.84375 4.453125 -4.84375 C 3.910156 -4.84375 3.488281 -4.691406 3.1875 -4.390625 C 2.882812 -4.097656 2.734375 -3.648438 2.734375 -3.046875 L 2.734375 0 L 0.859375 0 L 0.859375 -6.453125 L 2.65625 -6.453125 Z M 2.65625 -5.609375 "/></g></g></g><g fill="#044581" fill-opacity="1"><g transform="translate(83.458973, 208.655012)"><g><path d="M 4.6875 -6.546875 C 5.28125 -6.546875 5.820312 -6.40625 6.3125 -6.125 C 6.8125 -5.851562 7.195312 -5.46875 7.46875 -4.96875 C 7.75 -4.46875 7.890625 -3.890625 7.890625 -3.234375 C 7.890625 -2.566406 7.75 -1.984375 7.46875 -1.484375 C 7.195312 -0.984375 6.8125 -0.59375 6.3125 -0.3125 C 5.820312 -0.0390625 5.28125 0.09375 4.6875 0.09375 C 3.851562 0.09375 3.203125 -0.164062 2.734375 -0.6875 L 2.734375 2.328125 L 0.859375 2.328125 L 0.859375 -6.453125 L 2.65625 -6.453125 L 2.65625 -5.71875 C 3.113281 -6.269531 3.789062 -6.546875 4.6875 -6.546875 Z M 4.359375 -1.4375 C 4.835938 -1.4375 5.226562 -1.597656 5.53125 -1.921875 C 5.84375 -2.242188 6 -2.679688 6 -3.234375 C 6 -3.773438 5.84375 -4.207031 5.53125 -4.53125 C 5.226562 -4.851562 4.835938 -5.015625 4.359375 -5.015625 C 3.878906 -5.015625 3.484375 -4.851562 3.171875 -4.53125 C 2.867188 -4.207031 2.71875 -3.773438 2.71875 -3.234375 C 2.71875 -2.679688 2.867188 -2.242188 3.171875 -1.921875 C 3.484375 -1.597656 3.878906 -1.4375 4.359375 -1.4375 Z M 4.359375 -1.4375 "/></g></g></g><g fill="#044581" fill-opacity="1"><g transform="translate(92.698989, 208.655012)"><g><path d="M 2.65625 -5.609375 C 2.875 -5.921875 3.171875 -6.15625 3.546875 -6.3125 C 3.929688 -6.46875 4.375 -6.546875 4.875 -6.546875 L 4.875 -4.828125 C 4.664062 -4.835938 4.523438 -4.84375 4.453125 -4.84375 C 3.910156 -4.84375 3.488281 -4.691406 3.1875 -4.390625 C 2.882812 -4.097656 2.734375 -3.648438 2.734375 -3.046875 L 2.734375 0 L 0.859375 0 L 0.859375 -6.453125 L 2.65625 -6.453125 Z M 2.65625 -5.609375 "/></g></g></g><g fill="#044581" fill-opacity="1"><g transform="translate(98.830996, 208.655012)"><g><path d="M 0.625 -8.40625 L 2.859375 -8.40625 L 2.484375 -2.921875 L 1 -2.921875 Z M 1.734375 0.09375 C 1.410156 0.09375 1.140625 -0.0078125 0.921875 -0.21875 C 0.703125 -0.4375 0.59375 -0.695312 0.59375 -1 C 0.59375 -1.300781 0.695312 -1.550781 0.90625 -1.75 C 1.125 -1.957031 1.398438 -2.0625 1.734375 -2.0625 C 2.078125 -2.0625 2.351562 -1.957031 2.5625 -1.75 C 2.78125 -1.550781 2.890625 -1.300781 2.890625 -1 C 2.890625 -0.695312 2.78125 -0.4375 2.5625 -0.21875 C 2.34375 -0.0078125 2.066406 0.09375 1.734375 0.09375 Z M 1.734375 0.09375 "/></g></g></g><g fill="#044581" fill-opacity="1"><g transform="translate(103.259001, 208.655012)"><g><path d="M 3.03125 0.09375 C 2.5 0.09375 1.976562 0.03125 1.46875 -0.09375 C 0.957031 -0.226562 0.546875 -0.394531 0.234375 -0.59375 L 0.859375 -1.9375 C 1.148438 -1.757812 1.5 -1.609375 1.90625 -1.484375 C 2.3125 -1.367188 2.710938 -1.3125 3.109375 -1.3125 C 3.898438 -1.3125 4.296875 -1.507812 4.296875 -1.90625 C 4.296875 -2.09375 4.1875 -2.222656 3.96875 -2.296875 C 3.75 -2.378906 3.414062 -2.453125 2.96875 -2.515625 C 2.445312 -2.585938 2.015625 -2.675781 1.671875 -2.78125 C 1.328125 -2.882812 1.023438 -3.066406 0.765625 -3.328125 C 0.515625 -3.597656 0.390625 -3.976562 0.390625 -4.46875 C 0.390625 -4.875 0.507812 -5.234375 0.75 -5.546875 C 0.988281 -5.867188 1.332031 -6.113281 1.78125 -6.28125 C 2.226562 -6.457031 2.765625 -6.546875 3.390625 -6.546875 C 3.835938 -6.546875 4.285156 -6.492188 4.734375 -6.390625 C 5.191406 -6.296875 5.570312 -6.160156 5.875 -5.984375 L 5.25 -4.65625 C 4.675781 -4.976562 4.054688 -5.140625 3.390625 -5.140625 C 2.984375 -5.140625 2.679688 -5.082031 2.484375 -4.96875 C 2.285156 -4.851562 2.1875 -4.707031 2.1875 -4.53125 C 2.1875 -4.332031 2.289062 -4.191406 2.5 -4.109375 C 2.71875 -4.035156 3.066406 -3.960938 3.546875 -3.890625 C 4.066406 -3.796875 4.492188 -3.695312 4.828125 -3.59375 C 5.171875 -3.5 5.460938 -3.316406 5.703125 -3.046875 C 5.953125 -2.785156 6.078125 -2.421875 6.078125 -1.953125 C 6.078125 -1.554688 5.957031 -1.203125 5.71875 -0.890625 C 5.476562 -0.578125 5.128906 -0.332031 4.671875 -0.15625 C 4.210938 0.0078125 3.664062 0.09375 3.03125 0.09375 Z M 3.03125 0.09375 "/></g></g></g><g fill="#044581" fill-opacity="1"><g transform="translate(110.591013, 208.655012)"><g><path d="M 7.1875 -3.203125 C 7.1875 -3.179688 7.175781 -3.015625 7.15625 -2.703125 L 2.265625 -2.703125 C 2.359375 -2.296875 2.566406 -1.976562 2.890625 -1.75 C 3.222656 -1.519531 3.628906 -1.40625 4.109375 -1.40625 C 4.453125 -1.40625 4.753906 -1.453125 5.015625 -1.546875 C 5.273438 -1.648438 5.515625 -1.8125 5.734375 -2.03125 L 6.734375 -0.953125 C 6.117188 -0.253906 5.226562 0.09375 4.0625 0.09375 C 3.332031 0.09375 2.6875 -0.046875 2.125 -0.328125 C 1.570312 -0.609375 1.144531 -1 0.84375 -1.5 C 0.539062 -2.007812 0.390625 -2.585938 0.390625 -3.234375 C 0.390625 -3.859375 0.535156 -4.425781 0.828125 -4.9375 C 1.128906 -5.445312 1.539062 -5.84375 2.0625 -6.125 C 2.59375 -6.40625 3.179688 -6.546875 3.828125 -6.546875 C 4.460938 -6.546875 5.035156 -6.410156 5.546875 -6.140625 C 6.054688 -5.867188 6.457031 -5.476562 6.75 -4.96875 C 7.039062 -4.46875 7.1875 -3.878906 7.1875 -3.203125 Z M 3.84375 -5.140625 C 3.414062 -5.140625 3.054688 -5.019531 2.765625 -4.78125 C 2.484375 -4.539062 2.3125 -4.210938 2.25 -3.796875 L 5.421875 -3.796875 C 5.359375 -4.203125 5.179688 -4.523438 4.890625 -4.765625 C 4.609375 -5.015625 4.257812 -5.140625 3.84375 -5.140625 Z M 3.84375 -5.140625 "/></g></g></g><g fill="#044581" fill-opacity="1"><g transform="translate(119.123029, 208.655012)"><g><path d="M 3.03125 0.09375 C 2.5 0.09375 1.976562 0.03125 1.46875 -0.09375 C 0.957031 -0.226562 0.546875 -0.394531 0.234375 -0.59375 L 0.859375 -1.9375 C 1.148438 -1.757812 1.5 -1.609375 1.90625 -1.484375 C 2.3125 -1.367188 2.710938 -1.3125 3.109375 -1.3125 C 3.898438 -1.3125 4.296875 -1.507812 4.296875 -1.90625 C 4.296875 -2.09375 4.1875 -2.222656 3.96875 -2.296875 C 3.75 -2.378906 3.414062 -2.453125 2.96875 -2.515625 C 2.445312 -2.585938 2.015625 -2.675781 1.671875 -2.78125 C 1.328125 -2.882812 1.023438 -3.066406 0.765625 -3.328125 C 0.515625 -3.597656 0.390625 -3.976562 0.390625 -4.46875 C 0.390625 -4.875 0.507812 -5.234375 0.75 -5.546875 C 0.988281 -5.867188 1.332031 -6.113281 1.78125 -6.28125 C 2.226562 -6.457031 2.765625 -6.546875 3.390625 -6.546875 C 3.835938 -6.546875 4.285156 -6.492188 4.734375 -6.390625 C 5.191406 -6.296875 5.570312 -6.160156 5.875 -5.984375 L 5.25 -4.65625 C 4.675781 -4.976562 4.054688 -5.140625 3.390625 -5.140625 C 2.984375 -5.140625 2.679688 -5.082031 2.484375 -4.96875 C 2.285156 -4.851562 2.1875 -4.707031 2.1875 -4.53125 C 2.1875 -4.332031 2.289062 -4.191406 2.5 -4.109375 C 2.71875 -4.035156 3.066406 -3.960938 3.546875 -3.890625 C 4.066406 -3.796875 4.492188 -3.695312 4.828125 -3.59375 C 5.171875 -3.5 5.460938 -3.316406 5.703125 -3.046875 C 5.953125 -2.785156 6.078125 -2.421875 6.078125 -1.953125 C 6.078125 -1.554688 5.957031 -1.203125 5.71875 -0.890625 C 5.476562 -0.578125 5.128906 -0.332031 4.671875 -0.15625 C 4.210938 0.0078125 3.664062 0.09375 3.03125 0.09375 Z M 3.03125 0.09375 "/></g></g></g></svg>