<svg xmlns="http://www.w3.org/2000/svg" xmlns:xlink="http://www.w3.org/1999/xlink" width="100" height="100" viewBox="47 172 280 42" preserveAspectRatio="xMidYMid meet" version="1.0">
<defs><g/></defs>
<g fill="#3cacae" fill-opacity="1"><g transform="translate(47.20443, 196.277771)"><g><path d="M 15.765625 0.515625 C 12.535156 0.515625 9.929688 0.171875 7.953125 -0.515625 C 5.984375 -1.210938 4.484375 -2.164062 3.453125 -3.375 C 2.421875 -4.59375 1.726562 -5.992188 1.375 -7.578125 L 12.015625 -7.578125 C 12.796875 -6.453125 14.046875 -5.890625 15.765625 -5.890625 C 17.484375 -5.890625 18.738281 -6.453125 19.53125 -7.578125 C 19.59375 -7.691406 19.625 -7.796875 19.625 -7.890625 C 19.625 -8.179688 19.226562 -8.398438 18.4375 -8.546875 C 17.644531 -8.703125 16.460938 -8.816406 14.890625 -8.890625 C 12.898438 -8.984375 10.8125 -9.195312 8.625 -9.53125 C 3.757812 -10.28125 1.328125 -12.238281 1.328125 -15.40625 C 1.328125 -15.664062 1.34375 -15.945312 1.375 -16.25 C 1.726562 -17.832031 2.421875 -19.226562 3.453125 -20.4375 C 4.484375 -21.65625 5.984375 -22.609375 7.953125 -23.296875 C 9.929688 -23.992188 12.535156 -24.34375 15.765625 -24.34375 C 18.992188 -24.34375 21.59375 -23.992188 23.5625 -23.296875 C 25.539062 -22.609375 27.046875 -21.65625 28.078125 -20.4375 C 29.109375 -19.226562 29.800781 -17.832031 30.15625 -16.25 L 19.53125 -16.25 C 18.738281 -17.382812 17.484375 -17.953125 15.765625 -17.953125 C 14.046875 -17.953125 12.796875 -17.382812 12.015625 -16.25 C 11.953125 -16.15625 11.921875 -16.070312 11.921875 -16 C 11.921875 -15.726562 12.300781 -15.53125 13.0625 -15.40625 C 13.820312 -15.28125 14.941406 -15.171875 16.421875 -15.078125 C 17.898438 -14.992188 19.476562 -14.851562 21.15625 -14.65625 C 22.832031 -14.457031 24.398438 -14.109375 25.859375 -13.609375 C 27.316406 -13.117188 28.453125 -12.390625 29.265625 -11.421875 C 29.910156 -10.679688 30.234375 -9.738281 30.234375 -8.59375 C 30.234375 -8.269531 30.207031 -7.929688 30.15625 -7.578125 C 29.800781 -5.992188 29.109375 -4.59375 28.078125 -3.375 C 27.046875 -2.164062 25.539062 -1.210938 23.5625 -0.515625 C 21.59375 0.171875 18.992188 0.515625 15.765625 0.515625 Z M 15.765625 0.515625 "/></g></g></g>
<g fill="#3cacae" fill-opacity="1"><g transform="translate(76.436209, 196.277771)"><g><path d="M 40.078125 0 L 29.9375 0 L 27.6875 -3.90625 L 12.640625 -3.90625 L 10.390625 0 L 0.25 0 L 15.515625 -23.84375 L 24.8125 -23.84375 Z M 24.3125 -9.8125 L 20.171875 -17.046875 L 16.015625 -9.8125 Z M 24.3125 -9.8125 "/></g></g></g>
<g fill="#3cacae" fill-opacity="1"><g transform="translate(116.75975, 196.277771)"><g><path d="M 35.25 0 L 25.78125 0 C 25.34375 -0.59375 25.035156 -1.359375 24.859375 -2.296875 C 24.703125 -3.015625 24.46875 -3.71875 24.15625 -4.40625 C 23.851562 -5.101562 23.320312 -5.679688 22.5625 -6.140625 C 21.800781 -6.597656 20.671875 -6.847656 19.171875 -6.890625 L 12.671875 -6.890625 L 12.671875 0 L 2.65625 0 L 2.65625 -23.859375 L 18.9375 -23.859375 C 22.832031 -23.859375 25.972656 -23.566406 28.359375 -22.984375 C 30.753906 -22.410156 32.5 -21.5 33.59375 -20.25 C 34.695312 -19 35.25 -17.375 35.25 -15.375 C 35.25 -13.695312 34.867188 -12.285156 34.109375 -11.140625 C 33.347656 -10.003906 32.144531 -9.101562 30.5 -8.4375 C 32.082031 -7.78125 33.109375 -6.992188 33.578125 -6.078125 C 34.054688 -5.160156 34.351562 -4.15625 34.46875 -3.0625 C 34.570312 -2.082031 34.832031 -1.0625 35.25 0 Z M 12.671875 -12.78125 L 18.390625 -12.796875 C 19.992188 -12.796875 21.253906 -12.863281 22.171875 -13 C 23.085938 -13.144531 23.765625 -13.34375 24.203125 -13.59375 C 24.640625 -13.84375 24.921875 -14.117188 25.046875 -14.421875 C 25.171875 -14.734375 25.234375 -15.050781 25.234375 -15.375 C 25.234375 -15.6875 25.171875 -16 25.046875 -16.3125 C 24.921875 -16.625 24.640625 -16.90625 24.203125 -17.15625 C 23.765625 -17.40625 23.085938 -17.601562 22.171875 -17.75 C 21.253906 -17.894531 19.992188 -17.96875 18.390625 -17.96875 L 12.671875 -17.96875 Z M 12.671875 -12.78125 "/></g></g></g>
<g fill="#3cacae" fill-opacity="1"><g transform="translate(151.329305, 196.277771)"><g><path d="M 22.921875 0 L 13.625 0 L 0.25 -23.84375 L 10.390625 -23.84375 L 18.28125 -6.796875 L 26.140625 -23.84375 L 36.296875 -23.84375 Z M 22.921875 0 "/></g></g></g>
<g fill="#3cacae" fill-opacity="1"><g transform="translate(179.544952, 196.277771)"><g><path d="M 40.078125 0 L 29.9375 0 L 27.6875 -3.90625 L 12.640625 -3.90625 L 10.390625 0 L 0.25 0 L 15.515625 -23.84375 L 24.8125 -23.84375 Z M 24.3125 -9.8125 L 20.171875 -17.046875 L 16.015625 -9.8125 Z M 24.3125 -9.8125 "/></g></g></g>
<g fill="#3cacae" fill-opacity="1"><g transform="translate(217.207169, 196.277771)"><g><path d="M 18.046875 0.515625 C 12.148438 0.515625 7.804688 -0.695312 5.015625 -3.125 C 2.554688 -5.28125 1.328125 -8.207031 1.328125 -11.90625 C 1.328125 -15.625 2.554688 -18.554688 5.015625 -20.703125 C 7.804688 -23.128906 12.148438 -24.34375 18.046875 -24.34375 C 21.398438 -24.34375 24.191406 -23.96875 26.421875 -23.21875 C 28.648438 -22.46875 30.398438 -21.4375 31.671875 -20.125 C 32.941406 -18.820312 33.8125 -17.328125 34.28125 -15.640625 L 23.5625 -15.640625 C 22.445312 -17.179688 20.609375 -17.953125 18.046875 -17.953125 C 15.628906 -17.953125 13.847656 -17.253906 12.703125 -15.859375 C 11.796875 -14.742188 11.34375 -13.425781 11.34375 -11.90625 C 11.34375 -10.382812 11.796875 -9.070312 12.703125 -7.96875 C 13.847656 -6.582031 15.628906 -5.890625 18.046875 -5.890625 C 19.992188 -5.890625 21.457031 -6.054688 22.4375 -6.390625 C 23.425781 -6.734375 24.144531 -7.175781 24.59375 -7.71875 L 20.6875 -7.71875 L 20.6875 -11.90625 L 34.28125 -11.90625 L 34.28125 0.015625 L 30.125 0.015625 L 29.265625 -2.296875 C 26.617188 -0.421875 22.878906 0.515625 18.046875 0.515625 Z M 18.046875 0.515625 "/></g></g></g>
<g fill="#3cacae" fill-opacity="1"><g transform="translate(253.473414, 196.277771)"><g><path d="M 16.78125 0.515625 C 10.957031 0.515625 6.859375 -0.691406 4.484375 -3.109375 C 2.492188 -5.140625 1.5 -8.070312 1.5 -11.90625 L 1.5 -23.84375 L 11.515625 -23.84375 L 11.515625 -11.90625 C 11.515625 -10.238281 11.796875 -8.925781 12.359375 -7.96875 C 13.171875 -6.582031 14.644531 -5.890625 16.78125 -5.890625 C 18.945312 -5.890625 20.425781 -6.582031 21.21875 -7.96875 C 21.789062 -8.96875 22.078125 -10.28125 22.078125 -11.90625 L 22.078125 -23.84375 L 32.078125 -23.84375 L 32.078125 -11.78125 C 32.078125 -8.03125 31.085938 -5.140625 29.109375 -3.109375 C 26.722656 -0.691406 22.613281 0.515625 16.78125 0.515625 Z M 16.78125 0.515625 "/></g></g></g>
<g fill="#3cacae" fill-opacity="1"><g transform="translate(287.045891, 196.277771)"><g><path d="M 38.078125 0 L 26.15625 0 L 12.671875 -16.15625 L 12.671875 0 L 2.65625 0 L 2.65625 -23.859375 L 14.5625 -23.859375 L 28.0625 -7.796875 L 28.0625 -23.859375 L 38.078125 -23.859375 Z M 38.078125 0 "/></g></g></g>
<g fill="#044581" fill-opacity="1"><g transform="translate(49.144434, 206.415632)"><g><path d="M 6.875 -1.4375 L 6.875 0 L 0.90625 0 L 0.90625 -7.703125 L 6.734375 -7.703125 L 6.734375 -6.265625 L 2.6875 -6.265625 L 2.6875 -4.59375 L 6.265625 -4.59375 L 6.265625 -3.21875 L 2.6875 -3.21875 L 2.6875 -1.4375 Z M 6.875 -1.4375 "/></g></g></g>
<g fill="#044581" fill-opacity="1"><g transform="translate(57.400212, 206.415632)"><g><path d="M 4.390625 -6 C 5.117188 -6 5.707031 -5.78125 6.15625 -5.34375 C 6.613281 -4.90625 6.84375 -4.253906 6.84375 -3.390625 L 6.84375 0 L 5.125 0 L 5.125 -3.125 C 5.125 -3.59375 5.019531 -3.941406 4.8125 -4.171875 C 4.613281 -4.398438 4.316406 -4.515625 3.921875 -4.515625 C 3.492188 -4.515625 3.148438 -4.378906 2.890625 -4.109375 C 2.640625 -3.847656 2.515625 -3.453125 2.515625 -2.921875 L 2.515625 0 L 0.796875 0 L 0.796875 -5.921875 L 2.4375 -5.921875 L 2.4375 -5.21875 C 2.65625 -5.46875 2.929688 -5.660156 3.265625 -5.796875 C 3.609375 -5.929688 3.984375 -6 4.390625 -6 Z M 4.390625 -6 "/></g></g></g>
<g fill="#044581" fill-opacity="1"><g transform="translate(65.875832, 206.415632)"><g><path d="M 4.609375 -0.28125 C 4.441406 -0.15625 4.234375 -0.0625 3.984375 0 C 3.742188 0.0625 3.488281 0.09375 3.21875 0.09375 C 2.507812 0.09375 1.960938 -0.0820312 1.578125 -0.4375 C 1.191406 -0.800781 1 -1.332031 1 -2.03125 L 1 -4.46875 L 0.09375 -4.46875 L 0.09375 -5.78125 L 1 -5.78125 L 1 -7.234375 L 2.71875 -7.234375 L 2.71875 -5.78125 L 4.1875 -5.78125 L 4.1875 -4.46875 L 2.71875 -4.46875 L 2.71875 -2.0625 C 2.71875 -1.8125 2.78125 -1.617188 2.90625 -1.484375 C 3.039062 -1.347656 3.222656 -1.28125 3.453125 -1.28125 C 3.722656 -1.28125 3.953125 -1.351562 4.140625 -1.5 Z M 4.609375 -0.28125 "/></g></g></g>
<g fill="#044581" fill-opacity="1"><g transform="translate(71.350525, 206.415632)"><g><path d="M 6.59375 -2.9375 C 6.59375 -2.914062 6.582031 -2.757812 6.5625 -2.46875 L 2.078125 -2.46875 C 2.160156 -2.101562 2.351562 -1.8125 2.65625 -1.59375 C 2.957031 -1.382812 3.328125 -1.28125 3.765625 -1.28125 C 4.078125 -1.28125 4.351562 -1.328125 4.59375 -1.421875 C 4.832031 -1.515625 5.054688 -1.660156 5.265625 -1.859375 L 6.171875 -0.875 C 5.609375 -0.226562 4.796875 0.09375 3.734375 0.09375 C 3.066406 0.09375 2.472656 -0.0351562 1.953125 -0.296875 C 1.441406 -0.554688 1.046875 -0.914062 0.765625 -1.375 C 0.492188 -1.84375 0.359375 -2.367188 0.359375 -2.953125 C 0.359375 -3.535156 0.492188 -4.054688 0.765625 -4.515625 C 1.035156 -4.984375 1.410156 -5.347656 1.890625 -5.609375 C 2.378906 -5.867188 2.921875 -6 3.515625 -6 C 4.085938 -6 4.609375 -5.875 5.078125 -5.625 C 5.546875 -5.382812 5.914062 -5.03125 6.1875 -4.5625 C 6.457031 -4.09375 6.59375 -3.550781 6.59375 -2.9375 Z M 3.515625 -4.703125 C 3.128906 -4.703125 2.800781 -4.59375 2.53125 -4.375 C 2.269531 -4.15625 2.113281 -3.851562 2.0625 -3.46875 L 4.96875 -3.46875 C 4.914062 -3.84375 4.753906 -4.140625 4.484375 -4.359375 C 4.222656 -4.585938 3.898438 -4.703125 3.515625 -4.703125 Z M 3.515625 -4.703125 "/></g></g></g>
<g fill="#044581" fill-opacity="1"><g transform="translate(79.16661, 206.415632)"><g><path d="M 2.4375 -5.140625 C 2.632812 -5.421875 2.90625 -5.632812 3.25 -5.78125 C 3.601562 -5.925781 4.007812 -6 4.46875 -6 L 4.46875 -4.421875 C 4.28125 -4.429688 4.148438 -4.4375 4.078125 -4.4375 C 3.585938 -4.4375 3.203125 -4.300781 2.921875 -4.03125 C 2.648438 -3.757812 2.515625 -3.347656 2.515625 -2.796875 L 2.515625 0 L 0.796875 0 L 0.796875 -5.921875 L 2.4375 -5.921875 Z M 2.4375 -5.140625 "/></g></g></g>
<g fill="#044581" fill-opacity="1"><g transform="translate(84.740272, 206.415632)"><g><path d="M 4.296875 -6 C 4.835938 -6 5.332031 -5.875 5.78125 -5.625 C 6.238281 -5.375 6.59375 -5.019531 6.84375 -4.5625 C 7.101562 -4.101562 7.234375 -3.566406 7.234375 -2.953125 C 7.234375 -2.347656 7.101562 -1.816406 6.84375 -1.359375 C 6.59375 -0.898438 6.238281 -0.539062 5.78125 -0.28125 C 5.332031 -0.03125 4.835938 0.09375 4.296875 0.09375 C 3.535156 0.09375 2.941406 -0.144531 2.515625 -0.625 L 2.515625 2.140625 L 0.796875 2.140625 L 0.796875 -5.921875 L 2.4375 -5.921875 L 2.4375 -5.234375 C 2.851562 -5.742188 3.472656 -6 4.296875 -6 Z M 4 -1.3125 C 4.4375 -1.3125 4.796875 -1.460938 5.078125 -1.765625 C 5.359375 -2.066406 5.5 -2.460938 5.5 -2.953125 C 5.5 -3.453125 5.359375 -3.847656 5.078125 -4.140625 C 4.796875 -4.441406 4.4375 -4.59375 4 -4.59375 C 3.550781 -4.59375 3.1875 -4.441406 2.90625 -4.140625 C 2.625 -3.847656 2.484375 -3.453125 2.484375 -2.953125 C 2.484375 -2.460938 2.625 -2.066406 2.90625 -1.765625 C 3.1875 -1.460938 3.550781 -1.3125 4 -1.3125 Z M 4 -1.3125 "/></g></g></g>
<g fill="#044581" fill-opacity="1"><g transform="translate(93.204905, 206.415632)"><g><path d="M 2.4375 -5.140625 C 2.632812 -5.421875 2.90625 -5.632812 3.25 -5.78125 C 3.601562 -5.925781 4.007812 -6 4.46875 -6 L 4.46875 -4.421875 C 4.28125 -4.429688 4.148438 -4.4375 4.078125 -4.4375 C 3.585938 -4.4375 3.203125 -4.300781 2.921875 -4.03125 C 2.648438 -3.757812 2.515625 -3.347656 2.515625 -2.796875 L 2.515625 0 L 0.796875 0 L 0.796875 -5.921875 L 2.4375 -5.921875 Z M 2.4375 -5.140625 "/></g></g></g>
<g fill="#044581" fill-opacity="1"><g transform="translate(98.822546, 206.415632)"><g><path d="M 0.578125 -7.703125 L 2.625 -7.703125 L 2.28125 -2.671875 L 0.90625 -2.671875 Z M 1.59375 0.09375 C 1.289062 0.09375 1.035156 -0.00390625 0.828125 -0.203125 C 0.628906 -0.398438 0.53125 -0.632812 0.53125 -0.90625 C 0.53125 -1.1875 0.628906 -1.421875 0.828125 -1.609375 C 1.035156 -1.796875 1.289062 -1.890625 1.59375 -1.890625 C 1.90625 -1.890625 2.160156 -1.796875 2.359375 -1.609375 C 2.554688 -1.421875 2.65625 -1.1875 2.65625 -0.90625 C 2.65625 -0.632812 2.550781 -0.398438 2.34375 -0.203125 C 2.144531 -0.00390625 1.894531 0.09375 1.59375 0.09375 Z M 1.59375 0.09375 "/></g></g></g>
<g fill="#044581" fill-opacity="1"><g transform="translate(102.879293, 206.415632)"><g><path d="M 2.78125 0.09375 C 2.289062 0.09375 1.8125 0.03125 1.34375 -0.09375 C 0.875 -0.21875 0.5 -0.367188 0.21875 -0.546875 L 0.796875 -1.78125 C 1.054688 -1.613281 1.375 -1.472656 1.75 -1.359375 C 2.125 -1.253906 2.488281 -1.203125 2.84375 -1.203125 C 3.570312 -1.203125 3.9375 -1.382812 3.9375 -1.75 C 3.9375 -1.914062 3.835938 -2.035156 3.640625 -2.109375 C 3.441406 -2.179688 3.140625 -2.242188 2.734375 -2.296875 C 2.242188 -2.367188 1.84375 -2.453125 1.53125 -2.546875 C 1.21875 -2.640625 0.941406 -2.804688 0.703125 -3.046875 C 0.472656 -3.296875 0.359375 -3.644531 0.359375 -4.09375 C 0.359375 -4.46875 0.46875 -4.796875 0.6875 -5.078125 C 0.90625 -5.367188 1.21875 -5.59375 1.625 -5.75 C 2.039062 -5.914062 2.535156 -6 3.109375 -6 C 3.523438 -6 3.9375 -5.953125 4.34375 -5.859375 C 4.757812 -5.773438 5.101562 -5.648438 5.375 -5.484375 L 4.8125 -4.265625 C 4.289062 -4.554688 3.722656 -4.703125 3.109375 -4.703125 C 2.734375 -4.703125 2.453125 -4.648438 2.265625 -4.546875 C 2.085938 -4.453125 2 -4.320312 2 -4.15625 C 2 -3.976562 2.097656 -3.847656 2.296875 -3.765625 C 2.492188 -3.691406 2.8125 -3.625 3.25 -3.5625 C 3.726562 -3.476562 4.117188 -3.390625 4.421875 -3.296875 C 4.734375 -3.210938 5.003906 -3.046875 5.234375 -2.796875 C 5.460938 -2.554688 5.578125 -2.222656 5.578125 -1.796875 C 5.578125 -1.429688 5.46875 -1.101562 5.25 -0.8125 C 5.03125 -0.53125 4.707031 -0.304688 4.28125 -0.140625 C 3.863281 0.015625 3.363281 0.09375 2.78125 0.09375 Z M 2.78125 0.09375 "/></g></g></g>
<g fill="#044581" fill-opacity="1"><g transform="translate(109.596162, 206.415632)"><g><path d="M 6.59375 -2.9375 C 6.59375 -2.914062 6.582031 -2.757812 6.5625 -2.46875 L 2.078125 -2.46875 C 2.160156 -2.101562 2.351562 -1.8125 2.65625 -1.59375 C 2.957031 -1.382812 3.328125 -1.28125 3.765625 -1.28125 C 4.078125 -1.28125 4.351562 -1.328125 4.59375 -1.421875 C 4.832031 -1.515625 5.054688 -1.660156 5.265625 -1.859375 L 6.171875 -0.875 C 5.609375 -0.226562 4.796875 0.09375 3.734375 0.09375 C 3.066406 0.09375 2.472656 -0.0351562 1.953125 -0.296875 C 1.441406 -0.554688 1.046875 -0.914062 0.765625 -1.375 C 0.492188 -1.84375 0.359375 -2.367188 0.359375 -2.953125 C 0.359375 -3.535156 0.492188 -4.054688 0.765625 -4.515625 C 1.035156 -4.984375 1.410156 -5.347656 1.890625 -5.609375 C 2.378906 -5.867188 2.921875 -6 3.515625 -6 C 4.085938 -6 4.609375 -5.875 5.078125 -5.625 C 5.546875 -5.382812 5.914062 -5.03125 6.1875 -4.5625 C 6.457031 -4.09375 6.59375 -3.550781 6.59375 -2.9375 Z M 3.515625 -4.703125 C 3.128906 -4.703125 2.800781 -4.59375 2.53125 -4.375 C 2.269531 -4.15625 2.113281 -3.851562 2.0625 -3.46875 L 4.96875 -3.46875 C 4.914062 -3.84375 4.753906 -4.140625 4.484375 -4.359375 C 4.222656 -4.585938 3.898438 -4.703125 3.515625 -4.703125 Z M 3.515625 -4.703125 "/></g></g></g>
<g fill="#044581" fill-opacity="1"><g transform="translate(117.412248, 206.415632)"><g><path d="M 2.78125 0.09375 C 2.289062 0.09375 1.8125 0.03125 1.34375 -0.09375 C 0.875 -0.21875 0.5 -0.367188 0.21875 -0.546875 L 0.796875 -1.78125 C 1.054688 -1.613281 1.375 -1.472656 1.75 -1.359375 C 2.125 -1.253906 2.488281 -1.203125 2.84375 -1.203125 C 3.570312 -1.203125 3.9375 -1.382812 3.9375 -1.75 C 3.9375 -1.914062 3.835938 -2.035156 3.640625 -2.109375 C 3.441406 -2.179688 3.140625 -2.242188 2.734375 -2.296875 C 2.242188 -2.367188 1.84375 -2.453125 1.53125 -2.546875 C 1.21875 -2.640625 0.941406 -2.804688 0.703125 -3.046875 C 0.472656 -3.296875 0.359375 -3.644531 0.359375 -4.09375 C 0.359375 -4.46875 0.46875 -4.796875 0.6875 -5.078125 C 0.90625 -5.367188 1.21875 -5.59375 1.625 -5.75 C 2.039062 -5.914062 2.535156 -6 3.109375 -6 C 3.523438 -6 3.9375 -5.953125 4.34375 -5.859375 C 4.757812 -5.773438 5.101562 -5.648438 5.375 -5.484375 L 4.8125 -4.265625 C 4.289062 -4.554688 3.722656 -4.703125 3.109375 -4.703125 C 2.734375 -4.703125 2.453125 -4.648438 2.265625 -4.546875 C 2.085938 -4.453125 2 -4.320312 2 -4.15625 C 2 -3.976562 2.097656 -3.847656 2.296875 -3.765625 C 2.492188 -3.691406 2.8125 -3.625 3.25 -3.5625 C 3.726562 -3.476562 4.117188 -3.390625 4.421875 -3.296875 C 4.734375 -3.210938 5.003906 -3.046875 5.234375 -2.796875 C 5.460938 -2.554688 5.578125 -2.222656 5.578125 -1.796875 C 5.578125 -1.429688 5.46875 -1.101562 5.25 -0.8125 C 5.03125 -0.53125 4.707031 -0.304688 4.28125 -0.140625 C 3.863281 0.015625 3.363281 0.09375 2.78125 0.09375 Z M 2.78125 0.09375 "/></g></g></g>
</svg>