<svg xmlns="http://www.w3.org/2000/svg" xmlns:xlink="http://www.w3.org/1999/xlink" width="100" height="100" viewBox="143 113 66 78" preserveAspectRatio="xMidYMid meet" version="1.0">
<defs>
<clipPath id="36caaf6cd1"><path d="M 172 174 L 184 174 L 184 191.316406 L 172 191.316406 Z M 172 174 " clip-rule="nonzero"/></clipPath>
<clipPath id="8d4ef7a416"><path d="M 143.246094 113.316406 L 209 113.316406 L 209 183 L 143.246094 183 Z M 143.246094 113.316406 " clip-rule="nonzero"/></clipPath>
</defs>
<g clip-path="url(#36caaf6cd1)"><path fill="#3cacae" d="M 172.632812 191.316406 L 172.632812 182.390625 C 177.039062 180.890625 180.921875 178.273438 183.957031 174.878906 L 183.957031 191.316406 L 172.632812 191.316406 " fill-opacity="1" fill-rule="nonzero"/></g>
<path fill="#3cacae" d="M 190.96875 163.246094 L 190.039062 163.246094 C 188.996094 167.640625 186.871094 171.621094 183.957031 174.878906 L 191.582031 174.878906 C 189.945312 173.34375 188.925781 171.164062 188.925781 168.742188 C 188.925781 166.640625 189.695312 164.71875 190.96875 163.246094 " fill-opacity="1" fill-rule="nonzero"/>
<g clip-path="url(#8d4ef7a416)"><path fill="#0a2e4f" d="M 197.34375 162.484375 C 200.796875 162.484375 203.601562 165.289062 203.601562 168.742188 C 203.601562 172.195312 200.796875 175.003906 197.34375 175.003906 C 193.890625 175.003906 191.082031 172.195312 191.082031 168.742188 C 191.082031 165.289062 193.890625 162.484375 197.34375 162.484375 Z M 181.355469 114.707031 C 178.535156 115.960938 176.574219 118.046875 175.6875 120.742188 C 174.679688 123.8125 174.992188 127.214844 176.566406 130.324219 C 177.351562 131.886719 178.359375 133.320312 179.40625 134.777344 C 180.425781 136.195312 181.523438 137.644531 182.664062 139.085938 C 182.707031 139.136719 182.757812 139.179688 182.8125 139.214844 C 185.71875 143.5625 187.257812 148.632812 187.257812 153.886719 C 187.257812 156.980469 186.726562 160.011719 185.679688 162.894531 L 184.304688 162.894531 L 184.304688 146.457031 L 172.289062 146.457031 L 172.289062 162.894531 L 154.984375 162.894531 L 154.984375 175.226562 L 172.289062 175.226562 L 172.289062 177.707031 C 168.699219 179.4375 164.84375 180.316406 160.828125 180.316406 C 154.582031 180.316406 148.523438 178.097656 143.761719 174.066406 L 143.273438 174.554688 C 143.511719 174.839844 143.769531 175.128906 144.03125 175.417969 L 144.050781 175.4375 C 149.070312 180.050781 155.585938 182.589844 162.40625 182.589844 C 165.996094 182.589844 169.480469 181.898438 172.769531 180.539062 C 176.4375 179.023438 179.792969 176.660156 182.476562 173.710938 C 185.175781 170.746094 187.210938 167.160156 188.367188 163.34375 C 189.140625 160.800781 189.53125 158.152344 189.53125 155.464844 C 189.53125 148.933594 187.175781 142.625 182.898438 137.695312 C 181.785156 136.265625 180.730469 134.851562 179.765625 133.488281 C 178.640625 131.898438 177.757812 130.53125 177.105469 129.03125 C 175.640625 125.667969 175.863281 121.703125 177.667969 118.925781 C 178.972656 116.914062 181.515625 115.382812 184.464844 114.820312 C 187.167969 114.308594 190.371094 114.546875 193.261719 115.480469 C 199.765625 117.578125 203.4375 124.242188 205.042969 128.023438 C 207.488281 133.777344 208.421875 140.414062 207.746094 147.210938 C 207.296875 151.695312 205.804688 157.929688 201.257812 162.304688 C 200.117188 161.609375 198.777344 161.207031 197.34375 161.207031 C 193.1875 161.207031 189.808594 164.589844 189.808594 168.742188 C 189.808594 172.898438 193.1875 176.277344 197.34375 176.277344 C 201.5 176.277344 204.878906 172.898438 204.878906 168.742188 C 204.878906 166.398438 203.804688 164.304688 202.121094 162.921875 C 202.578125 162.476562 203.003906 162.015625 203.394531 161.554688 C 206.773438 157.515625 208.695312 151.726562 208.953125 144.816406 C 209.226562 137.441406 207.730469 130.503906 204.632812 124.757812 C 203.023438 121.777344 201.070312 119.3125 198.832031 117.425781 C 196.492188 115.453125 193.652344 114.222656 190.394531 113.769531 C 186.898438 113.28125 183.859375 113.597656 181.355469 114.707031 " fill-opacity="1" fill-rule="nonzero"/></g>
<path fill="#3cacae" d="M 197.34375 163.941406 C 194.691406 163.941406 192.542969 166.09375 192.542969 168.742188 C 192.542969 171.394531 194.691406 173.542969 197.34375 173.542969 C 199.996094 173.542969 202.144531 171.394531 202.144531 168.742188 C 202.144531 166.09375 199.996094 163.941406 197.34375 163.941406 " fill-opacity="1" fill-rule="nonzero"/>
</svg>