<svg xmlns="http://www.w3.org/2000/svg" xmlns:xlink="http://www.w3.org/1999/xlink" width="500" zoomAndPan="magnify" viewBox="0 0 375 374.999991" height="500" preserveAspectRatio="xMidYMid meet" version="1.0"><defs><g/><clipPath id="0ca0e6fc08"><path d="M 55 173 L 67 173 L 67 190.421875 L 55 190.421875 Z M 55 173 " clip-rule="nonzero"/></clipPath><clipPath id="c711d66691"><path d="M 26.003906 112.421875 L 92 112.421875 L 92 182 L 26.003906 182 Z M 26.003906 112.421875 " clip-rule="nonzero"/></clipPath><clipPath id="4297cdd46e"><rect x="0" width="198" y="0" height="12"/></clipPath></defs><rect x="-37.5" width="450" fill="#ffffff" y="-37.499999" height="449.999989" fill-opacity="1"/><rect x="-37.5" width="450" fill="#ffffff" y="-37.499999" height="449.999989" fill-opacity="1"/><g clip-path="url(#0ca0e6fc08)"><path fill="#3cacae" d="M 55.390625 190.421875 L 55.390625 181.496094 C 59.792969 179.996094 63.679688 177.378906 66.714844 173.984375 L 66.714844 190.421875 L 55.390625 190.421875 " fill-opacity="1" fill-rule="nonzero"/></g><path fill="#3cacae" d="M 73.726562 162.347656 L 72.796875 162.347656 C 71.753906 166.746094 69.628906 170.722656 66.714844 173.984375 L 74.339844 173.984375 C 72.703125 172.449219 71.679688 170.265625 71.679688 167.847656 C 71.679688 165.746094 72.449219 163.824219 73.726562 162.347656 " fill-opacity="1" fill-rule="nonzero"/><g clip-path="url(#c711d66691)"><path fill="#0a2e4f" d="M 80.101562 161.585938 C 83.550781 161.585938 86.359375 164.394531 86.359375 167.847656 C 86.359375 171.300781 83.550781 174.105469 80.101562 174.105469 C 76.648438 174.105469 73.839844 171.300781 73.839844 167.847656 C 73.839844 164.394531 76.648438 161.585938 80.101562 161.585938 Z M 64.113281 113.8125 C 61.292969 115.0625 59.332031 117.152344 58.445312 119.847656 C 57.4375 122.914062 57.75 126.316406 59.320312 129.429688 C 60.109375 130.992188 61.117188 132.425781 62.164062 133.878906 C 63.183594 135.300781 64.28125 136.75 65.421875 138.1875 C 65.464844 138.242188 65.515625 138.285156 65.570312 138.316406 C 68.476562 142.667969 70.011719 147.738281 70.011719 152.992188 C 70.011719 156.085938 69.484375 159.117188 68.4375 162 L 67.0625 162 L 67.0625 145.5625 L 55.042969 145.5625 L 55.042969 162 L 37.742188 162 L 37.742188 174.332031 L 55.042969 174.332031 L 55.042969 176.8125 C 51.457031 178.542969 47.601562 179.417969 43.585938 179.417969 C 37.339844 179.417969 31.28125 177.199219 26.519531 173.171875 L 26.027344 173.660156 C 26.269531 173.945312 26.523438 174.234375 26.789062 174.519531 L 26.808594 174.539062 C 31.824219 179.152344 38.34375 181.695312 45.164062 181.695312 C 48.753906 181.695312 52.238281 181.003906 55.523438 179.644531 C 59.195312 178.128906 62.550781 175.765625 65.234375 172.816406 C 67.933594 169.847656 69.96875 166.265625 71.125 162.449219 C 71.898438 159.90625 72.289062 157.253906 72.289062 154.570312 C 72.289062 148.035156 69.933594 141.726562 65.65625 136.800781 C 64.539062 135.371094 63.488281 133.953125 62.523438 132.59375 C 61.398438 131 60.515625 129.632812 59.863281 128.136719 C 58.398438 124.773438 58.617188 120.808594 60.425781 118.03125 C 61.730469 116.019531 64.273438 114.484375 67.222656 113.925781 C 69.921875 113.410156 73.128906 113.652344 76.015625 114.582031 C 82.523438 116.683594 86.191406 123.34375 87.800781 127.128906 C 90.242188 132.882812 91.179688 139.515625 90.5 146.3125 C 90.054688 150.800781 88.5625 157.035156 84.011719 161.410156 C 82.871094 160.714844 81.53125 160.3125 80.101562 160.3125 C 75.945312 160.3125 72.566406 163.691406 72.566406 167.847656 C 72.566406 172 75.945312 175.382812 80.101562 175.382812 C 84.253906 175.382812 87.636719 172 87.636719 167.847656 C 87.636719 165.503906 86.5625 163.410156 84.878906 162.027344 C 85.335938 161.578125 85.761719 161.121094 86.148438 160.660156 C 89.53125 156.621094 91.453125 150.832031 91.707031 143.921875 C 91.980469 136.542969 90.488281 129.605469 87.386719 123.863281 C 85.777344 120.882812 83.828125 118.414062 81.589844 116.527344 C 79.25 114.554688 76.410156 113.324219 73.152344 112.871094 C 69.65625 112.386719 66.617188 112.703125 64.113281 113.8125 " fill-opacity="1" fill-rule="nonzero"/></g><path fill="#3cacae" d="M 80.101562 163.046875 C 77.449219 163.046875 75.300781 165.195312 75.300781 167.847656 C 75.300781 170.496094 77.449219 172.648438 80.101562 172.648438 C 82.75 172.648438 84.902344 170.496094 84.902344 167.847656 C 84.902344 165.195312 82.75 163.046875 80.101562 163.046875 " fill-opacity="1" fill-rule="nonzero"/><g fill="#0a2e4f" fill-opacity="1"><g transform="translate(89.776207, 180.78721)"><g><path d="M 5.25 0.203125 C 4.320312 0.203125 3.425781 0.078125 2.5625 -0.171875 C 1.695312 -0.421875 1 -0.75 0.46875 -1.15625 L 1.390625 -3.203125 C 1.898438 -2.835938 2.5 -2.539062 3.1875 -2.3125 C 3.882812 -2.09375 4.582031 -1.984375 5.28125 -1.984375 C 6.050781 -1.984375 6.617188 -2.097656 6.984375 -2.328125 C 7.359375 -2.554688 7.546875 -2.859375 7.546875 -3.234375 C 7.546875 -3.515625 7.4375 -3.75 7.21875 -3.9375 C 7 -4.125 6.71875 -4.269531 6.375 -4.375 C 6.03125 -4.488281 5.566406 -4.613281 4.984375 -4.75 C 4.085938 -4.96875 3.351562 -5.179688 2.78125 -5.390625 C 2.21875 -5.597656 1.726562 -5.9375 1.3125 -6.40625 C 0.90625 -6.882812 0.703125 -7.515625 0.703125 -8.296875 C 0.703125 -8.984375 0.882812 -9.601562 1.25 -10.15625 C 1.625 -10.707031 2.179688 -11.144531 2.921875 -11.46875 C 3.671875 -11.789062 4.582031 -11.953125 5.65625 -11.953125 C 6.40625 -11.953125 7.140625 -11.863281 7.859375 -11.6875 C 8.578125 -11.507812 9.203125 -11.253906 9.734375 -10.921875 L 8.90625 -8.859375 C 7.8125 -9.472656 6.722656 -9.78125 5.640625 -9.78125 C 4.878906 -9.78125 4.316406 -9.65625 3.953125 -9.40625 C 3.585938 -9.15625 3.40625 -8.832031 3.40625 -8.4375 C 3.40625 -8.03125 3.613281 -7.726562 4.03125 -7.53125 C 4.457031 -7.332031 5.101562 -7.140625 5.96875 -6.953125 C 6.863281 -6.742188 7.59375 -6.53125 8.15625 -6.3125 C 8.726562 -6.101562 9.21875 -5.769531 9.625 -5.3125 C 10.039062 -4.851562 10.25 -4.226562 10.25 -3.4375 C 10.25 -2.769531 10.0625 -2.15625 9.6875 -1.59375 C 9.3125 -1.039062 8.75 -0.601562 8 -0.28125 C 7.25 0.0390625 6.332031 0.203125 5.25 0.203125 Z M 5.25 0.203125 "/></g></g></g><g fill="#0a2e4f" fill-opacity="1"><g transform="translate(100.490108, 180.78721)"><g><path d="M 9.140625 -2.515625 L 3.671875 -2.515625 L 2.640625 0 L -0.15625 0 L 5.09375 -11.75 L 7.78125 -11.75 L 13.03125 0 L 10.171875 0 Z M 8.28125 -4.578125 L 6.421875 -9.09375 L 4.546875 -4.578125 Z M 8.28125 -4.578125 "/></g></g></g><g fill="#0a2e4f" fill-opacity="1"><g transform="translate(113.353507, 180.78721)"><g><path d="M 8.890625 0 L 6.625 -3.28125 L 4.109375 -3.28125 L 4.109375 0 L 1.390625 0 L 1.390625 -11.75 L 6.484375 -11.75 C 7.523438 -11.75 8.425781 -11.578125 9.1875 -11.234375 C 9.957031 -10.890625 10.550781 -10.394531 10.96875 -9.75 C 11.382812 -9.113281 11.59375 -8.359375 11.59375 -7.484375 C 11.59375 -6.617188 11.378906 -5.867188 10.953125 -5.234375 C 10.535156 -4.597656 9.941406 -4.113281 9.171875 -3.78125 L 11.8125 0 Z M 8.828125 -7.484375 C 8.828125 -8.148438 8.613281 -8.660156 8.1875 -9.015625 C 7.769531 -9.367188 7.148438 -9.546875 6.328125 -9.546875 L 4.109375 -9.546875 L 4.109375 -5.4375 L 6.328125 -5.4375 C 7.148438 -5.4375 7.769531 -5.613281 8.1875 -5.96875 C 8.613281 -6.332031 8.828125 -6.835938 8.828125 -7.484375 Z M 8.828125 -7.484375 "/></g></g></g><g fill="#0a2e4f" fill-opacity="1"><g transform="translate(125.696325, 180.78721)"><g><path d="M 12.703125 -11.75 L 7.609375 0 L 4.921875 0 L -0.15625 -11.75 L 2.78125 -11.75 L 6.359375 -3.359375 L 10 -11.75 Z M 12.703125 -11.75 "/></g></g></g><g fill="#0a2e4f" fill-opacity="1"><g transform="translate(138.223862, 180.78721)"><g><path d="M 9.140625 -2.515625 L 3.671875 -2.515625 L 2.640625 0 L -0.15625 0 L 5.09375 -11.75 L 7.78125 -11.75 L 13.03125 0 L 10.171875 0 Z M 8.28125 -4.578125 L 6.421875 -9.09375 L 4.546875 -4.578125 Z M 8.28125 -4.578125 "/></g></g></g><g fill="#0a2e4f" fill-opacity="1"><g transform="translate(151.087261, 180.78721)"><g><path d="M 9.34375 -6.0625 L 11.828125 -6.0625 L 11.828125 -1.296875 C 11.191406 -0.816406 10.453125 -0.445312 9.609375 -0.1875 C 8.765625 0.0703125 7.921875 0.203125 7.078125 0.203125 C 5.847656 0.203125 4.742188 -0.0546875 3.765625 -0.578125 C 2.796875 -1.097656 2.035156 -1.816406 1.484375 -2.734375 C 0.929688 -3.660156 0.65625 -4.707031 0.65625 -5.875 C 0.65625 -7.039062 0.929688 -8.082031 1.484375 -9 C 2.035156 -9.925781 2.804688 -10.648438 3.796875 -11.171875 C 4.785156 -11.691406 5.894531 -11.953125 7.125 -11.953125 C 8.15625 -11.953125 9.085938 -11.78125 9.921875 -11.4375 C 10.765625 -11.09375 11.472656 -10.585938 12.046875 -9.921875 L 10.296875 -8.3125 C 9.453125 -9.195312 8.4375 -9.640625 7.25 -9.640625 C 6.5 -9.640625 5.832031 -9.484375 5.25 -9.171875 C 4.675781 -8.859375 4.222656 -8.414062 3.890625 -7.84375 C 3.566406 -7.269531 3.40625 -6.613281 3.40625 -5.875 C 3.40625 -5.144531 3.566406 -4.492188 3.890625 -3.921875 C 4.222656 -3.359375 4.675781 -2.914062 5.25 -2.59375 C 5.820312 -2.269531 6.476562 -2.109375 7.21875 -2.109375 C 8 -2.109375 8.707031 -2.28125 9.34375 -2.625 Z M 9.34375 -6.0625 "/></g></g></g><g fill="#0a2e4f" fill-opacity="1"><g transform="translate(164.034625, 180.78721)"><g><path d="M 6.625 0.203125 C 4.9375 0.203125 3.625 -0.257812 2.6875 -1.1875 C 1.757812 -2.125 1.296875 -3.453125 1.296875 -5.171875 L 1.296875 -11.75 L 4.015625 -11.75 L 4.015625 -5.28125 C 4.015625 -3.164062 4.890625 -2.109375 6.640625 -2.109375 C 7.484375 -2.109375 8.128906 -2.363281 8.578125 -2.875 C 9.023438 -3.382812 9.25 -4.1875 9.25 -5.28125 L 9.25 -11.75 L 11.9375 -11.75 L 11.9375 -5.171875 C 11.9375 -3.453125 11.46875 -2.125 10.53125 -1.1875 C 9.601562 -0.257812 8.300781 0.203125 6.625 0.203125 Z M 6.625 0.203125 "/></g></g></g><g fill="#0a2e4f" fill-opacity="1"><g transform="translate(177.267473, 180.78721)"><g><path d="M 12.171875 -11.75 L 12.171875 0 L 9.9375 0 L 4.078125 -7.140625 L 4.078125 0 L 1.390625 0 L 1.390625 -11.75 L 3.640625 -11.75 L 9.484375 -4.625 L 9.484375 -11.75 Z M 12.171875 -11.75 "/></g></g></g><g fill="#0a2e4f" fill-opacity="1"><g transform="translate(190.836183, 180.78721)"><g/></g></g><g fill="#0a2e4f" fill-opacity="1"><g transform="translate(195.588593, 180.78721)"><g><path d="M 10.5 -2.1875 L 10.5 0 L 1.390625 0 L 1.390625 -11.75 L 10.28125 -11.75 L 10.28125 -9.578125 L 4.09375 -9.578125 L 4.09375 -7.015625 L 9.5625 -7.015625 L 9.5625 -4.90625 L 4.09375 -4.90625 L 4.09375 -2.1875 Z M 10.5 -2.1875 "/></g></g></g><g fill="#0a2e4f" fill-opacity="1"><g transform="translate(206.856663, 180.78721)"><g><path d="M 12.171875 -11.75 L 12.171875 0 L 9.9375 0 L 4.078125 -7.140625 L 4.078125 0 L 1.390625 0 L 1.390625 -11.75 L 3.640625 -11.75 L 9.484375 -4.625 L 9.484375 -11.75 Z M 12.171875 -11.75 "/></g></g></g><g fill="#0a2e4f" fill-opacity="1"><g transform="translate(220.425372, 180.78721)"><g><path d="M 3.828125 -9.546875 L 0.0625 -9.546875 L 0.0625 -11.75 L 10.3125 -11.75 L 10.3125 -9.546875 L 6.546875 -9.546875 L 6.546875 0 L 3.828125 0 Z M 3.828125 -9.546875 "/></g></g></g><g fill="#0a2e4f" fill-opacity="1"><g transform="translate(230.803412, 180.78721)"><g><path d="M 10.5 -2.1875 L 10.5 0 L 1.390625 0 L 1.390625 -11.75 L 10.28125 -11.75 L 10.28125 -9.578125 L 4.09375 -9.578125 L 4.09375 -7.015625 L 9.5625 -7.015625 L 9.5625 -4.90625 L 4.09375 -4.90625 L 4.09375 -2.1875 Z M 10.5 -2.1875 "/></g></g></g><g fill="#0a2e4f" fill-opacity="1"><g transform="translate(242.071481, 180.78721)"><g><path d="M 8.890625 0 L 6.625 -3.28125 L 4.109375 -3.28125 L 4.109375 0 L 1.390625 0 L 1.390625 -11.75 L 6.484375 -11.75 C 7.523438 -11.75 8.425781 -11.578125 9.1875 -11.234375 C 9.957031 -10.890625 10.550781 -10.394531 10.96875 -9.75 C 11.382812 -9.113281 11.59375 -8.359375 11.59375 -7.484375 C 11.59375 -6.617188 11.378906 -5.867188 10.953125 -5.234375 C 10.535156 -4.597656 9.941406 -4.113281 9.171875 -3.78125 L 11.8125 0 Z M 8.828125 -7.484375 C 8.828125 -8.148438 8.613281 -8.660156 8.1875 -9.015625 C 7.769531 -9.367188 7.148438 -9.546875 6.328125 -9.546875 L 4.109375 -9.546875 L 4.109375 -5.4375 L 6.328125 -5.4375 C 7.148438 -5.4375 7.769531 -5.613281 8.1875 -5.96875 C 8.613281 -6.332031 8.828125 -6.835938 8.828125 -7.484375 Z M 8.828125 -7.484375 "/></g></g></g><g fill="#0a2e4f" fill-opacity="1"><g transform="translate(254.4143, 180.78721)"><g><path d="M 6.484375 -11.75 C 7.523438 -11.75 8.425781 -11.578125 9.1875 -11.234375 C 9.957031 -10.890625 10.550781 -10.394531 10.96875 -9.75 C 11.382812 -9.113281 11.59375 -8.359375 11.59375 -7.484375 C 11.59375 -6.628906 11.382812 -5.878906 10.96875 -5.234375 C 10.550781 -4.585938 9.957031 -4.09375 9.1875 -3.75 C 8.425781 -3.40625 7.523438 -3.234375 6.484375 -3.234375 L 4.109375 -3.234375 L 4.109375 0 L 1.390625 0 L 1.390625 -11.75 Z M 6.328125 -5.453125 C 7.148438 -5.453125 7.769531 -5.628906 8.1875 -5.984375 C 8.613281 -6.335938 8.828125 -6.835938 8.828125 -7.484375 C 8.828125 -8.148438 8.613281 -8.660156 8.1875 -9.015625 C 7.769531 -9.367188 7.148438 -9.546875 6.328125 -9.546875 L 4.109375 -9.546875 L 4.109375 -5.453125 Z M 6.328125 -5.453125 "/></g></g></g><g fill="#0a2e4f" fill-opacity="1"><g transform="translate(266.706741, 180.78721)"><g><path d="M 8.890625 0 L 6.625 -3.28125 L 4.109375 -3.28125 L 4.109375 0 L 1.390625 0 L 1.390625 -11.75 L 6.484375 -11.75 C 7.523438 -11.75 8.425781 -11.578125 9.1875 -11.234375 C 9.957031 -10.890625 10.550781 -10.394531 10.96875 -9.75 C 11.382812 -9.113281 11.59375 -8.359375 11.59375 -7.484375 C 11.59375 -6.617188 11.378906 -5.867188 10.953125 -5.234375 C 10.535156 -4.597656 9.941406 -4.113281 9.171875 -3.78125 L 11.8125 0 Z M 8.828125 -7.484375 C 8.828125 -8.148438 8.613281 -8.660156 8.1875 -9.015625 C 7.769531 -9.367188 7.148438 -9.546875 6.328125 -9.546875 L 4.109375 -9.546875 L 4.109375 -5.4375 L 6.328125 -5.4375 C 7.148438 -5.4375 7.769531 -5.613281 8.1875 -5.96875 C 8.613281 -6.332031 8.828125 -6.835938 8.828125 -7.484375 Z M 8.828125 -7.484375 "/></g></g></g><g fill="#0a2e4f" fill-opacity="1"><g transform="translate(279.04956, 180.78721)"><g><path d="M 1.390625 -11.75 L 4.109375 -11.75 L 4.109375 0 L 1.390625 0 Z M 1.390625 -11.75 "/></g></g></g><g fill="#0a2e4f" fill-opacity="1"><g transform="translate(284.557658, 180.78721)"><g><path d="M 5.25 0.203125 C 4.320312 0.203125 3.425781 0.078125 2.5625 -0.171875 C 1.695312 -0.421875 1 -0.75 0.46875 -1.15625 L 1.390625 -3.203125 C 1.898438 -2.835938 2.5 -2.539062 3.1875 -2.3125 C 3.882812 -2.09375 4.582031 -1.984375 5.28125 -1.984375 C 6.050781 -1.984375 6.617188 -2.097656 6.984375 -2.328125 C 7.359375 -2.554688 7.546875 -2.859375 7.546875 -3.234375 C 7.546875 -3.515625 7.4375 -3.75 7.21875 -3.9375 C 7 -4.125 6.71875 -4.269531 6.375 -4.375 C 6.03125 -4.488281 5.566406 -4.613281 4.984375 -4.75 C 4.085938 -4.96875 3.351562 -5.179688 2.78125 -5.390625 C 2.21875 -5.597656 1.726562 -5.9375 1.3125 -6.40625 C 0.90625 -6.882812 0.703125 -7.515625 0.703125 -8.296875 C 0.703125 -8.984375 0.882812 -9.601562 1.25 -10.15625 C 1.625 -10.707031 2.179688 -11.144531 2.921875 -11.46875 C 3.671875 -11.789062 4.582031 -11.953125 5.65625 -11.953125 C 6.40625 -11.953125 7.140625 -11.863281 7.859375 -11.6875 C 8.578125 -11.507812 9.203125 -11.253906 9.734375 -10.921875 L 8.90625 -8.859375 C 7.8125 -9.472656 6.722656 -9.78125 5.640625 -9.78125 C 4.878906 -9.78125 4.316406 -9.65625 3.953125 -9.40625 C 3.585938 -9.15625 3.40625 -8.832031 3.40625 -8.4375 C 3.40625 -8.03125 3.613281 -7.726562 4.03125 -7.53125 C 4.457031 -7.332031 5.101562 -7.140625 5.96875 -6.953125 C 6.863281 -6.742188 7.59375 -6.53125 8.15625 -6.3125 C 8.726562 -6.101562 9.21875 -5.769531 9.625 -5.3125 C 10.039062 -4.851562 10.25 -4.226562 10.25 -3.4375 C 10.25 -2.769531 10.0625 -2.15625 9.6875 -1.59375 C 9.3125 -1.039062 8.75 -0.601562 8 -0.28125 C 7.25 0.0390625 6.332031 0.203125 5.25 0.203125 Z M 5.25 0.203125 "/></g></g></g><g fill="#0a2e4f" fill-opacity="1"><g transform="translate(295.271547, 180.78721)"><g><path d="M 10.5 -2.1875 L 10.5 0 L 1.390625 0 L 1.390625 -11.75 L 10.28125 -11.75 L 10.28125 -9.578125 L 4.09375 -9.578125 L 4.09375 -7.015625 L 9.5625 -7.015625 L 9.5625 -4.90625 L 4.09375 -4.90625 L 4.09375 -2.1875 Z M 10.5 -2.1875 "/></g></g></g><g fill="#0a2e4f" fill-opacity="1"><g transform="translate(306.539606, 180.78721)"><g><path d="M 5.25 0.203125 C 4.320312 0.203125 3.425781 0.078125 2.5625 -0.171875 C 1.695312 -0.421875 1 -0.75 0.46875 -1.15625 L 1.390625 -3.203125 C 1.898438 -2.835938 2.5 -2.539062 3.1875 -2.3125 C 3.882812 -2.09375 4.582031 -1.984375 5.28125 -1.984375 C 6.050781 -1.984375 6.617188 -2.097656 6.984375 -2.328125 C 7.359375 -2.554688 7.546875 -2.859375 7.546875 -3.234375 C 7.546875 -3.515625 7.4375 -3.75 7.21875 -3.9375 C 7 -4.125 6.71875 -4.269531 6.375 -4.375 C 6.03125 -4.488281 5.566406 -4.613281 4.984375 -4.75 C 4.085938 -4.96875 3.351562 -5.179688 2.78125 -5.390625 C 2.21875 -5.597656 1.726562 -5.9375 1.3125 -6.40625 C 0.90625 -6.882812 0.703125 -7.515625 0.703125 -8.296875 C 0.703125 -8.984375 0.882812 -9.601562 1.25 -10.15625 C 1.625 -10.707031 2.179688 -11.144531 2.921875 -11.46875 C 3.671875 -11.789062 4.582031 -11.953125 5.65625 -11.953125 C 6.40625 -11.953125 7.140625 -11.863281 7.859375 -11.6875 C 8.578125 -11.507812 9.203125 -11.253906 9.734375 -10.921875 L 8.90625 -8.859375 C 7.8125 -9.472656 6.722656 -9.78125 5.640625 -9.78125 C 4.878906 -9.78125 4.316406 -9.65625 3.953125 -9.40625 C 3.585938 -9.15625 3.40625 -8.832031 3.40625 -8.4375 C 3.40625 -8.03125 3.613281 -7.726562 4.03125 -7.53125 C 4.457031 -7.332031 5.101562 -7.140625 5.96875 -6.953125 C 6.863281 -6.742188 7.59375 -6.53125 8.15625 -6.3125 C 8.726562 -6.101562 9.21875 -5.769531 9.625 -5.3125 C 10.039062 -4.851562 10.25 -4.226562 10.25 -3.4375 C 10.25 -2.769531 10.0625 -2.15625 9.6875 -1.59375 C 9.3125 -1.039062 8.75 -0.601562 8 -0.28125 C 7.25 0.0390625 6.332031 0.203125 5.25 0.203125 Z M 5.25 0.203125 "/></g></g></g><g transform="matrix(1, 0, 0, 1, 89, 180)"><g clip-path="url(#4297cdd46e)"><g fill="#3cacae" fill-opacity="1"><g transform="translate(1.241981, 8.653516)"><g><path d="M 6.90625 -5.421875 L 5.453125 0 L 4.8125 0 L 3.734375 -3.65625 C 3.703125 -3.75 3.671875 -3.847656 3.640625 -3.953125 C 3.617188 -4.066406 3.59375 -4.171875 3.5625 -4.265625 C 3.539062 -4.359375 3.519531 -4.441406 3.5 -4.515625 C 3.488281 -4.585938 3.476562 -4.640625 3.46875 -4.671875 C 3.46875 -4.640625 3.457031 -4.585938 3.4375 -4.515625 C 3.425781 -4.441406 3.410156 -4.359375 3.390625 -4.265625 C 3.367188 -4.171875 3.34375 -4.070312 3.3125 -3.96875 C 3.289062 -3.863281 3.265625 -3.753906 3.234375 -3.640625 L 2.1875 0 L 1.546875 0 L 0.109375 -5.421875 L 0.765625 -5.421875 L 1.640625 -2.015625 C 1.671875 -1.898438 1.695312 -1.785156 1.71875 -1.671875 C 1.75 -1.566406 1.773438 -1.460938 1.796875 -1.359375 C 1.816406 -1.253906 1.832031 -1.148438 1.84375 -1.046875 C 1.863281 -0.953125 1.882812 -0.859375 1.90625 -0.765625 C 1.914062 -0.867188 1.925781 -0.972656 1.9375 -1.078125 C 1.957031 -1.179688 1.976562 -1.285156 2 -1.390625 C 2.03125 -1.503906 2.054688 -1.613281 2.078125 -1.71875 C 2.109375 -1.832031 2.144531 -1.945312 2.1875 -2.0625 L 3.15625 -5.421875 L 3.796875 -5.421875 L 4.8125 -2.03125 C 4.851562 -1.914062 4.890625 -1.800781 4.921875 -1.6875 C 4.953125 -1.570312 4.976562 -1.457031 5 -1.34375 C 5.019531 -1.238281 5.039062 -1.140625 5.0625 -1.046875 C 5.082031 -0.953125 5.097656 -0.859375 5.109375 -0.765625 C 5.128906 -0.890625 5.148438 -1.019531 5.171875 -1.15625 C 5.191406 -1.289062 5.21875 -1.429688 5.25 -1.578125 C 5.289062 -1.722656 5.332031 -1.875 5.375 -2.03125 L 6.234375 -5.421875 Z M 6.90625 -5.421875 "/></g></g></g><g fill="#3cacae" fill-opacity="1"><g transform="translate(9.62737, 8.653516)"><g><path d="M 1.265625 -5.765625 L 1.265625 -4.046875 C 1.265625 -3.941406 1.257812 -3.835938 1.25 -3.734375 C 1.25 -3.640625 1.242188 -3.550781 1.234375 -3.46875 L 1.265625 -3.46875 C 1.347656 -3.613281 1.453125 -3.734375 1.578125 -3.828125 C 1.710938 -3.929688 1.863281 -4.003906 2.03125 -4.046875 C 2.195312 -4.097656 2.375 -4.125 2.5625 -4.125 C 2.882812 -4.125 3.15625 -4.070312 3.375 -3.96875 C 3.59375 -3.863281 3.753906 -3.703125 3.859375 -3.484375 C 3.972656 -3.273438 4.03125 -2.992188 4.03125 -2.640625 L 4.03125 0 L 3.4375 0 L 3.4375 -2.609375 C 3.4375 -2.941406 3.359375 -3.191406 3.203125 -3.359375 C 3.046875 -3.535156 2.804688 -3.625 2.484375 -3.625 C 2.179688 -3.625 1.941406 -3.566406 1.765625 -3.453125 C 1.585938 -3.335938 1.457031 -3.164062 1.375 -2.9375 C 1.300781 -2.71875 1.265625 -2.445312 1.265625 -2.125 L 1.265625 0 L 0.65625 0 L 0.65625 -5.765625 Z M 1.265625 -5.765625 "/></g></g></g><g fill="#3cacae" fill-opacity="1"><g transform="translate(15.65631, 8.653516)"><g><path d="M 4.15625 -2.046875 C 4.15625 -1.703125 4.109375 -1.398438 4.015625 -1.140625 C 3.929688 -0.878906 3.804688 -0.660156 3.640625 -0.484375 C 3.484375 -0.304688 3.285156 -0.164062 3.046875 -0.0625 C 2.816406 0.03125 2.554688 0.078125 2.265625 0.078125 C 1.992188 0.078125 1.742188 0.03125 1.515625 -0.0625 C 1.296875 -0.164062 1.101562 -0.304688 0.9375 -0.484375 C 0.769531 -0.660156 0.640625 -0.878906 0.546875 -1.140625 C 0.460938 -1.398438 0.421875 -1.703125 0.421875 -2.046875 C 0.421875 -2.484375 0.492188 -2.859375 0.640625 -3.171875 C 0.796875 -3.484375 1.015625 -3.722656 1.296875 -3.890625 C 1.578125 -4.054688 1.910156 -4.140625 2.296875 -4.140625 C 2.671875 -4.140625 2.992188 -4.054688 3.265625 -3.890625 C 3.546875 -3.722656 3.765625 -3.484375 3.921875 -3.171875 C 4.078125 -2.859375 4.15625 -2.484375 4.15625 -2.046875 Z M 1.0625 -2.046875 C 1.0625 -1.710938 1.101562 -1.425781 1.1875 -1.1875 C 1.269531 -0.945312 1.398438 -0.757812 1.578125 -0.625 C 1.765625 -0.5 2 -0.4375 2.28125 -0.4375 C 2.5625 -0.4375 2.789062 -0.5 2.96875 -0.625 C 3.15625 -0.757812 3.289062 -0.945312 3.375 -1.1875 C 3.46875 -1.425781 3.515625 -1.710938 3.515625 -2.046875 C 3.515625 -2.367188 3.46875 -2.644531 3.375 -2.875 C 3.289062 -3.113281 3.160156 -3.296875 2.984375 -3.421875 C 2.804688 -3.554688 2.570312 -3.625 2.28125 -3.625 C 1.863281 -3.625 1.554688 -3.484375 1.359375 -3.203125 C 1.160156 -2.921875 1.0625 -2.535156 1.0625 -2.046875 Z M 1.0625 -2.046875 "/></g></g></g><g fill="#3cacae" fill-opacity="1"><g transform="translate(21.596188, 8.653516)"><g><path d="M 1.265625 0 L 0.65625 0 L 0.65625 -5.765625 L 1.265625 -5.765625 Z M 1.265625 0 "/></g></g></g><g fill="#3cacae" fill-opacity="1"><g transform="translate(24.88274, 8.653516)"><g><path d="M 2.21875 -4.140625 C 2.5625 -4.140625 2.851562 -4.0625 3.09375 -3.90625 C 3.34375 -3.75 3.535156 -3.53125 3.671875 -3.25 C 3.804688 -2.976562 3.875 -2.660156 3.875 -2.296875 L 3.875 -1.921875 L 1.0625 -1.921875 C 1.070312 -1.441406 1.191406 -1.078125 1.421875 -0.828125 C 1.648438 -0.578125 1.972656 -0.453125 2.390625 -0.453125 C 2.648438 -0.453125 2.875 -0.472656 3.0625 -0.515625 C 3.257812 -0.566406 3.46875 -0.640625 3.6875 -0.734375 L 3.6875 -0.1875 C 3.476562 -0.09375 3.273438 -0.0234375 3.078125 0.015625 C 2.878906 0.0546875 2.640625 0.078125 2.359375 0.078125 C 1.972656 0.078125 1.632812 0 1.34375 -0.15625 C 1.050781 -0.320312 0.820312 -0.554688 0.65625 -0.859375 C 0.5 -1.171875 0.421875 -1.550781 0.421875 -2 C 0.421875 -2.4375 0.492188 -2.816406 0.640625 -3.140625 C 0.785156 -3.460938 0.992188 -3.707031 1.265625 -3.875 C 1.535156 -4.050781 1.851562 -4.140625 2.21875 -4.140625 Z M 2.203125 -3.640625 C 1.878906 -3.640625 1.617188 -3.53125 1.421875 -3.3125 C 1.222656 -3.09375 1.109375 -2.789062 1.078125 -2.40625 L 3.21875 -2.40625 C 3.21875 -2.65625 3.179688 -2.867188 3.109375 -3.046875 C 3.035156 -3.234375 2.925781 -3.378906 2.78125 -3.484375 C 2.632812 -3.585938 2.441406 -3.640625 2.203125 -3.640625 Z M 2.203125 -3.640625 "/></g></g></g><g fill="#3cacae" fill-opacity="1"><g transform="translate(30.518321, 8.653516)"><g><path d="M 3.28125 -1.109375 C 3.28125 -0.847656 3.210938 -0.628906 3.078125 -0.453125 C 2.953125 -0.273438 2.769531 -0.140625 2.53125 -0.046875 C 2.289062 0.0351562 2.003906 0.078125 1.671875 0.078125 C 1.378906 0.078125 1.128906 0.0507812 0.921875 0 C 0.710938 -0.0390625 0.53125 -0.101562 0.375 -0.1875 L 0.375 -0.75 C 0.539062 -0.664062 0.738281 -0.585938 0.96875 -0.515625 C 1.195312 -0.453125 1.429688 -0.421875 1.671875 -0.421875 C 2.023438 -0.421875 2.28125 -0.476562 2.4375 -0.59375 C 2.601562 -0.707031 2.6875 -0.863281 2.6875 -1.0625 C 2.6875 -1.175781 2.648438 -1.273438 2.578125 -1.359375 C 2.515625 -1.441406 2.410156 -1.519531 2.265625 -1.59375 C 2.117188 -1.675781 1.914062 -1.769531 1.65625 -1.875 C 1.394531 -1.96875 1.171875 -2.0625 0.984375 -2.15625 C 0.796875 -2.257812 0.648438 -2.378906 0.546875 -2.515625 C 0.441406 -2.660156 0.390625 -2.84375 0.390625 -3.0625 C 0.390625 -3.40625 0.523438 -3.671875 0.796875 -3.859375 C 1.078125 -4.046875 1.445312 -4.140625 1.90625 -4.140625 C 2.144531 -4.140625 2.367188 -4.113281 2.578125 -4.0625 C 2.796875 -4.019531 3 -3.957031 3.1875 -3.875 L 2.984375 -3.375 C 2.816406 -3.445312 2.632812 -3.507812 2.4375 -3.5625 C 2.25 -3.613281 2.054688 -3.640625 1.859375 -3.640625 C 1.578125 -3.640625 1.359375 -3.59375 1.203125 -3.5 C 1.054688 -3.40625 0.984375 -3.273438 0.984375 -3.109375 C 0.984375 -2.984375 1.015625 -2.878906 1.078125 -2.796875 C 1.148438 -2.710938 1.265625 -2.632812 1.421875 -2.5625 C 1.578125 -2.488281 1.785156 -2.40625 2.046875 -2.3125 C 2.296875 -2.21875 2.515625 -2.117188 2.703125 -2.015625 C 2.890625 -1.921875 3.03125 -1.800781 3.125 -1.65625 C 3.226562 -1.519531 3.28125 -1.335938 3.28125 -1.109375 Z M 3.28125 -1.109375 "/></g></g></g><g fill="#3cacae" fill-opacity="1"><g transform="translate(35.508196, 8.653516)"><g><path d="M 2.171875 -4.125 C 2.648438 -4.125 3.003906 -4.015625 3.234375 -3.796875 C 3.472656 -3.585938 3.59375 -3.242188 3.59375 -2.765625 L 3.59375 0 L 3.15625 0 L 3.03125 -0.59375 L 3 -0.59375 C 2.882812 -0.445312 2.765625 -0.320312 2.640625 -0.21875 C 2.523438 -0.125 2.382812 -0.0507812 2.21875 0 C 2.050781 0.0507812 1.851562 0.078125 1.625 0.078125 C 1.375 0.078125 1.148438 0.0351562 0.953125 -0.046875 C 0.765625 -0.140625 0.613281 -0.273438 0.5 -0.453125 C 0.394531 -0.628906 0.34375 -0.847656 0.34375 -1.109375 C 0.34375 -1.515625 0.503906 -1.828125 0.828125 -2.046875 C 1.148438 -2.265625 1.640625 -2.382812 2.296875 -2.40625 L 3 -2.4375 L 3 -2.6875 C 3 -3.039062 2.921875 -3.285156 2.765625 -3.421875 C 2.617188 -3.566406 2.410156 -3.640625 2.140625 -3.640625 C 1.921875 -3.640625 1.710938 -3.609375 1.515625 -3.546875 C 1.328125 -3.484375 1.148438 -3.410156 0.984375 -3.328125 L 0.796875 -3.796875 C 0.972656 -3.890625 1.179688 -3.96875 1.421875 -4.03125 C 1.660156 -4.09375 1.910156 -4.125 2.171875 -4.125 Z M 3 -2 L 2.375 -1.96875 C 1.863281 -1.957031 1.503906 -1.878906 1.296875 -1.734375 C 1.085938 -1.585938 0.984375 -1.378906 0.984375 -1.109375 C 0.984375 -0.878906 1.050781 -0.707031 1.1875 -0.59375 C 1.332031 -0.476562 1.523438 -0.421875 1.765625 -0.421875 C 2.117188 -0.421875 2.410156 -0.519531 2.640625 -0.71875 C 2.878906 -0.925781 3 -1.226562 3 -1.625 Z M 3 -2 "/></g></g></g><g fill="#3cacae" fill-opacity="1"><g transform="translate(41.099245, 8.653516)"><g><path d="M 1.265625 0 L 0.65625 0 L 0.65625 -5.765625 L 1.265625 -5.765625 Z M 1.265625 0 "/></g></g></g><g fill="#3cacae" fill-opacity="1"><g transform="translate(44.385798, 8.653516)"><g><path d="M 2.21875 -4.140625 C 2.5625 -4.140625 2.851562 -4.0625 3.09375 -3.90625 C 3.34375 -3.75 3.535156 -3.53125 3.671875 -3.25 C 3.804688 -2.976562 3.875 -2.660156 3.875 -2.296875 L 3.875 -1.921875 L 1.0625 -1.921875 C 1.070312 -1.441406 1.191406 -1.078125 1.421875 -0.828125 C 1.648438 -0.578125 1.972656 -0.453125 2.390625 -0.453125 C 2.648438 -0.453125 2.875 -0.472656 3.0625 -0.515625 C 3.257812 -0.566406 3.46875 -0.640625 3.6875 -0.734375 L 3.6875 -0.1875 C 3.476562 -0.09375 3.273438 -0.0234375 3.078125 0.015625 C 2.878906 0.0546875 2.640625 0.078125 2.359375 0.078125 C 1.972656 0.078125 1.632812 0 1.34375 -0.15625 C 1.050781 -0.320312 0.820312 -0.554688 0.65625 -0.859375 C 0.5 -1.171875 0.421875 -1.550781 0.421875 -2 C 0.421875 -2.4375 0.492188 -2.816406 0.640625 -3.140625 C 0.785156 -3.460938 0.992188 -3.707031 1.265625 -3.875 C 1.535156 -4.050781 1.851562 -4.140625 2.21875 -4.140625 Z M 2.203125 -3.640625 C 1.878906 -3.640625 1.617188 -3.53125 1.421875 -3.3125 C 1.222656 -3.09375 1.109375 -2.789062 1.078125 -2.40625 L 3.21875 -2.40625 C 3.21875 -2.65625 3.179688 -2.867188 3.109375 -3.046875 C 3.035156 -3.234375 2.925781 -3.378906 2.78125 -3.484375 C 2.632812 -3.585938 2.441406 -3.640625 2.203125 -3.640625 Z M 2.203125 -3.640625 "/></g></g></g><g fill="#3cacae" fill-opacity="1"><g transform="translate(50.021378, 8.653516)"><g/></g></g><g fill="#3cacae" fill-opacity="1"><g transform="translate(53.363595, 8.653516)"><g><path d="M 3.125 0 L 1.3125 -4.796875 L 1.28125 -4.796875 C 1.289062 -4.691406 1.296875 -4.566406 1.296875 -4.421875 C 1.304688 -4.273438 1.3125 -4.113281 1.3125 -3.9375 C 1.320312 -3.769531 1.328125 -3.597656 1.328125 -3.421875 L 1.328125 0 L 0.734375 0 L 0.734375 -5.421875 L 1.671875 -5.421875 L 3.390625 -0.90625 L 3.421875 -0.90625 L 5.15625 -5.421875 L 6.09375 -5.421875 L 6.09375 0 L 5.46875 0 L 5.46875 -3.46875 C 5.46875 -3.632812 5.46875 -3.796875 5.46875 -3.953125 C 5.476562 -4.117188 5.484375 -4.269531 5.484375 -4.40625 C 5.492188 -4.550781 5.503906 -4.679688 5.515625 -4.796875 L 5.484375 -4.796875 L 3.640625 0 Z M 3.125 0 "/></g></g></g><g fill="#3cacae" fill-opacity="1"><g transform="translate(61.567148, 8.653516)"><g><path d="M 2.21875 -4.140625 C 2.5625 -4.140625 2.851562 -4.0625 3.09375 -3.90625 C 3.34375 -3.75 3.535156 -3.53125 3.671875 -3.25 C 3.804688 -2.976562 3.875 -2.660156 3.875 -2.296875 L 3.875 -1.921875 L 1.0625 -1.921875 C 1.070312 -1.441406 1.191406 -1.078125 1.421875 -0.828125 C 1.648438 -0.578125 1.972656 -0.453125 2.390625 -0.453125 C 2.648438 -0.453125 2.875 -0.472656 3.0625 -0.515625 C 3.257812 -0.566406 3.46875 -0.640625 3.6875 -0.734375 L 3.6875 -0.1875 C 3.476562 -0.09375 3.273438 -0.0234375 3.078125 0.015625 C 2.878906 0.0546875 2.640625 0.078125 2.359375 0.078125 C 1.972656 0.078125 1.632812 0 1.34375 -0.15625 C 1.050781 -0.320312 0.820312 -0.554688 0.65625 -0.859375 C 0.5 -1.171875 0.421875 -1.550781 0.421875 -2 C 0.421875 -2.4375 0.492188 -2.816406 0.640625 -3.140625 C 0.785156 -3.460938 0.992188 -3.707031 1.265625 -3.875 C 1.535156 -4.050781 1.851562 -4.140625 2.21875 -4.140625 Z M 2.203125 -3.640625 C 1.878906 -3.640625 1.617188 -3.53125 1.421875 -3.3125 C 1.222656 -3.09375 1.109375 -2.789062 1.078125 -2.40625 L 3.21875 -2.40625 C 3.21875 -2.65625 3.179688 -2.867188 3.109375 -3.046875 C 3.035156 -3.234375 2.925781 -3.378906 2.78125 -3.484375 C 2.632812 -3.585938 2.441406 -3.640625 2.203125 -3.640625 Z M 2.203125 -3.640625 "/></g></g></g><g fill="#3cacae" fill-opacity="1"><g transform="translate(67.202728, 8.653516)"><g><path d="M 2.09375 0.078125 C 1.582031 0.078125 1.175781 -0.0976562 0.875 -0.453125 C 0.570312 -0.804688 0.421875 -1.328125 0.421875 -2.015625 C 0.421875 -2.710938 0.570312 -3.238281 0.875 -3.59375 C 1.1875 -3.957031 1.597656 -4.140625 2.109375 -4.140625 C 2.316406 -4.140625 2.5 -4.109375 2.65625 -4.046875 C 2.820312 -3.992188 2.960938 -3.921875 3.078125 -3.828125 C 3.203125 -3.734375 3.300781 -3.625 3.375 -3.5 L 3.421875 -3.5 C 3.410156 -3.570312 3.398438 -3.675781 3.390625 -3.8125 C 3.378906 -3.945312 3.375 -4.054688 3.375 -4.140625 L 3.375 -5.765625 L 4 -5.765625 L 4 0 L 3.5 0 L 3.40625 -0.578125 L 3.375 -0.578125 C 3.300781 -0.453125 3.203125 -0.335938 3.078125 -0.234375 C 2.960938 -0.140625 2.820312 -0.0625 2.65625 0 C 2.5 0.0507812 2.3125 0.078125 2.09375 0.078125 Z M 2.1875 -0.4375 C 2.625 -0.4375 2.929688 -0.554688 3.109375 -0.796875 C 3.296875 -1.046875 3.390625 -1.414062 3.390625 -1.90625 L 3.390625 -2.015625 C 3.390625 -2.535156 3.300781 -2.929688 3.125 -3.203125 C 2.957031 -3.484375 2.644531 -3.625 2.1875 -3.625 C 1.8125 -3.625 1.53125 -3.476562 1.34375 -3.1875 C 1.15625 -2.894531 1.0625 -2.5 1.0625 -2 C 1.0625 -1.5 1.15625 -1.113281 1.34375 -0.84375 C 1.53125 -0.570312 1.8125 -0.4375 2.1875 -0.4375 Z M 2.1875 -0.4375 "/></g></g></g><g fill="#3cacae" fill-opacity="1"><g transform="translate(73.220535, 8.653516)"><g><path d="M 1.265625 -4.0625 L 1.265625 0 L 0.65625 0 L 0.65625 -4.0625 Z M 0.96875 -5.578125 C 1.0625 -5.578125 1.144531 -5.546875 1.21875 -5.484375 C 1.289062 -5.421875 1.328125 -5.320312 1.328125 -5.1875 C 1.328125 -5.039062 1.289062 -4.9375 1.21875 -4.875 C 1.144531 -4.8125 1.0625 -4.78125 0.96875 -4.78125 C 0.851562 -4.78125 0.757812 -4.8125 0.6875 -4.875 C 0.625 -4.9375 0.59375 -5.039062 0.59375 -5.1875 C 0.59375 -5.320312 0.625 -5.421875 0.6875 -5.484375 C 0.757812 -5.546875 0.851562 -5.578125 0.96875 -5.578125 Z M 0.96875 -5.578125 "/></g></g></g><g fill="#3cacae" fill-opacity="1"><g transform="translate(76.507088, 8.653516)"><g><path d="M 2.28125 0.078125 C 1.914062 0.078125 1.59375 0.00390625 1.3125 -0.140625 C 1.03125 -0.296875 0.8125 -0.53125 0.65625 -0.84375 C 0.5 -1.15625 0.421875 -1.546875 0.421875 -2.015625 C 0.421875 -2.503906 0.503906 -2.90625 0.671875 -3.21875 C 0.835938 -3.53125 1.0625 -3.757812 1.34375 -3.90625 C 1.632812 -4.0625 1.96875 -4.140625 2.34375 -4.140625 C 2.539062 -4.140625 2.734375 -4.117188 2.921875 -4.078125 C 3.109375 -4.035156 3.265625 -3.984375 3.390625 -3.921875 L 3.203125 -3.40625 C 3.078125 -3.457031 2.929688 -3.5 2.765625 -3.53125 C 2.609375 -3.570312 2.460938 -3.59375 2.328125 -3.59375 C 2.046875 -3.59375 1.8125 -3.53125 1.625 -3.40625 C 1.4375 -3.289062 1.296875 -3.113281 1.203125 -2.875 C 1.109375 -2.644531 1.0625 -2.359375 1.0625 -2.015625 C 1.0625 -1.691406 1.101562 -1.410156 1.1875 -1.171875 C 1.28125 -0.941406 1.414062 -0.765625 1.59375 -0.640625 C 1.78125 -0.515625 2.003906 -0.453125 2.265625 -0.453125 C 2.484375 -0.453125 2.675781 -0.472656 2.84375 -0.515625 C 3.019531 -0.566406 3.179688 -0.625 3.328125 -0.6875 L 3.328125 -0.140625 C 3.191406 -0.0664062 3.039062 -0.015625 2.875 0.015625 C 2.707031 0.0546875 2.507812 0.078125 2.28125 0.078125 Z M 2.28125 0.078125 "/></g></g></g><g fill="#3cacae" fill-opacity="1"><g transform="translate(81.515519, 8.653516)"><g><path d="M 2.171875 -4.125 C 2.648438 -4.125 3.003906 -4.015625 3.234375 -3.796875 C 3.472656 -3.585938 3.59375 -3.242188 3.59375 -2.765625 L 3.59375 0 L 3.15625 0 L 3.03125 -0.59375 L 3 -0.59375 C 2.882812 -0.445312 2.765625 -0.320312 2.640625 -0.21875 C 2.523438 -0.125 2.382812 -0.0507812 2.21875 0 C 2.050781 0.0507812 1.851562 0.078125 1.625 0.078125 C 1.375 0.078125 1.148438 0.0351562 0.953125 -0.046875 C 0.765625 -0.140625 0.613281 -0.273438 0.5 -0.453125 C 0.394531 -0.628906 0.34375 -0.847656 0.34375 -1.109375 C 0.34375 -1.515625 0.503906 -1.828125 0.828125 -2.046875 C 1.148438 -2.265625 1.640625 -2.382812 2.296875 -2.40625 L 3 -2.4375 L 3 -2.6875 C 3 -3.039062 2.921875 -3.285156 2.765625 -3.421875 C 2.617188 -3.566406 2.410156 -3.640625 2.140625 -3.640625 C 1.921875 -3.640625 1.710938 -3.609375 1.515625 -3.546875 C 1.328125 -3.484375 1.148438 -3.410156 0.984375 -3.328125 L 0.796875 -3.796875 C 0.972656 -3.890625 1.179688 -3.96875 1.421875 -4.03125 C 1.660156 -4.09375 1.910156 -4.125 2.171875 -4.125 Z M 3 -2 L 2.375 -1.96875 C 1.863281 -1.957031 1.503906 -1.878906 1.296875 -1.734375 C 1.085938 -1.585938 0.984375 -1.378906 0.984375 -1.109375 C 0.984375 -0.878906 1.050781 -0.707031 1.1875 -0.59375 C 1.332031 -0.476562 1.523438 -0.421875 1.765625 -0.421875 C 2.117188 -0.421875 2.410156 -0.519531 2.640625 -0.71875 C 2.878906 -0.925781 3 -1.226562 3 -1.625 Z M 3 -2 "/></g></g></g><g fill="#3cacae" fill-opacity="1"><g transform="translate(87.106567, 8.653516)"><g><path d="M 1.265625 0 L 0.65625 0 L 0.65625 -5.765625 L 1.265625 -5.765625 Z M 1.265625 0 "/></g></g></g><g fill="#3cacae" fill-opacity="1"><g transform="translate(90.39312, 8.653516)"><g/></g></g><g fill="#3cacae" fill-opacity="1"><g transform="translate(93.735337, 8.653516)"><g><path d="M 2.3125 -5.5 C 2.570312 -5.5 2.800781 -5.453125 3 -5.359375 C 3.195312 -5.273438 3.347656 -5.144531 3.453125 -4.96875 C 3.554688 -4.789062 3.609375 -4.582031 3.609375 -4.34375 C 3.609375 -4.019531 3.503906 -3.742188 3.296875 -3.515625 C 3.085938 -3.296875 2.820312 -3.097656 2.5 -2.921875 L 4 -1.453125 C 4.132812 -1.609375 4.242188 -1.789062 4.328125 -2 C 4.421875 -2.21875 4.5 -2.445312 4.5625 -2.6875 L 5.1875 -2.6875 C 5.101562 -2.363281 5 -2.0625 4.875 -1.78125 C 4.75 -1.507812 4.59375 -1.269531 4.40625 -1.0625 L 5.484375 0 L 4.65625 0 L 3.984375 -0.65625 C 3.828125 -0.507812 3.65625 -0.378906 3.46875 -0.265625 C 3.289062 -0.160156 3.09375 -0.078125 2.875 -0.015625 C 2.65625 0.046875 2.398438 0.078125 2.109375 0.078125 C 1.765625 0.078125 1.460938 0.0195312 1.203125 -0.09375 C 0.953125 -0.207031 0.753906 -0.375 0.609375 -0.59375 C 0.472656 -0.8125 0.40625 -1.082031 0.40625 -1.40625 C 0.40625 -1.664062 0.453125 -1.890625 0.546875 -2.078125 C 0.648438 -2.265625 0.789062 -2.429688 0.96875 -2.578125 C 1.144531 -2.722656 1.359375 -2.863281 1.609375 -3 C 1.492188 -3.132812 1.382812 -3.265625 1.28125 -3.390625 C 1.175781 -3.523438 1.085938 -3.664062 1.015625 -3.8125 C 0.953125 -3.96875 0.921875 -4.140625 0.921875 -4.328125 C 0.921875 -4.578125 0.976562 -4.785156 1.09375 -4.953125 C 1.207031 -5.128906 1.367188 -5.265625 1.578125 -5.359375 C 1.785156 -5.453125 2.03125 -5.5 2.3125 -5.5 Z M 1.96875 -2.625 C 1.78125 -2.507812 1.617188 -2.394531 1.484375 -2.28125 C 1.347656 -2.175781 1.242188 -2.054688 1.171875 -1.921875 C 1.097656 -1.785156 1.0625 -1.617188 1.0625 -1.421875 C 1.0625 -1.140625 1.15625 -0.910156 1.34375 -0.734375 C 1.539062 -0.554688 1.800781 -0.46875 2.125 -0.46875 C 2.46875 -0.46875 2.753906 -0.519531 2.984375 -0.625 C 3.222656 -0.738281 3.425781 -0.878906 3.59375 -1.046875 Z M 2.28125 -5 C 2.0625 -5 1.878906 -4.9375 1.734375 -4.8125 C 1.597656 -4.695312 1.53125 -4.535156 1.53125 -4.328125 C 1.53125 -4.140625 1.578125 -3.96875 1.671875 -3.8125 C 1.773438 -3.65625 1.925781 -3.476562 2.125 -3.28125 C 2.425781 -3.457031 2.644531 -3.625 2.78125 -3.78125 C 2.925781 -3.9375 3 -4.125 3 -4.34375 C 3 -4.539062 2.929688 -4.695312 2.796875 -4.8125 C 2.671875 -4.9375 2.5 -5 2.28125 -5 Z M 2.28125 -5 "/></g></g></g><g fill="#3cacae" fill-opacity="1"><g transform="translate(100.64006, 8.653516)"><g/></g></g><g fill="#3cacae" fill-opacity="1"><g transform="translate(103.982277, 8.653516)"><g><path d="M 3.796875 -1.4375 C 3.796875 -1.113281 3.71875 -0.835938 3.5625 -0.609375 C 3.40625 -0.390625 3.179688 -0.21875 2.890625 -0.09375 C 2.609375 0.0195312 2.269531 0.078125 1.875 0.078125 C 1.675781 0.078125 1.484375 0.0664062 1.296875 0.046875 C 1.109375 0.0234375 0.9375 0 0.78125 -0.03125 C 0.632812 -0.0703125 0.503906 -0.117188 0.390625 -0.171875 L 0.390625 -0.78125 C 0.578125 -0.707031 0.800781 -0.632812 1.0625 -0.5625 C 1.332031 -0.5 1.613281 -0.46875 1.90625 -0.46875 C 2.175781 -0.46875 2.40625 -0.503906 2.59375 -0.578125 C 2.78125 -0.648438 2.921875 -0.753906 3.015625 -0.890625 C 3.117188 -1.023438 3.171875 -1.191406 3.171875 -1.390625 C 3.171875 -1.578125 3.128906 -1.734375 3.046875 -1.859375 C 2.960938 -1.984375 2.828125 -2.09375 2.640625 -2.1875 C 2.453125 -2.289062 2.195312 -2.40625 1.875 -2.53125 C 1.644531 -2.601562 1.441406 -2.6875 1.265625 -2.78125 C 1.085938 -2.882812 0.9375 -3 0.8125 -3.125 C 0.695312 -3.25 0.609375 -3.390625 0.546875 -3.546875 C 0.484375 -3.710938 0.453125 -3.898438 0.453125 -4.109375 C 0.453125 -4.398438 0.523438 -4.648438 0.671875 -4.859375 C 0.828125 -5.066406 1.035156 -5.222656 1.296875 -5.328125 C 1.554688 -5.441406 1.851562 -5.5 2.1875 -5.5 C 2.476562 -5.5 2.742188 -5.46875 2.984375 -5.40625 C 3.234375 -5.351562 3.460938 -5.285156 3.671875 -5.203125 L 3.46875 -4.65625 C 3.28125 -4.738281 3.078125 -4.804688 2.859375 -4.859375 C 2.640625 -4.910156 2.410156 -4.9375 2.171875 -4.9375 C 1.941406 -4.9375 1.742188 -4.898438 1.578125 -4.828125 C 1.421875 -4.765625 1.300781 -4.671875 1.21875 -4.546875 C 1.132812 -4.429688 1.09375 -4.285156 1.09375 -4.109375 C 1.09375 -3.921875 1.132812 -3.765625 1.21875 -3.640625 C 1.300781 -3.515625 1.429688 -3.398438 1.609375 -3.296875 C 1.785156 -3.203125 2.019531 -3.101562 2.3125 -3 C 2.625 -2.882812 2.890625 -2.757812 3.109375 -2.625 C 3.335938 -2.5 3.507812 -2.34375 3.625 -2.15625 C 3.738281 -1.96875 3.796875 -1.726562 3.796875 -1.4375 Z M 3.796875 -1.4375 "/></g></g></g><g fill="#3cacae" fill-opacity="1"><g transform="translate(109.517661, 8.653516)"><g><path d="M 4 -4.0625 L 4 0 L 3.5 0 L 3.40625 -0.578125 L 3.375 -0.578125 C 3.289062 -0.429688 3.179688 -0.3125 3.046875 -0.21875 C 2.910156 -0.125 2.757812 -0.0507812 2.59375 0 C 2.425781 0.0507812 2.25 0.078125 2.0625 0.078125 C 1.75 0.078125 1.484375 0.0234375 1.265625 -0.078125 C 1.046875 -0.179688 0.878906 -0.34375 0.765625 -0.5625 C 0.660156 -0.78125 0.609375 -1.0625 0.609375 -1.40625 L 0.609375 -4.0625 L 1.234375 -4.0625 L 1.234375 -1.453125 C 1.234375 -1.109375 1.304688 -0.851562 1.453125 -0.6875 C 1.609375 -0.519531 1.84375 -0.4375 2.15625 -0.4375 C 2.457031 -0.4375 2.695312 -0.492188 2.875 -0.609375 C 3.050781 -0.722656 3.179688 -0.890625 3.265625 -1.109375 C 3.347656 -1.328125 3.390625 -1.597656 3.390625 -1.921875 L 3.390625 -4.0625 Z M 4 -4.0625 "/></g></g></g><g fill="#3cacae" fill-opacity="1"><g transform="translate(115.546601, 8.653516)"><g><path d="M 2.5 -4.140625 C 2.582031 -4.140625 2.664062 -4.132812 2.75 -4.125 C 2.84375 -4.113281 2.921875 -4.101562 2.984375 -4.09375 L 2.90625 -3.515625 C 2.84375 -3.535156 2.769531 -3.550781 2.6875 -3.5625 C 2.601562 -3.570312 2.523438 -3.578125 2.453125 -3.578125 C 2.296875 -3.578125 2.144531 -3.539062 2 -3.46875 C 1.851562 -3.40625 1.722656 -3.3125 1.609375 -3.1875 C 1.503906 -3.070312 1.421875 -2.925781 1.359375 -2.75 C 1.296875 -2.582031 1.265625 -2.394531 1.265625 -2.1875 L 1.265625 0 L 0.65625 0 L 0.65625 -4.0625 L 1.15625 -4.0625 L 1.234375 -3.3125 L 1.25 -3.3125 C 1.332031 -3.46875 1.429688 -3.609375 1.546875 -3.734375 C 1.671875 -3.859375 1.8125 -3.957031 1.96875 -4.03125 C 2.125 -4.101562 2.300781 -4.140625 2.5 -4.140625 Z M 2.5 -4.140625 "/></g></g></g><g fill="#3cacae" fill-opacity="1"><g transform="translate(120.020656, 8.653516)"><g><path d="M 1.78125 1.828125 C 1.25 1.828125 0.835938 1.726562 0.546875 1.53125 C 0.253906 1.332031 0.109375 1.050781 0.109375 0.6875 C 0.109375 0.4375 0.1875 0.21875 0.34375 0.03125 C 0.507812 -0.144531 0.738281 -0.265625 1.03125 -0.328125 C 0.925781 -0.367188 0.832031 -0.4375 0.75 -0.53125 C 0.675781 -0.632812 0.640625 -0.753906 0.640625 -0.890625 C 0.640625 -1.035156 0.679688 -1.164062 0.765625 -1.28125 C 0.847656 -1.394531 0.976562 -1.503906 1.15625 -1.609375 C 0.9375 -1.691406 0.757812 -1.832031 0.625 -2.03125 C 0.5 -2.238281 0.4375 -2.484375 0.4375 -2.765625 C 0.4375 -3.054688 0.492188 -3.300781 0.609375 -3.5 C 0.734375 -3.707031 0.910156 -3.863281 1.140625 -3.96875 C 1.367188 -4.082031 1.644531 -4.140625 1.96875 -4.140625 C 2.039062 -4.140625 2.113281 -4.132812 2.1875 -4.125 C 2.257812 -4.125 2.328125 -4.117188 2.390625 -4.109375 C 2.460938 -4.097656 2.523438 -4.085938 2.578125 -4.078125 L 3.96875 -4.078125 L 3.96875 -3.671875 L 3.21875 -3.578125 C 3.289062 -3.484375 3.351562 -3.367188 3.40625 -3.234375 C 3.457031 -3.097656 3.484375 -2.945312 3.484375 -2.78125 C 3.484375 -2.375 3.34375 -2.050781 3.0625 -1.8125 C 2.789062 -1.570312 2.414062 -1.453125 1.9375 -1.453125 C 1.820312 -1.453125 1.707031 -1.460938 1.59375 -1.484375 C 1.46875 -1.421875 1.375 -1.347656 1.3125 -1.265625 C 1.25 -1.179688 1.21875 -1.085938 1.21875 -0.984375 C 1.21875 -0.898438 1.238281 -0.832031 1.28125 -0.78125 C 1.332031 -0.738281 1.40625 -0.707031 1.5 -0.6875 C 1.59375 -0.664062 1.703125 -0.65625 1.828125 -0.65625 L 2.546875 -0.65625 C 2.992188 -0.65625 3.332031 -0.5625 3.5625 -0.375 C 3.800781 -0.195312 3.921875 0.0703125 3.921875 0.4375 C 3.921875 0.882812 3.738281 1.226562 3.375 1.46875 C 3.007812 1.707031 2.476562 1.828125 1.78125 1.828125 Z M 1.796875 1.34375 C 2.140625 1.34375 2.421875 1.304688 2.640625 1.234375 C 2.859375 1.171875 3.019531 1.070312 3.125 0.9375 C 3.238281 0.8125 3.296875 0.664062 3.296875 0.5 C 3.296875 0.332031 3.257812 0.207031 3.1875 0.125 C 3.113281 0.0390625 3.003906 -0.0078125 2.859375 -0.03125 C 2.710938 -0.0625 2.539062 -0.078125 2.34375 -0.078125 L 1.625 -0.078125 C 1.445312 -0.078125 1.289062 -0.0507812 1.15625 0 C 1.019531 0.0507812 0.914062 0.132812 0.84375 0.25 C 0.769531 0.363281 0.734375 0.503906 0.734375 0.671875 C 0.734375 0.890625 0.820312 1.054688 1 1.171875 C 1.1875 1.285156 1.453125 1.34375 1.796875 1.34375 Z M 1.96875 -1.90625 C 2.257812 -1.90625 2.476562 -1.976562 2.625 -2.125 C 2.769531 -2.269531 2.84375 -2.488281 2.84375 -2.78125 C 2.84375 -3.082031 2.765625 -3.304688 2.609375 -3.453125 C 2.460938 -3.609375 2.242188 -3.6875 1.953125 -3.6875 C 1.671875 -3.6875 1.453125 -3.609375 1.296875 -3.453125 C 1.148438 -3.296875 1.078125 -3.066406 1.078125 -2.765625 C 1.078125 -2.484375 1.148438 -2.269531 1.296875 -2.125 C 1.453125 -1.976562 1.675781 -1.90625 1.96875 -1.90625 Z M 1.96875 -1.90625 "/></g></g></g><g fill="#3cacae" fill-opacity="1"><g transform="translate(125.51522, 8.653516)"><g><path d="M 1.265625 -4.0625 L 1.265625 0 L 0.65625 0 L 0.65625 -4.0625 Z M 0.96875 -5.578125 C 1.0625 -5.578125 1.144531 -5.546875 1.21875 -5.484375 C 1.289062 -5.421875 1.328125 -5.320312 1.328125 -5.1875 C 1.328125 -5.039062 1.289062 -4.9375 1.21875 -4.875 C 1.144531 -4.8125 1.0625 -4.78125 0.96875 -4.78125 C 0.851562 -4.78125 0.757812 -4.8125 0.6875 -4.875 C 0.625 -4.9375 0.59375 -5.039062 0.59375 -5.1875 C 0.59375 -5.320312 0.625 -5.421875 0.6875 -5.484375 C 0.757812 -5.546875 0.851562 -5.578125 0.96875 -5.578125 Z M 0.96875 -5.578125 "/></g></g></g><g fill="#3cacae" fill-opacity="1"><g transform="translate(128.801773, 8.653516)"><g><path d="M 2.28125 0.078125 C 1.914062 0.078125 1.59375 0.00390625 1.3125 -0.140625 C 1.03125 -0.296875 0.8125 -0.53125 0.65625 -0.84375 C 0.5 -1.15625 0.421875 -1.546875 0.421875 -2.015625 C 0.421875 -2.503906 0.503906 -2.90625 0.671875 -3.21875 C 0.835938 -3.53125 1.0625 -3.757812 1.34375 -3.90625 C 1.632812 -4.0625 1.96875 -4.140625 2.34375 -4.140625 C 2.539062 -4.140625 2.734375 -4.117188 2.921875 -4.078125 C 3.109375 -4.035156 3.265625 -3.984375 3.390625 -3.921875 L 3.203125 -3.40625 C 3.078125 -3.457031 2.929688 -3.5 2.765625 -3.53125 C 2.609375 -3.570312 2.460938 -3.59375 2.328125 -3.59375 C 2.046875 -3.59375 1.8125 -3.53125 1.625 -3.40625 C 1.4375 -3.289062 1.296875 -3.113281 1.203125 -2.875 C 1.109375 -2.644531 1.0625 -2.359375 1.0625 -2.015625 C 1.0625 -1.691406 1.101562 -1.410156 1.1875 -1.171875 C 1.28125 -0.941406 1.414062 -0.765625 1.59375 -0.640625 C 1.78125 -0.515625 2.003906 -0.453125 2.265625 -0.453125 C 2.484375 -0.453125 2.675781 -0.472656 2.84375 -0.515625 C 3.019531 -0.566406 3.179688 -0.625 3.328125 -0.6875 L 3.328125 -0.140625 C 3.191406 -0.0664062 3.039062 -0.015625 2.875 0.015625 C 2.707031 0.0546875 2.507812 0.078125 2.28125 0.078125 Z M 2.28125 0.078125 "/></g></g></g><g fill="#3cacae" fill-opacity="1"><g transform="translate(133.810203, 8.653516)"><g><path d="M 2.171875 -4.125 C 2.648438 -4.125 3.003906 -4.015625 3.234375 -3.796875 C 3.472656 -3.585938 3.59375 -3.242188 3.59375 -2.765625 L 3.59375 0 L 3.15625 0 L 3.03125 -0.59375 L 3 -0.59375 C 2.882812 -0.445312 2.765625 -0.320312 2.640625 -0.21875 C 2.523438 -0.125 2.382812 -0.0507812 2.21875 0 C 2.050781 0.0507812 1.851562 0.078125 1.625 0.078125 C 1.375 0.078125 1.148438 0.0351562 0.953125 -0.046875 C 0.765625 -0.140625 0.613281 -0.273438 0.5 -0.453125 C 0.394531 -0.628906 0.34375 -0.847656 0.34375 -1.109375 C 0.34375 -1.515625 0.503906 -1.828125 0.828125 -2.046875 C 1.148438 -2.265625 1.640625 -2.382812 2.296875 -2.40625 L 3 -2.4375 L 3 -2.6875 C 3 -3.039062 2.921875 -3.285156 2.765625 -3.421875 C 2.617188 -3.566406 2.410156 -3.640625 2.140625 -3.640625 C 1.921875 -3.640625 1.710938 -3.609375 1.515625 -3.546875 C 1.328125 -3.484375 1.148438 -3.410156 0.984375 -3.328125 L 0.796875 -3.796875 C 0.972656 -3.890625 1.179688 -3.96875 1.421875 -4.03125 C 1.660156 -4.09375 1.910156 -4.125 2.171875 -4.125 Z M 3 -2 L 2.375 -1.96875 C 1.863281 -1.957031 1.503906 -1.878906 1.296875 -1.734375 C 1.085938 -1.585938 0.984375 -1.378906 0.984375 -1.109375 C 0.984375 -0.878906 1.050781 -0.707031 1.1875 -0.59375 C 1.332031 -0.476562 1.523438 -0.421875 1.765625 -0.421875 C 2.117188 -0.421875 2.410156 -0.519531 2.640625 -0.71875 C 2.878906 -0.925781 3 -1.226562 3 -1.625 Z M 3 -2 "/></g></g></g><g fill="#3cacae" fill-opacity="1"><g transform="translate(139.401252, 8.653516)"><g><path d="M 1.265625 0 L 0.65625 0 L 0.65625 -5.765625 L 1.265625 -5.765625 Z M 1.265625 0 "/></g></g></g><g fill="#3cacae" fill-opacity="1"><g transform="translate(142.687805, 8.653516)"><g/></g></g><g fill="#3cacae" fill-opacity="1"><g transform="translate(146.030022, 8.653516)"><g><path d="M 3.765625 0 L 0.734375 0 L 0.734375 -5.421875 L 3.765625 -5.421875 L 3.765625 -4.859375 L 1.375 -4.859375 L 1.375 -3.109375 L 3.625 -3.109375 L 3.625 -2.5625 L 1.375 -2.5625 L 1.375 -0.5625 L 3.765625 -0.5625 Z M 3.765625 0 "/></g></g></g><g fill="#3cacae" fill-opacity="1"><g transform="translate(151.621071, 8.653516)"><g><path d="M 3.375 1.8125 L 3.375 0.078125 C 3.375 -0.0234375 3.375 -0.140625 3.375 -0.265625 C 3.382812 -0.390625 3.394531 -0.492188 3.40625 -0.578125 L 3.359375 -0.578125 C 3.253906 -0.390625 3.09375 -0.234375 2.875 -0.109375 C 2.664062 0.015625 2.394531 0.078125 2.0625 0.078125 C 1.570312 0.078125 1.175781 -0.0976562 0.875 -0.453125 C 0.570312 -0.804688 0.421875 -1.332031 0.421875 -2.03125 C 0.421875 -2.476562 0.488281 -2.859375 0.625 -3.171875 C 0.757812 -3.492188 0.953125 -3.734375 1.203125 -3.890625 C 1.460938 -4.054688 1.765625 -4.140625 2.109375 -4.140625 C 2.429688 -4.140625 2.691406 -4.070312 2.890625 -3.9375 C 3.097656 -3.8125 3.257812 -3.660156 3.375 -3.484375 L 3.40625 -3.484375 L 3.5 -4.0625 L 3.984375 -4.0625 L 3.984375 1.8125 Z M 2.1875 -0.4375 C 2.46875 -0.4375 2.695312 -0.488281 2.875 -0.59375 C 3.050781 -0.707031 3.175781 -0.867188 3.25 -1.078125 C 3.332031 -1.296875 3.375 -1.570312 3.375 -1.90625 L 3.375 -2.03125 C 3.375 -2.550781 3.285156 -2.945312 3.109375 -3.21875 C 2.929688 -3.488281 2.625 -3.625 2.1875 -3.625 C 1.800781 -3.625 1.515625 -3.476562 1.328125 -3.1875 C 1.148438 -2.894531 1.0625 -2.503906 1.0625 -2.015625 C 1.0625 -1.515625 1.148438 -1.125 1.328125 -0.84375 C 1.515625 -0.570312 1.800781 -0.4375 2.1875 -0.4375 Z M 2.1875 -0.4375 "/></g></g></g><g fill="#3cacae" fill-opacity="1"><g transform="translate(157.638878, 8.653516)"><g><path d="M 4 -4.0625 L 4 0 L 3.5 0 L 3.40625 -0.578125 L 3.375 -0.578125 C 3.289062 -0.429688 3.179688 -0.3125 3.046875 -0.21875 C 2.910156 -0.125 2.757812 -0.0507812 2.59375 0 C 2.425781 0.0507812 2.25 0.078125 2.0625 0.078125 C 1.75 0.078125 1.484375 0.0234375 1.265625 -0.078125 C 1.046875 -0.179688 0.878906 -0.34375 0.765625 -0.5625 C 0.660156 -0.78125 0.609375 -1.0625 0.609375 -1.40625 L 0.609375 -4.0625 L 1.234375 -4.0625 L 1.234375 -1.453125 C 1.234375 -1.109375 1.304688 -0.851562 1.453125 -0.6875 C 1.609375 -0.519531 1.84375 -0.4375 2.15625 -0.4375 C 2.457031 -0.4375 2.695312 -0.492188 2.875 -0.609375 C 3.050781 -0.722656 3.179688 -0.890625 3.265625 -1.109375 C 3.347656 -1.328125 3.390625 -1.597656 3.390625 -1.921875 L 3.390625 -4.0625 Z M 4 -4.0625 "/></g></g></g><g fill="#3cacae" fill-opacity="1"><g transform="translate(163.667818, 8.653516)"><g><path d="M 1.265625 -4.0625 L 1.265625 0 L 0.65625 0 L 0.65625 -4.0625 Z M 0.96875 -5.578125 C 1.0625 -5.578125 1.144531 -5.546875 1.21875 -5.484375 C 1.289062 -5.421875 1.328125 -5.320312 1.328125 -5.1875 C 1.328125 -5.039062 1.289062 -4.9375 1.21875 -4.875 C 1.144531 -4.8125 1.0625 -4.78125 0.96875 -4.78125 C 0.851562 -4.78125 0.757812 -4.8125 0.6875 -4.875 C 0.625 -4.9375 0.59375 -5.039062 0.59375 -5.1875 C 0.59375 -5.320312 0.625 -5.421875 0.6875 -5.484375 C 0.757812 -5.546875 0.851562 -5.578125 0.96875 -5.578125 Z M 0.96875 -5.578125 "/></g></g></g><g fill="#3cacae" fill-opacity="1"><g transform="translate(166.954361, 8.653516)"><g><path d="M 2.5625 -4.140625 C 3.0625 -4.140625 3.460938 -3.960938 3.765625 -3.609375 C 4.066406 -3.265625 4.21875 -2.742188 4.21875 -2.046875 C 4.21875 -1.578125 4.148438 -1.1875 4.015625 -0.875 C 3.878906 -0.5625 3.6875 -0.320312 3.4375 -0.15625 C 3.1875 0 2.890625 0.078125 2.546875 0.078125 C 2.328125 0.078125 2.132812 0.0507812 1.96875 0 C 1.8125 -0.0625 1.675781 -0.140625 1.5625 -0.234375 C 1.445312 -0.335938 1.347656 -0.445312 1.265625 -0.5625 L 1.21875 -0.5625 C 1.226562 -0.457031 1.238281 -0.335938 1.25 -0.203125 C 1.257812 -0.0664062 1.265625 0.046875 1.265625 0.140625 L 1.265625 1.8125 L 0.65625 1.8125 L 0.65625 -4.0625 L 1.15625 -4.0625 L 1.234375 -3.46875 L 1.265625 -3.46875 C 1.347656 -3.59375 1.445312 -3.703125 1.5625 -3.796875 C 1.675781 -3.898438 1.8125 -3.984375 1.96875 -4.046875 C 2.132812 -4.109375 2.332031 -4.140625 2.5625 -4.140625 Z M 2.453125 -3.625 C 2.171875 -3.625 1.941406 -3.566406 1.765625 -3.453125 C 1.597656 -3.347656 1.472656 -3.1875 1.390625 -2.96875 C 1.316406 -2.75 1.273438 -2.476562 1.265625 -2.15625 L 1.265625 -2.03125 C 1.265625 -1.6875 1.300781 -1.394531 1.375 -1.15625 C 1.457031 -0.925781 1.582031 -0.75 1.75 -0.625 C 1.925781 -0.5 2.160156 -0.4375 2.453125 -0.4375 C 2.710938 -0.4375 2.925781 -0.503906 3.09375 -0.640625 C 3.257812 -0.773438 3.382812 -0.960938 3.46875 -1.203125 C 3.550781 -1.453125 3.59375 -1.734375 3.59375 -2.046875 C 3.59375 -2.523438 3.5 -2.90625 3.3125 -3.1875 C 3.125 -3.476562 2.835938 -3.625 2.453125 -3.625 Z M 2.453125 -3.625 "/></g></g></g><g fill="#3cacae" fill-opacity="1"><g transform="translate(172.972178, 8.653516)"><g><path d="M 5.0625 -4.140625 C 5.507812 -4.140625 5.847656 -4.019531 6.078125 -3.78125 C 6.304688 -3.550781 6.421875 -3.175781 6.421875 -2.65625 L 6.421875 0 L 5.8125 0 L 5.8125 -2.625 C 5.8125 -2.957031 5.738281 -3.207031 5.59375 -3.375 C 5.445312 -3.539062 5.238281 -3.625 4.96875 -3.625 C 4.570312 -3.625 4.285156 -3.507812 4.109375 -3.28125 C 3.929688 -3.050781 3.84375 -2.710938 3.84375 -2.265625 L 3.84375 0 L 3.21875 0 L 3.21875 -2.625 C 3.21875 -2.851562 3.1875 -3.039062 3.125 -3.1875 C 3.0625 -3.332031 2.96875 -3.441406 2.84375 -3.515625 C 2.71875 -3.585938 2.5625 -3.625 2.375 -3.625 C 2.101562 -3.625 1.882812 -3.566406 1.71875 -3.453125 C 1.5625 -3.335938 1.445312 -3.171875 1.375 -2.953125 C 1.300781 -2.734375 1.265625 -2.46875 1.265625 -2.15625 L 1.265625 0 L 0.65625 0 L 0.65625 -4.0625 L 1.140625 -4.0625 L 1.234375 -3.484375 L 1.265625 -3.484375 C 1.347656 -3.628906 1.453125 -3.75 1.578125 -3.84375 C 1.703125 -3.9375 1.835938 -4.007812 1.984375 -4.0625 C 2.140625 -4.113281 2.304688 -4.140625 2.484375 -4.140625 C 2.796875 -4.140625 3.054688 -4.082031 3.265625 -3.96875 C 3.472656 -3.851562 3.625 -3.675781 3.71875 -3.4375 L 3.75 -3.4375 C 3.882812 -3.675781 4.066406 -3.851562 4.296875 -3.96875 C 4.523438 -4.082031 4.78125 -4.140625 5.0625 -4.140625 Z M 5.0625 -4.140625 "/></g></g></g><g fill="#3cacae" fill-opacity="1"><g transform="translate(181.376132, 8.653516)"><g><path d="M 2.21875 -4.140625 C 2.5625 -4.140625 2.851562 -4.0625 3.09375 -3.90625 C 3.34375 -3.75 3.535156 -3.53125 3.671875 -3.25 C 3.804688 -2.976562 3.875 -2.660156 3.875 -2.296875 L 3.875 -1.921875 L 1.0625 -1.921875 C 1.070312 -1.441406 1.191406 -1.078125 1.421875 -0.828125 C 1.648438 -0.578125 1.972656 -0.453125 2.390625 -0.453125 C 2.648438 -0.453125 2.875 -0.472656 3.0625 -0.515625 C 3.257812 -0.566406 3.46875 -0.640625 3.6875 -0.734375 L 3.6875 -0.1875 C 3.476562 -0.09375 3.273438 -0.0234375 3.078125 0.015625 C 2.878906 0.0546875 2.640625 0.078125 2.359375 0.078125 C 1.972656 0.078125 1.632812 0 1.34375 -0.15625 C 1.050781 -0.320312 0.820312 -0.554688 0.65625 -0.859375 C 0.5 -1.171875 0.421875 -1.550781 0.421875 -2 C 0.421875 -2.4375 0.492188 -2.816406 0.640625 -3.140625 C 0.785156 -3.460938 0.992188 -3.707031 1.265625 -3.875 C 1.535156 -4.050781 1.851562 -4.140625 2.21875 -4.140625 Z M 2.203125 -3.640625 C 1.878906 -3.640625 1.617188 -3.53125 1.421875 -3.3125 C 1.222656 -3.09375 1.109375 -2.789062 1.078125 -2.40625 L 3.21875 -2.40625 C 3.21875 -2.65625 3.179688 -2.867188 3.109375 -3.046875 C 3.035156 -3.234375 2.925781 -3.378906 2.78125 -3.484375 C 2.632812 -3.585938 2.441406 -3.640625 2.203125 -3.640625 Z M 2.203125 -3.640625 "/></g></g></g><g fill="#3cacae" fill-opacity="1"><g transform="translate(187.011702, 8.653516)"><g><path d="M 2.578125 -4.140625 C 3.054688 -4.140625 3.414062 -4.019531 3.65625 -3.78125 C 3.90625 -3.550781 4.03125 -3.171875 4.03125 -2.640625 L 4.03125 0 L 3.4375 0 L 3.4375 -2.609375 C 3.4375 -2.941406 3.359375 -3.191406 3.203125 -3.359375 C 3.046875 -3.535156 2.804688 -3.625 2.484375 -3.625 C 2.035156 -3.625 1.71875 -3.492188 1.53125 -3.234375 C 1.351562 -2.984375 1.265625 -2.613281 1.265625 -2.125 L 1.265625 0 L 0.65625 0 L 0.65625 -4.0625 L 1.140625 -4.0625 L 1.234375 -3.484375 L 1.265625 -3.484375 C 1.359375 -3.617188 1.46875 -3.734375 1.59375 -3.828125 C 1.726562 -3.929688 1.878906 -4.007812 2.046875 -4.0625 C 2.210938 -4.113281 2.390625 -4.140625 2.578125 -4.140625 Z M 2.578125 -4.140625 "/></g></g></g><g fill="#3cacae" fill-opacity="1"><g transform="translate(193.040632, 8.653516)"><g><path d="M 1.96875 -0.4375 C 2.0625 -0.4375 2.160156 -0.441406 2.265625 -0.453125 C 2.378906 -0.472656 2.46875 -0.492188 2.53125 -0.515625 L 2.53125 -0.046875 C 2.457031 -0.015625 2.359375 0.0078125 2.234375 0.03125 C 2.109375 0.0625 1.984375 0.078125 1.859375 0.078125 C 1.640625 0.078125 1.441406 0.0390625 1.265625 -0.03125 C 1.097656 -0.113281 0.960938 -0.242188 0.859375 -0.421875 C 0.753906 -0.597656 0.703125 -0.847656 0.703125 -1.171875 L 0.703125 -3.578125 L 0.125 -3.578125 L 0.125 -3.875 L 0.703125 -4.125 L 0.953125 -5 L 1.3125 -5 L 1.3125 -4.0625 L 2.5 -4.0625 L 2.5 -3.578125 L 1.3125 -3.578125 L 1.3125 -1.1875 C 1.3125 -0.9375 1.367188 -0.75 1.484375 -0.625 C 1.609375 -0.5 1.769531 -0.4375 1.96875 -0.4375 Z M 1.96875 -0.4375 "/></g></g></g></g></g></svg>