<svg xmlns="http://www.w3.org/2000/svg" xmlns:xlink="http://www.w3.org/1999/xlink" width="500" zoomAndPan="magnify" viewBox="0 0 375 374.999991" height="500" preserveAspectRatio="xMidYMid meet" version="1.0"><defs><g/><clipPath id="1a457f122b"><path d="M 172 174 L 184 174 L 184 191.316406 L 172 191.316406 Z M 172 174 " clip-rule="nonzero"/></clipPath><clipPath id="9173350204"><path d="M 143.246094 113.316406 L 209 113.316406 L 209 183 L 143.246094 183 Z M 143.246094 113.316406 " clip-rule="nonzero"/></clipPath><clipPath id="e372869e24"><rect x="0" width="192" y="0" height="12"/></clipPath></defs><g clip-path="url(#1a457f122b)"><path fill="#3cacae" d="M 172.632812 191.316406 L 172.632812 182.390625 C 177.039062 180.890625 180.921875 178.273438 183.957031 174.878906 L 183.957031 191.316406 L 172.632812 191.316406 " fill-opacity="1" fill-rule="nonzero"/></g><path fill="#3cacae" d="M 190.96875 163.246094 L 190.039062 163.246094 C 188.996094 167.640625 186.871094 171.621094 183.957031 174.878906 L 191.582031 174.878906 C 189.945312 173.34375 188.925781 171.164062 188.925781 168.742188 C 188.925781 166.640625 189.695312 164.71875 190.96875 163.246094 " fill-opacity="1" fill-rule="nonzero"/><g clip-path="url(#9173350204)"><path fill="#0a2e4f" d="M 197.34375 162.484375 C 200.796875 162.484375 203.601562 165.289062 203.601562 168.742188 C 203.601562 172.195312 200.796875 175.003906 197.34375 175.003906 C 193.890625 175.003906 191.082031 172.195312 191.082031 168.742188 C 191.082031 165.289062 193.890625 162.484375 197.34375 162.484375 Z M 181.355469 114.707031 C 178.535156 115.960938 176.574219 118.046875 175.6875 120.742188 C 174.679688 123.8125 174.992188 127.214844 176.566406 130.324219 C 177.351562 131.886719 178.359375 133.320312 179.40625 134.777344 C 180.425781 136.195312 181.523438 137.644531 182.664062 139.085938 C 182.707031 139.136719 182.757812 139.179688 182.8125 139.214844 C 185.71875 143.5625 187.257812 148.632812 187.257812 153.886719 C 187.257812 156.980469 186.726562 160.011719 185.679688 162.894531 L 184.304688 162.894531 L 184.304688 146.457031 L 172.289062 146.457031 L 172.289062 162.894531 L 154.984375 162.894531 L 154.984375 175.226562 L 172.289062 175.226562 L 172.289062 177.707031 C 168.699219 179.4375 164.84375 180.316406 160.828125 180.316406 C 154.582031 180.316406 148.523438 178.097656 143.761719 174.066406 L 143.273438 174.554688 C 143.511719 174.839844 143.769531 175.128906 144.03125 175.417969 L 144.050781 175.4375 C 149.070312 180.050781 155.585938 182.589844 162.40625 182.589844 C 165.996094 182.589844 169.480469 181.898438 172.769531 180.539062 C 176.4375 179.023438 179.792969 176.660156 182.476562 173.710938 C 185.175781 170.746094 187.210938 167.160156 188.367188 163.34375 C 189.140625 160.800781 189.53125 158.152344 189.53125 155.464844 C 189.53125 148.933594 187.175781 142.625 182.898438 137.695312 C 181.785156 136.265625 180.730469 134.851562 179.765625 133.488281 C 178.640625 131.898438 177.757812 130.53125 177.105469 129.03125 C 175.640625 125.667969 175.863281 121.703125 177.667969 118.925781 C 178.972656 116.914062 181.515625 115.382812 184.464844 114.820312 C 187.167969 114.308594 190.371094 114.546875 193.261719 115.480469 C 199.765625 117.578125 203.4375 124.242188 205.042969 128.023438 C 207.488281 133.777344 208.421875 140.414062 207.746094 147.210938 C 207.296875 151.695312 205.804688 157.929688 201.257812 162.304688 C 200.117188 161.609375 198.777344 161.207031 197.34375 161.207031 C 193.1875 161.207031 189.808594 164.589844 189.808594 168.742188 C 189.808594 172.898438 193.1875 176.277344 197.34375 176.277344 C 201.5 176.277344 204.878906 172.898438 204.878906 168.742188 C 204.878906 166.398438 203.804688 164.304688 202.121094 162.921875 C 202.578125 162.476562 203.003906 162.015625 203.394531 161.554688 C 206.773438 157.515625 208.695312 151.726562 208.953125 144.816406 C 209.226562 137.441406 207.730469 130.503906 204.632812 124.757812 C 203.023438 121.777344 201.070312 119.3125 198.832031 117.425781 C 196.492188 115.453125 193.652344 114.222656 190.394531 113.769531 C 186.898438 113.28125 183.859375 113.597656 181.355469 114.707031 " fill-opacity="1" fill-rule="nonzero"/></g><path fill="#3cacae" d="M 197.34375 163.941406 C 194.691406 163.941406 192.542969 166.09375 192.542969 168.742188 C 192.542969 171.394531 194.691406 173.542969 197.34375 173.542969 C 199.996094 173.542969 202.144531 171.394531 202.144531 168.742188 C 202.144531 166.09375 199.996094 163.941406 197.34375 163.941406 " fill-opacity="1" fill-rule="nonzero"/><g fill="#0a2e4f" fill-opacity="1"><g transform="translate(75.736888, 208.422526)"><g><path d="M 5.171875 0.203125 C 4.253906 0.203125 3.367188 0.078125 2.515625 -0.171875 C 1.660156 -0.421875 0.976562 -0.742188 0.46875 -1.140625 L 1.375 -3.15625 C 1.863281 -2.789062 2.445312 -2.5 3.125 -2.28125 C 3.8125 -2.0625 4.5 -1.953125 5.1875 -1.953125 C 5.9375 -1.953125 6.492188 -2.0625 6.859375 -2.28125 C 7.222656 -2.507812 7.40625 -2.8125 7.40625 -3.1875 C 7.40625 -3.457031 7.296875 -3.679688 7.078125 -3.859375 C 6.867188 -4.046875 6.597656 -4.191406 6.265625 -4.296875 C 5.929688 -4.410156 5.476562 -4.535156 4.90625 -4.671875 C 4.019531 -4.878906 3.296875 -5.085938 2.734375 -5.296875 C 2.171875 -5.503906 1.6875 -5.835938 1.28125 -6.296875 C 0.882812 -6.765625 0.6875 -7.382812 0.6875 -8.15625 C 0.6875 -8.820312 0.867188 -9.425781 1.234375 -9.96875 C 1.597656 -10.519531 2.144531 -10.953125 2.875 -11.265625 C 3.601562 -11.585938 4.5 -11.75 5.5625 -11.75 C 6.300781 -11.75 7.019531 -11.660156 7.71875 -11.484375 C 8.425781 -11.304688 9.039062 -11.050781 9.5625 -10.71875 L 8.75 -8.703125 C 7.675781 -9.304688 6.609375 -9.609375 5.546875 -9.609375 C 4.796875 -9.609375 4.238281 -9.484375 3.875 -9.234375 C 3.519531 -8.992188 3.34375 -8.675781 3.34375 -8.28125 C 3.34375 -7.882812 3.550781 -7.585938 3.96875 -7.390625 C 4.382812 -7.203125 5.015625 -7.015625 5.859375 -6.828125 C 6.734375 -6.617188 7.453125 -6.410156 8.015625 -6.203125 C 8.578125 -5.992188 9.054688 -5.660156 9.453125 -5.203125 C 9.859375 -4.753906 10.0625 -4.144531 10.0625 -3.375 C 10.0625 -2.71875 9.875 -2.117188 9.5 -1.578125 C 9.132812 -1.035156 8.582031 -0.601562 7.84375 -0.28125 C 7.113281 0.0390625 6.222656 0.203125 5.171875 0.203125 Z M 5.171875 0.203125 "/></g></g></g><g fill="#0a2e4f" fill-opacity="1"><g transform="translate(86.263918, 208.422526)"><g><path d="M 8.96875 -2.46875 L 3.609375 -2.46875 L 2.59375 0 L -0.15625 0 L 5 -11.546875 L 7.640625 -11.546875 L 12.796875 0 L 10 0 Z M 8.140625 -4.5 L 6.296875 -8.921875 L 4.46875 -4.5 Z M 8.140625 -4.5 "/></g></g></g><g fill="#0a2e4f" fill-opacity="1"><g transform="translate(98.902956, 208.422526)"><g><path d="M 8.734375 0 L 6.5 -3.21875 L 4.046875 -3.21875 L 4.046875 0 L 1.375 0 L 1.375 -11.546875 L 6.375 -11.546875 C 7.394531 -11.546875 8.28125 -11.375 9.03125 -11.03125 C 9.78125 -10.695312 10.359375 -10.210938 10.765625 -9.578125 C 11.179688 -8.953125 11.390625 -8.210938 11.390625 -7.359375 C 11.390625 -6.503906 11.179688 -5.765625 10.765625 -5.140625 C 10.347656 -4.515625 9.765625 -4.039062 9.015625 -3.71875 L 11.59375 0 Z M 8.671875 -7.359375 C 8.671875 -8.003906 8.460938 -8.5 8.046875 -8.84375 C 7.628906 -9.195312 7.019531 -9.375 6.21875 -9.375 L 4.046875 -9.375 L 4.046875 -5.34375 L 6.21875 -5.34375 C 7.019531 -5.34375 7.628906 -5.519531 8.046875 -5.875 C 8.460938 -6.226562 8.671875 -6.722656 8.671875 -7.359375 Z M 8.671875 -7.359375 "/></g></g></g><g fill="#0a2e4f" fill-opacity="1"><g transform="translate(111.030499, 208.422526)"><g><path d="M 12.46875 -11.546875 L 7.46875 0 L 4.828125 0 L -0.15625 -11.546875 L 2.734375 -11.546875 L 6.25 -3.296875 L 9.8125 -11.546875 Z M 12.46875 -11.546875 "/></g></g></g><g fill="#0a2e4f" fill-opacity="1"><g transform="translate(123.339535, 208.422526)"><g><path d="M 8.96875 -2.46875 L 3.609375 -2.46875 L 2.59375 0 L -0.15625 0 L 5 -11.546875 L 7.640625 -11.546875 L 12.796875 0 L 10 0 Z M 8.140625 -4.5 L 6.296875 -8.921875 L 4.46875 -4.5 Z M 8.140625 -4.5 "/></g></g></g><g fill="#0a2e4f" fill-opacity="1"><g transform="translate(135.978572, 208.422526)"><g><path d="M 9.171875 -5.953125 L 11.609375 -5.953125 L 11.609375 -1.265625 C 10.984375 -0.796875 10.257812 -0.429688 9.4375 -0.171875 C 8.613281 0.078125 7.785156 0.203125 6.953125 0.203125 C 5.742188 0.203125 4.660156 -0.0507812 3.703125 -0.5625 C 2.753906 -1.082031 2.003906 -1.796875 1.453125 -2.703125 C 0.910156 -3.609375 0.640625 -4.632812 0.640625 -5.78125 C 0.640625 -6.914062 0.910156 -7.9375 1.453125 -8.84375 C 2.003906 -9.757812 2.765625 -10.472656 3.734375 -10.984375 C 4.703125 -11.492188 5.789062 -11.75 7 -11.75 C 8.007812 -11.75 8.925781 -11.578125 9.75 -11.234375 C 10.570312 -10.890625 11.265625 -10.394531 11.828125 -9.75 L 10.109375 -8.171875 C 9.285156 -9.035156 8.289062 -9.46875 7.125 -9.46875 C 6.382812 -9.46875 5.726562 -9.3125 5.15625 -9 C 4.59375 -8.695312 4.148438 -8.265625 3.828125 -7.703125 C 3.503906 -7.140625 3.34375 -6.5 3.34375 -5.78125 C 3.34375 -5.0625 3.503906 -4.421875 3.828125 -3.859375 C 4.148438 -3.296875 4.59375 -2.859375 5.15625 -2.546875 C 5.71875 -2.234375 6.363281 -2.078125 7.09375 -2.078125 C 7.863281 -2.078125 8.554688 -2.242188 9.171875 -2.578125 Z M 9.171875 -5.953125 "/></g></g></g><g fill="#0a2e4f" fill-opacity="1"><g transform="translate(148.70011, 208.422526)"><g><path d="M 6.5 0.203125 C 4.851562 0.203125 3.566406 -0.253906 2.640625 -1.171875 C 1.722656 -2.085938 1.265625 -3.390625 1.265625 -5.078125 L 1.265625 -11.546875 L 3.9375 -11.546875 L 3.9375 -5.1875 C 3.9375 -3.113281 4.796875 -2.078125 6.515625 -2.078125 C 7.347656 -2.078125 7.984375 -2.328125 8.421875 -2.828125 C 8.867188 -3.328125 9.09375 -4.113281 9.09375 -5.1875 L 9.09375 -11.546875 L 11.734375 -11.546875 L 11.734375 -5.078125 C 11.734375 -3.390625 11.269531 -2.085938 10.34375 -1.171875 C 9.425781 -0.253906 8.144531 0.203125 6.5 0.203125 Z M 6.5 0.203125 "/></g></g></g><g fill="#0a2e4f" fill-opacity="1"><g transform="translate(161.702154, 208.422526)"><g><path d="M 11.96875 -11.546875 L 11.96875 0 L 9.765625 0 L 4.015625 -7.015625 L 4.015625 0 L 1.375 0 L 1.375 -11.546875 L 3.578125 -11.546875 L 9.328125 -4.53125 L 9.328125 -11.546875 Z M 11.96875 -11.546875 "/></g></g></g><g fill="#0a2e4f" fill-opacity="1"><g transform="translate(175.0342, 208.422526)"><g/></g></g><g fill="#0a2e4f" fill-opacity="1"><g transform="translate(179.70372, 208.422526)"><g><path d="M 10.3125 -2.140625 L 10.3125 0 L 1.375 0 L 1.375 -11.546875 L 10.09375 -11.546875 L 10.09375 -9.40625 L 4.03125 -9.40625 L 4.03125 -6.890625 L 9.390625 -6.890625 L 9.390625 -4.8125 L 4.03125 -4.8125 L 4.03125 -2.140625 Z M 10.3125 -2.140625 "/></g></g></g><g fill="#0a2e4f" fill-opacity="1"><g transform="translate(190.775261, 208.422526)"><g><path d="M 11.96875 -11.546875 L 11.96875 0 L 9.765625 0 L 4.015625 -7.015625 L 4.015625 0 L 1.375 0 L 1.375 -11.546875 L 3.578125 -11.546875 L 9.328125 -4.53125 L 9.328125 -11.546875 Z M 11.96875 -11.546875 "/></g></g></g><g fill="#0a2e4f" fill-opacity="1"><g transform="translate(204.107306, 208.422526)"><g><path d="M 3.765625 -9.375 L 0.0625 -9.375 L 0.0625 -11.546875 L 10.125 -11.546875 L 10.125 -9.375 L 6.4375 -9.375 L 6.4375 0 L 3.765625 0 Z M 3.765625 -9.375 "/></g></g></g><g fill="#0a2e4f" fill-opacity="1"><g transform="translate(214.304335, 208.422526)"><g><path d="M 10.3125 -2.140625 L 10.3125 0 L 1.375 0 L 1.375 -11.546875 L 10.09375 -11.546875 L 10.09375 -9.40625 L 4.03125 -9.40625 L 4.03125 -6.890625 L 9.390625 -6.890625 L 9.390625 -4.8125 L 4.03125 -4.8125 L 4.03125 -2.140625 Z M 10.3125 -2.140625 "/></g></g></g><g fill="#0a2e4f" fill-opacity="1"><g transform="translate(225.375875, 208.422526)"><g><path d="M 8.734375 0 L 6.5 -3.21875 L 4.046875 -3.21875 L 4.046875 0 L 1.375 0 L 1.375 -11.546875 L 6.375 -11.546875 C 7.394531 -11.546875 8.28125 -11.375 9.03125 -11.03125 C 9.78125 -10.695312 10.359375 -10.210938 10.765625 -9.578125 C 11.179688 -8.953125 11.390625 -8.210938 11.390625 -7.359375 C 11.390625 -6.503906 11.179688 -5.765625 10.765625 -5.140625 C 10.347656 -4.515625 9.765625 -4.039062 9.015625 -3.71875 L 11.59375 0 Z M 8.671875 -7.359375 C 8.671875 -8.003906 8.460938 -8.5 8.046875 -8.84375 C 7.628906 -9.195312 7.019531 -9.375 6.21875 -9.375 L 4.046875 -9.375 L 4.046875 -5.34375 L 6.21875 -5.34375 C 7.019531 -5.34375 7.628906 -5.519531 8.046875 -5.875 C 8.460938 -6.226562 8.671875 -6.722656 8.671875 -7.359375 Z M 8.671875 -7.359375 "/></g></g></g><g fill="#0a2e4f" fill-opacity="1"><g transform="translate(237.503418, 208.422526)"><g><path d="M 6.375 -11.546875 C 7.394531 -11.546875 8.28125 -11.375 9.03125 -11.03125 C 9.78125 -10.695312 10.359375 -10.210938 10.765625 -9.578125 C 11.179688 -8.953125 11.390625 -8.210938 11.390625 -7.359375 C 11.390625 -6.515625 11.179688 -5.773438 10.765625 -5.140625 C 10.359375 -4.503906 9.78125 -4.019531 9.03125 -3.6875 C 8.28125 -3.351562 7.394531 -3.1875 6.375 -3.1875 L 4.046875 -3.1875 L 4.046875 0 L 1.375 0 L 1.375 -11.546875 Z M 6.21875 -5.359375 C 7.019531 -5.359375 7.628906 -5.53125 8.046875 -5.875 C 8.460938 -6.226562 8.671875 -6.722656 8.671875 -7.359375 C 8.671875 -8.003906 8.460938 -8.5 8.046875 -8.84375 C 7.628906 -9.195312 7.019531 -9.375 6.21875 -9.375 L 4.046875 -9.375 L 4.046875 -5.359375 Z M 6.21875 -5.359375 "/></g></g></g><g fill="#0a2e4f" fill-opacity="1"><g transform="translate(249.581455, 208.422526)"><g><path d="M 8.734375 0 L 6.5 -3.21875 L 4.046875 -3.21875 L 4.046875 0 L 1.375 0 L 1.375 -11.546875 L 6.375 -11.546875 C 7.394531 -11.546875 8.28125 -11.375 9.03125 -11.03125 C 9.78125 -10.695312 10.359375 -10.210938 10.765625 -9.578125 C 11.179688 -8.953125 11.390625 -8.210938 11.390625 -7.359375 C 11.390625 -6.503906 11.179688 -5.765625 10.765625 -5.140625 C 10.347656 -4.515625 9.765625 -4.039062 9.015625 -3.71875 L 11.59375 0 Z M 8.671875 -7.359375 C 8.671875 -8.003906 8.460938 -8.5 8.046875 -8.84375 C 7.628906 -9.195312 7.019531 -9.375 6.21875 -9.375 L 4.046875 -9.375 L 4.046875 -5.34375 L 6.21875 -5.34375 C 7.019531 -5.34375 7.628906 -5.519531 8.046875 -5.875 C 8.460938 -6.226562 8.671875 -6.722656 8.671875 -7.359375 Z M 8.671875 -7.359375 "/></g></g></g><g fill="#0a2e4f" fill-opacity="1"><g transform="translate(261.708998, 208.422526)"><g><path d="M 1.375 -11.546875 L 4.046875 -11.546875 L 4.046875 0 L 1.375 0 Z M 1.375 -11.546875 "/></g></g></g><g fill="#0a2e4f" fill-opacity="1"><g transform="translate(267.121012, 208.422526)"><g><path d="M 5.171875 0.203125 C 4.253906 0.203125 3.367188 0.078125 2.515625 -0.171875 C 1.660156 -0.421875 0.976562 -0.742188 0.46875 -1.140625 L 1.375 -3.15625 C 1.863281 -2.789062 2.445312 -2.5 3.125 -2.28125 C 3.8125 -2.0625 4.5 -1.953125 5.1875 -1.953125 C 5.9375 -1.953125 6.492188 -2.0625 6.859375 -2.28125 C 7.222656 -2.507812 7.40625 -2.8125 7.40625 -3.1875 C 7.40625 -3.457031 7.296875 -3.679688 7.078125 -3.859375 C 6.867188 -4.046875 6.597656 -4.191406 6.265625 -4.296875 C 5.929688 -4.410156 5.476562 -4.535156 4.90625 -4.671875 C 4.019531 -4.878906 3.296875 -5.085938 2.734375 -5.296875 C 2.171875 -5.503906 1.6875 -5.835938 1.28125 -6.296875 C 0.882812 -6.765625 0.6875 -7.382812 0.6875 -8.15625 C 0.6875 -8.820312 0.867188 -9.425781 1.234375 -9.96875 C 1.597656 -10.519531 2.144531 -10.953125 2.875 -11.265625 C 3.601562 -11.585938 4.5 -11.75 5.5625 -11.75 C 6.300781 -11.75 7.019531 -11.660156 7.71875 -11.484375 C 8.425781 -11.304688 9.039062 -11.050781 9.5625 -10.71875 L 8.75 -8.703125 C 7.675781 -9.304688 6.609375 -9.609375 5.546875 -9.609375 C 4.796875 -9.609375 4.238281 -9.484375 3.875 -9.234375 C 3.519531 -8.992188 3.34375 -8.675781 3.34375 -8.28125 C 3.34375 -7.882812 3.550781 -7.585938 3.96875 -7.390625 C 4.382812 -7.203125 5.015625 -7.015625 5.859375 -6.828125 C 6.734375 -6.617188 7.453125 -6.410156 8.015625 -6.203125 C 8.578125 -5.992188 9.054688 -5.660156 9.453125 -5.203125 C 9.859375 -4.753906 10.0625 -4.144531 10.0625 -3.375 C 10.0625 -2.71875 9.875 -2.117188 9.5 -1.578125 C 9.132812 -1.035156 8.582031 -0.601562 7.84375 -0.28125 C 7.113281 0.0390625 6.222656 0.203125 5.171875 0.203125 Z M 5.171875 0.203125 "/></g></g></g><g fill="#0a2e4f" fill-opacity="1"><g transform="translate(277.648054, 208.422526)"><g><path d="M 10.3125 -2.140625 L 10.3125 0 L 1.375 0 L 1.375 -11.546875 L 10.09375 -11.546875 L 10.09375 -9.40625 L 4.03125 -9.40625 L 4.03125 -6.890625 L 9.390625 -6.890625 L 9.390625 -4.8125 L 4.03125 -4.8125 L 4.03125 -2.140625 Z M 10.3125 -2.140625 "/></g></g></g><g fill="#0a2e4f" fill-opacity="1"><g transform="translate(288.719571, 208.422526)"><g><path d="M 5.171875 0.203125 C 4.253906 0.203125 3.367188 0.078125 2.515625 -0.171875 C 1.660156 -0.421875 0.976562 -0.742188 0.46875 -1.140625 L 1.375 -3.15625 C 1.863281 -2.789062 2.445312 -2.5 3.125 -2.28125 C 3.8125 -2.0625 4.5 -1.953125 5.1875 -1.953125 C 5.9375 -1.953125 6.492188 -2.0625 6.859375 -2.28125 C 7.222656 -2.507812 7.40625 -2.8125 7.40625 -3.1875 C 7.40625 -3.457031 7.296875 -3.679688 7.078125 -3.859375 C 6.867188 -4.046875 6.597656 -4.191406 6.265625 -4.296875 C 5.929688 -4.410156 5.476562 -4.535156 4.90625 -4.671875 C 4.019531 -4.878906 3.296875 -5.085938 2.734375 -5.296875 C 2.171875 -5.503906 1.6875 -5.835938 1.28125 -6.296875 C 0.882812 -6.765625 0.6875 -7.382812 0.6875 -8.15625 C 0.6875 -8.820312 0.867188 -9.425781 1.234375 -9.96875 C 1.597656 -10.519531 2.144531 -10.953125 2.875 -11.265625 C 3.601562 -11.585938 4.5 -11.75 5.5625 -11.75 C 6.300781 -11.75 7.019531 -11.660156 7.71875 -11.484375 C 8.425781 -11.304688 9.039062 -11.050781 9.5625 -10.71875 L 8.75 -8.703125 C 7.675781 -9.304688 6.609375 -9.609375 5.546875 -9.609375 C 4.796875 -9.609375 4.238281 -9.484375 3.875 -9.234375 C 3.519531 -8.992188 3.34375 -8.675781 3.34375 -8.28125 C 3.34375 -7.882812 3.550781 -7.585938 3.96875 -7.390625 C 4.382812 -7.203125 5.015625 -7.015625 5.859375 -6.828125 C 6.734375 -6.617188 7.453125 -6.410156 8.015625 -6.203125 C 8.578125 -5.992188 9.054688 -5.660156 9.453125 -5.203125 C 9.859375 -4.753906 10.0625 -4.144531 10.0625 -3.375 C 10.0625 -2.71875 9.875 -2.117188 9.5 -1.578125 C 9.132812 -1.035156 8.582031 -0.601562 7.84375 -0.28125 C 7.113281 0.0390625 6.222656 0.203125 5.171875 0.203125 Z M 5.171875 0.203125 "/></g></g></g><g transform="matrix(1, 0, 0, 1, 92, 208)"><g clip-path="url(#e372869e24)"><g fill="#3cacae" fill-opacity="1"><g transform="translate(0.955817, 8.551819)"><g><path d="M 6.71875 -5.28125 L 5.3125 0 L 4.6875 0 L 3.640625 -3.546875 C 3.609375 -3.648438 3.578125 -3.753906 3.546875 -3.859375 C 3.523438 -3.960938 3.5 -4.054688 3.46875 -4.140625 C 3.445312 -4.234375 3.425781 -4.316406 3.40625 -4.390625 C 3.394531 -4.460938 3.382812 -4.515625 3.375 -4.546875 C 3.375 -4.515625 3.363281 -4.460938 3.34375 -4.390625 C 3.332031 -4.328125 3.316406 -4.25 3.296875 -4.15625 C 3.273438 -4.0625 3.25 -3.960938 3.21875 -3.859375 C 3.195312 -3.753906 3.171875 -3.648438 3.140625 -3.546875 L 2.125 0 L 1.515625 0 L 0.109375 -5.28125 L 0.75 -5.28125 L 1.59375 -1.96875 C 1.625 -1.851562 1.648438 -1.742188 1.671875 -1.640625 C 1.703125 -1.535156 1.726562 -1.429688 1.75 -1.328125 C 1.769531 -1.222656 1.785156 -1.125 1.796875 -1.03125 C 1.816406 -0.9375 1.832031 -0.84375 1.84375 -0.75 C 1.851562 -0.84375 1.867188 -0.941406 1.890625 -1.046875 C 1.910156 -1.148438 1.929688 -1.253906 1.953125 -1.359375 C 1.972656 -1.460938 2 -1.566406 2.03125 -1.671875 C 2.0625 -1.785156 2.09375 -1.894531 2.125 -2 L 3.078125 -5.28125 L 3.703125 -5.28125 L 4.6875 -1.984375 C 4.71875 -1.867188 4.75 -1.753906 4.78125 -1.640625 C 4.8125 -1.523438 4.835938 -1.414062 4.859375 -1.3125 C 4.878906 -1.207031 4.898438 -1.109375 4.921875 -1.015625 C 4.941406 -0.921875 4.957031 -0.832031 4.96875 -0.75 C 4.988281 -0.863281 5.007812 -0.984375 5.03125 -1.109375 C 5.050781 -1.242188 5.078125 -1.382812 5.109375 -1.53125 C 5.148438 -1.675781 5.1875 -1.820312 5.21875 -1.96875 L 6.078125 -5.28125 Z M 6.71875 -5.28125 "/></g></g></g><g fill="#3cacae" fill-opacity="1"><g transform="translate(9.107181, 8.551819)"><g><path d="M 1.234375 -5.609375 L 1.234375 -3.9375 C 1.234375 -3.84375 1.226562 -3.742188 1.21875 -3.640625 C 1.21875 -3.546875 1.210938 -3.457031 1.203125 -3.375 L 1.234375 -3.375 C 1.316406 -3.519531 1.421875 -3.640625 1.546875 -3.734375 C 1.671875 -3.828125 1.8125 -3.894531 1.96875 -3.9375 C 2.132812 -3.988281 2.3125 -4.015625 2.5 -4.015625 C 2.8125 -4.015625 3.070312 -3.960938 3.28125 -3.859375 C 3.5 -3.765625 3.660156 -3.609375 3.765625 -3.390625 C 3.878906 -3.179688 3.9375 -2.910156 3.9375 -2.578125 L 3.9375 0 L 3.34375 0 L 3.34375 -2.53125 C 3.34375 -2.863281 3.265625 -3.109375 3.109375 -3.265625 C 2.960938 -3.429688 2.734375 -3.515625 2.421875 -3.515625 C 2.128906 -3.515625 1.894531 -3.457031 1.71875 -3.34375 C 1.539062 -3.238281 1.414062 -3.078125 1.34375 -2.859375 C 1.269531 -2.640625 1.234375 -2.375 1.234375 -2.0625 L 1.234375 0 L 0.625 0 L 0.625 -5.609375 Z M 1.234375 -5.609375 "/></g></g></g><g fill="#3cacae" fill-opacity="1"><g transform="translate(14.967862, 8.551819)"><g><path d="M 4.046875 -1.984375 C 4.046875 -1.660156 4.003906 -1.367188 3.921875 -1.109375 C 3.835938 -0.859375 3.710938 -0.644531 3.546875 -0.46875 C 3.390625 -0.289062 3.195312 -0.15625 2.96875 -0.0625 C 2.75 0.03125 2.5 0.078125 2.21875 0.078125 C 1.945312 0.078125 1.703125 0.03125 1.484375 -0.0625 C 1.265625 -0.15625 1.070312 -0.289062 0.90625 -0.46875 C 0.75 -0.644531 0.625 -0.859375 0.53125 -1.109375 C 0.445312 -1.367188 0.40625 -1.660156 0.40625 -1.984375 C 0.40625 -2.421875 0.476562 -2.789062 0.625 -3.09375 C 0.78125 -3.394531 0.992188 -3.625 1.265625 -3.78125 C 1.535156 -3.945312 1.859375 -4.03125 2.234375 -4.03125 C 2.597656 -4.03125 2.914062 -3.945312 3.1875 -3.78125 C 3.457031 -3.625 3.664062 -3.390625 3.8125 -3.078125 C 3.96875 -2.773438 4.046875 -2.410156 4.046875 -1.984375 Z M 1.03125 -1.984375 C 1.03125 -1.671875 1.070312 -1.394531 1.15625 -1.15625 C 1.238281 -0.925781 1.367188 -0.742188 1.546875 -0.609375 C 1.722656 -0.484375 1.953125 -0.421875 2.234375 -0.421875 C 2.503906 -0.421875 2.726562 -0.484375 2.90625 -0.609375 C 3.082031 -0.742188 3.210938 -0.925781 3.296875 -1.15625 C 3.378906 -1.394531 3.421875 -1.671875 3.421875 -1.984375 C 3.421875 -2.296875 3.378906 -2.566406 3.296875 -2.796875 C 3.210938 -3.023438 3.082031 -3.203125 2.90625 -3.328125 C 2.726562 -3.453125 2.5 -3.515625 2.21875 -3.515625 C 1.8125 -3.515625 1.507812 -3.378906 1.3125 -3.109375 C 1.125 -2.835938 1.03125 -2.460938 1.03125 -1.984375 Z M 1.03125 -1.984375 "/></g></g></g><g fill="#3cacae" fill-opacity="1"><g transform="translate(20.741966, 8.551819)"><g><path d="M 1.234375 0 L 0.625 0 L 0.625 -5.609375 L 1.234375 -5.609375 Z M 1.234375 0 "/></g></g></g><g fill="#3cacae" fill-opacity="1"><g transform="translate(23.936796, 8.551819)"><g><path d="M 2.15625 -4.03125 C 2.488281 -4.03125 2.773438 -3.953125 3.015625 -3.796875 C 3.253906 -3.648438 3.4375 -3.441406 3.5625 -3.171875 C 3.695312 -2.910156 3.765625 -2.597656 3.765625 -2.234375 L 3.765625 -1.859375 L 1.03125 -1.859375 C 1.039062 -1.398438 1.15625 -1.046875 1.375 -0.796875 C 1.601562 -0.554688 1.921875 -0.4375 2.328125 -0.4375 C 2.578125 -0.4375 2.796875 -0.457031 2.984375 -0.5 C 3.179688 -0.550781 3.382812 -0.617188 3.59375 -0.703125 L 3.59375 -0.1875 C 3.382812 -0.09375 3.179688 -0.0234375 2.984375 0.015625 C 2.796875 0.0546875 2.566406 0.078125 2.296875 0.078125 C 1.921875 0.078125 1.585938 0 1.296875 -0.15625 C 1.015625 -0.3125 0.796875 -0.539062 0.640625 -0.84375 C 0.484375 -1.144531 0.40625 -1.515625 0.40625 -1.953125 C 0.40625 -2.378906 0.476562 -2.742188 0.625 -3.046875 C 0.769531 -3.359375 0.972656 -3.597656 1.234375 -3.765625 C 1.492188 -3.941406 1.800781 -4.03125 2.15625 -4.03125 Z M 2.140625 -3.53125 C 1.828125 -3.53125 1.570312 -3.425781 1.375 -3.21875 C 1.1875 -3.007812 1.078125 -2.71875 1.046875 -2.34375 L 3.140625 -2.34375 C 3.128906 -2.582031 3.085938 -2.789062 3.015625 -2.96875 C 2.953125 -3.144531 2.847656 -3.28125 2.703125 -3.375 C 2.554688 -3.476562 2.367188 -3.53125 2.140625 -3.53125 Z M 2.140625 -3.53125 "/></g></g></g><g fill="#3cacae" fill-opacity="1"><g transform="translate(29.415095, 8.551819)"><g><path d="M 3.1875 -1.078125 C 3.1875 -0.828125 3.125 -0.613281 3 -0.4375 C 2.875 -0.269531 2.691406 -0.140625 2.453125 -0.046875 C 2.222656 0.0351562 1.945312 0.078125 1.625 0.078125 C 1.34375 0.078125 1.097656 0.0507812 0.890625 0 C 0.691406 -0.0390625 0.519531 -0.0976562 0.375 -0.171875 L 0.375 -0.734375 C 0.53125 -0.648438 0.71875 -0.578125 0.9375 -0.515625 C 1.164062 -0.453125 1.398438 -0.421875 1.640625 -0.421875 C 1.972656 -0.421875 2.21875 -0.472656 2.375 -0.578125 C 2.53125 -0.691406 2.609375 -0.84375 2.609375 -1.03125 C 2.609375 -1.132812 2.578125 -1.226562 2.515625 -1.3125 C 2.453125 -1.394531 2.347656 -1.472656 2.203125 -1.546875 C 2.054688 -1.628906 1.859375 -1.71875 1.609375 -1.8125 C 1.359375 -1.914062 1.140625 -2.015625 0.953125 -2.109375 C 0.765625 -2.203125 0.617188 -2.316406 0.515625 -2.453125 C 0.421875 -2.585938 0.375 -2.765625 0.375 -2.984375 C 0.375 -3.316406 0.507812 -3.570312 0.78125 -3.75 C 1.050781 -3.9375 1.40625 -4.03125 1.84375 -4.03125 C 2.082031 -4.03125 2.304688 -4.003906 2.515625 -3.953125 C 2.722656 -3.910156 2.921875 -3.847656 3.109375 -3.765625 L 2.90625 -3.28125 C 2.738281 -3.351562 2.5625 -3.410156 2.375 -3.453125 C 2.1875 -3.503906 2 -3.53125 1.8125 -3.53125 C 1.53125 -3.53125 1.316406 -3.484375 1.171875 -3.390625 C 1.023438 -3.304688 0.953125 -3.1875 0.953125 -3.03125 C 0.953125 -2.90625 0.984375 -2.800781 1.046875 -2.71875 C 1.117188 -2.644531 1.226562 -2.570312 1.375 -2.5 C 1.53125 -2.425781 1.734375 -2.34375 1.984375 -2.25 C 2.234375 -2.15625 2.445312 -2.0625 2.625 -1.96875 C 2.800781 -1.875 2.9375 -1.753906 3.03125 -1.609375 C 3.132812 -1.472656 3.1875 -1.296875 3.1875 -1.078125 Z M 3.1875 -1.078125 "/></g></g></g><g fill="#3cacae" fill-opacity="1"><g transform="translate(34.26571, 8.551819)"><g><path d="M 2.109375 -4.015625 C 2.578125 -4.015625 2.925781 -3.910156 3.15625 -3.703125 C 3.382812 -3.492188 3.5 -3.15625 3.5 -2.6875 L 3.5 0 L 3.0625 0 L 2.953125 -0.578125 L 2.921875 -0.578125 C 2.804688 -0.441406 2.6875 -0.320312 2.5625 -0.21875 C 2.445312 -0.125 2.3125 -0.0507812 2.15625 0 C 2 0.0507812 1.804688 0.078125 1.578125 0.078125 C 1.335938 0.078125 1.125 0.0351562 0.9375 -0.046875 C 0.75 -0.140625 0.601562 -0.269531 0.5 -0.4375 C 0.394531 -0.601562 0.34375 -0.820312 0.34375 -1.09375 C 0.34375 -1.476562 0.5 -1.773438 0.8125 -1.984375 C 1.125 -2.203125 1.597656 -2.320312 2.234375 -2.34375 L 2.921875 -2.375 L 2.921875 -2.609375 C 2.921875 -2.953125 2.847656 -3.191406 2.703125 -3.328125 C 2.554688 -3.460938 2.347656 -3.53125 2.078125 -3.53125 C 1.867188 -3.53125 1.671875 -3.5 1.484375 -3.4375 C 1.296875 -3.382812 1.117188 -3.316406 0.953125 -3.234375 L 0.765625 -3.6875 C 0.941406 -3.78125 1.144531 -3.859375 1.375 -3.921875 C 1.613281 -3.984375 1.859375 -4.015625 2.109375 -4.015625 Z M 2.90625 -1.953125 L 2.3125 -1.921875 C 1.8125 -1.898438 1.460938 -1.816406 1.265625 -1.671875 C 1.066406 -1.535156 0.96875 -1.335938 0.96875 -1.078125 C 0.96875 -0.847656 1.035156 -0.679688 1.171875 -0.578125 C 1.304688 -0.472656 1.488281 -0.421875 1.71875 -0.421875 C 2.0625 -0.421875 2.34375 -0.515625 2.5625 -0.703125 C 2.789062 -0.898438 2.90625 -1.191406 2.90625 -1.578125 Z M 2.90625 -1.953125 "/></g></g></g><g fill="#3cacae" fill-opacity="1"><g transform="translate(39.700721, 8.551819)"><g><path d="M 1.234375 0 L 0.625 0 L 0.625 -5.609375 L 1.234375 -5.609375 Z M 1.234375 0 "/></g></g></g><g fill="#3cacae" fill-opacity="1"><g transform="translate(42.89555, 8.551819)"><g><path d="M 2.15625 -4.03125 C 2.488281 -4.03125 2.773438 -3.953125 3.015625 -3.796875 C 3.253906 -3.648438 3.4375 -3.441406 3.5625 -3.171875 C 3.695312 -2.910156 3.765625 -2.597656 3.765625 -2.234375 L 3.765625 -1.859375 L 1.03125 -1.859375 C 1.039062 -1.398438 1.15625 -1.046875 1.375 -0.796875 C 1.601562 -0.554688 1.921875 -0.4375 2.328125 -0.4375 C 2.578125 -0.4375 2.796875 -0.457031 2.984375 -0.5 C 3.179688 -0.550781 3.382812 -0.617188 3.59375 -0.703125 L 3.59375 -0.1875 C 3.382812 -0.09375 3.179688 -0.0234375 2.984375 0.015625 C 2.796875 0.0546875 2.566406 0.078125 2.296875 0.078125 C 1.921875 0.078125 1.585938 0 1.296875 -0.15625 C 1.015625 -0.3125 0.796875 -0.539062 0.640625 -0.84375 C 0.484375 -1.144531 0.40625 -1.515625 0.40625 -1.953125 C 0.40625 -2.378906 0.476562 -2.742188 0.625 -3.046875 C 0.769531 -3.359375 0.972656 -3.597656 1.234375 -3.765625 C 1.492188 -3.941406 1.800781 -4.03125 2.15625 -4.03125 Z M 2.140625 -3.53125 C 1.828125 -3.53125 1.570312 -3.425781 1.375 -3.21875 C 1.1875 -3.007812 1.078125 -2.71875 1.046875 -2.34375 L 3.140625 -2.34375 C 3.128906 -2.582031 3.085938 -2.789062 3.015625 -2.96875 C 2.953125 -3.144531 2.847656 -3.28125 2.703125 -3.375 C 2.554688 -3.476562 2.367188 -3.53125 2.140625 -3.53125 Z M 2.140625 -3.53125 "/></g></g></g><g fill="#3cacae" fill-opacity="1"><g transform="translate(48.373849, 8.551819)"><g/></g></g><g fill="#3cacae" fill-opacity="1"><g transform="translate(51.62279, 8.551819)"><g><path d="M 3.046875 0 L 1.265625 -4.671875 L 1.234375 -4.671875 C 1.242188 -4.566406 1.253906 -4.441406 1.265625 -4.296875 C 1.273438 -4.160156 1.28125 -4.007812 1.28125 -3.84375 C 1.289062 -3.675781 1.296875 -3.503906 1.296875 -3.328125 L 1.296875 0 L 0.71875 0 L 0.71875 -5.28125 L 1.625 -5.28125 L 3.296875 -0.890625 L 3.328125 -0.890625 L 5.015625 -5.28125 L 5.921875 -5.28125 L 5.921875 0 L 5.3125 0 L 5.3125 -3.375 C 5.3125 -3.53125 5.3125 -3.6875 5.3125 -3.84375 C 5.320312 -4 5.332031 -4.144531 5.34375 -4.28125 C 5.351562 -4.425781 5.359375 -4.550781 5.359375 -4.65625 L 5.34375 -4.65625 L 3.546875 0 Z M 3.046875 0 "/></g></g></g><g fill="#3cacae" fill-opacity="1"><g transform="translate(59.597393, 8.551819)"><g><path d="M 2.15625 -4.03125 C 2.488281 -4.03125 2.773438 -3.953125 3.015625 -3.796875 C 3.253906 -3.648438 3.4375 -3.441406 3.5625 -3.171875 C 3.695312 -2.910156 3.765625 -2.597656 3.765625 -2.234375 L 3.765625 -1.859375 L 1.03125 -1.859375 C 1.039062 -1.398438 1.15625 -1.046875 1.375 -0.796875 C 1.601562 -0.554688 1.921875 -0.4375 2.328125 -0.4375 C 2.578125 -0.4375 2.796875 -0.457031 2.984375 -0.5 C 3.179688 -0.550781 3.382812 -0.617188 3.59375 -0.703125 L 3.59375 -0.1875 C 3.382812 -0.09375 3.179688 -0.0234375 2.984375 0.015625 C 2.796875 0.0546875 2.566406 0.078125 2.296875 0.078125 C 1.921875 0.078125 1.585938 0 1.296875 -0.15625 C 1.015625 -0.3125 0.796875 -0.539062 0.640625 -0.84375 C 0.484375 -1.144531 0.40625 -1.515625 0.40625 -1.953125 C 0.40625 -2.378906 0.476562 -2.742188 0.625 -3.046875 C 0.769531 -3.359375 0.972656 -3.597656 1.234375 -3.765625 C 1.492188 -3.941406 1.800781 -4.03125 2.15625 -4.03125 Z M 2.140625 -3.53125 C 1.828125 -3.53125 1.570312 -3.425781 1.375 -3.21875 C 1.1875 -3.007812 1.078125 -2.71875 1.046875 -2.34375 L 3.140625 -2.34375 C 3.128906 -2.582031 3.085938 -2.789062 3.015625 -2.96875 C 2.953125 -3.144531 2.847656 -3.28125 2.703125 -3.375 C 2.554688 -3.476562 2.367188 -3.53125 2.140625 -3.53125 Z M 2.140625 -3.53125 "/></g></g></g><g fill="#3cacae" fill-opacity="1"><g transform="translate(65.075692, 8.551819)"><g><path d="M 2.03125 0.078125 C 1.53125 0.078125 1.132812 -0.09375 0.84375 -0.4375 C 0.550781 -0.78125 0.40625 -1.289062 0.40625 -1.96875 C 0.40625 -2.644531 0.554688 -3.15625 0.859375 -3.5 C 1.160156 -3.851562 1.554688 -4.03125 2.046875 -4.03125 C 2.253906 -4.03125 2.4375 -4 2.59375 -3.9375 C 2.75 -3.882812 2.882812 -3.8125 3 -3.71875 C 3.113281 -3.625 3.207031 -3.519531 3.28125 -3.40625 L 3.328125 -3.40625 C 3.316406 -3.476562 3.304688 -3.578125 3.296875 -3.703125 C 3.285156 -3.835938 3.28125 -3.945312 3.28125 -4.03125 L 3.28125 -5.609375 L 3.890625 -5.609375 L 3.890625 0 L 3.40625 0 L 3.3125 -0.5625 L 3.28125 -0.5625 C 3.207031 -0.445312 3.113281 -0.335938 3 -0.234375 C 2.882812 -0.140625 2.75 -0.0625 2.59375 0 C 2.4375 0.0507812 2.25 0.078125 2.03125 0.078125 Z M 2.125 -0.421875 C 2.550781 -0.421875 2.851562 -0.539062 3.03125 -0.78125 C 3.207031 -1.019531 3.296875 -1.378906 3.296875 -1.859375 L 3.296875 -1.96875 C 3.296875 -2.46875 3.210938 -2.851562 3.046875 -3.125 C 2.878906 -3.394531 2.570312 -3.53125 2.125 -3.53125 C 1.757812 -3.53125 1.484375 -3.390625 1.296875 -3.109375 C 1.117188 -2.828125 1.03125 -2.441406 1.03125 -1.953125 C 1.03125 -1.460938 1.117188 -1.082031 1.296875 -0.8125 C 1.484375 -0.550781 1.757812 -0.421875 2.125 -0.421875 Z M 2.125 -0.421875 "/></g></g></g><g fill="#3cacae" fill-opacity="1"><g transform="translate(70.925551, 8.551819)"><g><path d="M 1.234375 -3.953125 L 1.234375 0 L 0.625 0 L 0.625 -3.953125 Z M 0.9375 -5.4375 C 1.039062 -5.4375 1.125 -5.40625 1.1875 -5.34375 C 1.257812 -5.28125 1.296875 -5.179688 1.296875 -5.046875 C 1.296875 -4.910156 1.257812 -4.804688 1.1875 -4.734375 C 1.125 -4.671875 1.039062 -4.640625 0.9375 -4.640625 C 0.832031 -4.640625 0.742188 -4.671875 0.671875 -4.734375 C 0.609375 -4.804688 0.578125 -4.910156 0.578125 -5.046875 C 0.578125 -5.179688 0.609375 -5.28125 0.671875 -5.34375 C 0.742188 -5.40625 0.832031 -5.4375 0.9375 -5.4375 Z M 0.9375 -5.4375 "/></g></g></g><g fill="#3cacae" fill-opacity="1"><g transform="translate(74.12038, 8.551819)"><g><path d="M 2.21875 0.078125 C 1.863281 0.078125 1.546875 0.00390625 1.265625 -0.140625 C 0.992188 -0.296875 0.78125 -0.519531 0.625 -0.8125 C 0.476562 -1.113281 0.40625 -1.492188 0.40625 -1.953125 C 0.40625 -2.429688 0.484375 -2.820312 0.640625 -3.125 C 0.804688 -3.4375 1.03125 -3.664062 1.3125 -3.8125 C 1.59375 -3.957031 1.914062 -4.03125 2.28125 -4.03125 C 2.46875 -4.03125 2.65625 -4.007812 2.84375 -3.96875 C 3.03125 -3.925781 3.179688 -3.875 3.296875 -3.8125 L 3.125 -3.3125 C 3 -3.363281 2.859375 -3.40625 2.703125 -3.4375 C 2.546875 -3.476562 2.398438 -3.5 2.265625 -3.5 C 1.984375 -3.5 1.75 -3.441406 1.5625 -3.328125 C 1.382812 -3.210938 1.25 -3.039062 1.15625 -2.8125 C 1.070312 -2.582031 1.03125 -2.300781 1.03125 -1.96875 C 1.03125 -1.644531 1.070312 -1.367188 1.15625 -1.140625 C 1.25 -0.921875 1.378906 -0.75 1.546875 -0.625 C 1.722656 -0.507812 1.945312 -0.453125 2.21875 -0.453125 C 2.425781 -0.453125 2.613281 -0.472656 2.78125 -0.515625 C 2.945312 -0.554688 3.097656 -0.609375 3.234375 -0.671875 L 3.234375 -0.140625 C 3.097656 -0.0664062 2.945312 -0.015625 2.78125 0.015625 C 2.625 0.0546875 2.4375 0.078125 2.21875 0.078125 Z M 2.21875 0.078125 "/></g></g></g><g fill="#3cacae" fill-opacity="1"><g transform="translate(78.989033, 8.551819)"><g><path d="M 2.109375 -4.015625 C 2.578125 -4.015625 2.925781 -3.910156 3.15625 -3.703125 C 3.382812 -3.492188 3.5 -3.15625 3.5 -2.6875 L 3.5 0 L 3.0625 0 L 2.953125 -0.578125 L 2.921875 -0.578125 C 2.804688 -0.441406 2.6875 -0.320312 2.5625 -0.21875 C 2.445312 -0.125 2.3125 -0.0507812 2.15625 0 C 2 0.0507812 1.804688 0.078125 1.578125 0.078125 C 1.335938 0.078125 1.125 0.0351562 0.9375 -0.046875 C 0.75 -0.140625 0.601562 -0.269531 0.5 -0.4375 C 0.394531 -0.601562 0.34375 -0.820312 0.34375 -1.09375 C 0.34375 -1.476562 0.5 -1.773438 0.8125 -1.984375 C 1.125 -2.203125 1.597656 -2.320312 2.234375 -2.34375 L 2.921875 -2.375 L 2.921875 -2.609375 C 2.921875 -2.953125 2.847656 -3.191406 2.703125 -3.328125 C 2.554688 -3.460938 2.347656 -3.53125 2.078125 -3.53125 C 1.867188 -3.53125 1.671875 -3.5 1.484375 -3.4375 C 1.296875 -3.382812 1.117188 -3.316406 0.953125 -3.234375 L 0.765625 -3.6875 C 0.941406 -3.78125 1.144531 -3.859375 1.375 -3.921875 C 1.613281 -3.984375 1.859375 -4.015625 2.109375 -4.015625 Z M 2.90625 -1.953125 L 2.3125 -1.921875 C 1.8125 -1.898438 1.460938 -1.816406 1.265625 -1.671875 C 1.066406 -1.535156 0.96875 -1.335938 0.96875 -1.078125 C 0.96875 -0.847656 1.035156 -0.679688 1.171875 -0.578125 C 1.304688 -0.472656 1.488281 -0.421875 1.71875 -0.421875 C 2.0625 -0.421875 2.34375 -0.515625 2.5625 -0.703125 C 2.789062 -0.898438 2.90625 -1.191406 2.90625 -1.578125 Z M 2.90625 -1.953125 "/></g></g></g><g fill="#3cacae" fill-opacity="1"><g transform="translate(84.424043, 8.551819)"><g><path d="M 1.234375 0 L 0.625 0 L 0.625 -5.609375 L 1.234375 -5.609375 Z M 1.234375 0 "/></g></g></g><g fill="#3cacae" fill-opacity="1"><g transform="translate(87.618873, 8.551819)"><g/></g></g><g fill="#3cacae" fill-opacity="1"><g transform="translate(90.867813, 8.551819)"><g><path d="M 2.25 -5.359375 C 2.507812 -5.359375 2.734375 -5.3125 2.921875 -5.21875 C 3.109375 -5.132812 3.253906 -5.003906 3.359375 -4.828125 C 3.460938 -4.660156 3.515625 -4.457031 3.515625 -4.21875 C 3.515625 -3.90625 3.410156 -3.640625 3.203125 -3.421875 C 3.003906 -3.210938 2.75 -3.019531 2.4375 -2.84375 L 3.890625 -1.421875 C 4.023438 -1.578125 4.132812 -1.753906 4.21875 -1.953125 C 4.300781 -2.160156 4.375 -2.378906 4.4375 -2.609375 L 5.046875 -2.609375 C 4.960938 -2.296875 4.859375 -2.003906 4.734375 -1.734375 C 4.617188 -1.472656 4.46875 -1.238281 4.28125 -1.03125 L 5.34375 0 L 4.53125 0 L 3.875 -0.640625 C 3.71875 -0.492188 3.550781 -0.367188 3.375 -0.265625 C 3.207031 -0.160156 3.015625 -0.078125 2.796875 -0.015625 C 2.578125 0.046875 2.332031 0.078125 2.0625 0.078125 C 1.71875 0.078125 1.421875 0.0195312 1.171875 -0.09375 C 0.929688 -0.207031 0.742188 -0.367188 0.609375 -0.578125 C 0.472656 -0.796875 0.40625 -1.0625 0.40625 -1.375 C 0.40625 -1.625 0.453125 -1.835938 0.546875 -2.015625 C 0.640625 -2.203125 0.769531 -2.363281 0.9375 -2.5 C 1.113281 -2.644531 1.320312 -2.785156 1.5625 -2.921875 C 1.445312 -3.046875 1.335938 -3.171875 1.234375 -3.296875 C 1.140625 -3.429688 1.0625 -3.570312 1 -3.71875 C 0.9375 -3.863281 0.90625 -4.03125 0.90625 -4.21875 C 0.90625 -4.457031 0.957031 -4.660156 1.0625 -4.828125 C 1.175781 -4.992188 1.332031 -5.125 1.53125 -5.21875 C 1.726562 -5.3125 1.96875 -5.359375 2.25 -5.359375 Z M 1.921875 -2.546875 C 1.734375 -2.441406 1.570312 -2.332031 1.4375 -2.21875 C 1.300781 -2.113281 1.195312 -1.992188 1.125 -1.859375 C 1.0625 -1.734375 1.03125 -1.578125 1.03125 -1.390625 C 1.03125 -1.109375 1.125 -0.878906 1.3125 -0.703125 C 1.5 -0.535156 1.753906 -0.453125 2.078125 -0.453125 C 2.398438 -0.453125 2.675781 -0.503906 2.90625 -0.609375 C 3.132812 -0.722656 3.332031 -0.859375 3.5 -1.015625 Z M 2.234375 -4.859375 C 2.003906 -4.859375 1.820312 -4.800781 1.6875 -4.6875 C 1.550781 -4.570312 1.484375 -4.414062 1.484375 -4.21875 C 1.484375 -4.03125 1.53125 -3.859375 1.625 -3.703125 C 1.726562 -3.554688 1.875 -3.390625 2.0625 -3.203125 C 2.363281 -3.367188 2.582031 -3.523438 2.71875 -3.671875 C 2.851562 -3.828125 2.921875 -4.007812 2.921875 -4.21875 C 2.921875 -4.414062 2.859375 -4.570312 2.734375 -4.6875 C 2.609375 -4.800781 2.441406 -4.859375 2.234375 -4.859375 Z M 2.234375 -4.859375 "/></g></g></g><g fill="#3cacae" fill-opacity="1"><g transform="translate(97.579835, 8.551819)"><g/></g></g><g fill="#3cacae" fill-opacity="1"><g transform="translate(100.828775, 8.551819)"><g><path d="M 3.703125 -1.40625 C 3.703125 -1.09375 3.625 -0.828125 3.46875 -0.609375 C 3.3125 -0.390625 3.09375 -0.21875 2.8125 -0.09375 C 2.53125 0.0195312 2.203125 0.078125 1.828125 0.078125 C 1.628906 0.078125 1.441406 0.0664062 1.265625 0.046875 C 1.085938 0.0234375 0.921875 0 0.765625 -0.03125 C 0.617188 -0.0703125 0.488281 -0.117188 0.375 -0.171875 L 0.375 -0.765625 C 0.5625 -0.691406 0.78125 -0.617188 1.03125 -0.546875 C 1.289062 -0.484375 1.566406 -0.453125 1.859375 -0.453125 C 2.117188 -0.453125 2.335938 -0.488281 2.515625 -0.5625 C 2.703125 -0.632812 2.84375 -0.738281 2.9375 -0.875 C 3.03125 -1.007812 3.078125 -1.171875 3.078125 -1.359375 C 3.078125 -1.535156 3.035156 -1.679688 2.953125 -1.796875 C 2.878906 -1.921875 2.75 -2.03125 2.5625 -2.125 C 2.382812 -2.226562 2.132812 -2.335938 1.8125 -2.453125 C 1.59375 -2.535156 1.394531 -2.625 1.21875 -2.71875 C 1.050781 -2.8125 0.910156 -2.914062 0.796875 -3.03125 C 0.679688 -3.15625 0.59375 -3.296875 0.53125 -3.453125 C 0.476562 -3.617188 0.453125 -3.800781 0.453125 -4 C 0.453125 -4.28125 0.519531 -4.519531 0.65625 -4.71875 C 0.800781 -4.925781 1 -5.082031 1.25 -5.1875 C 1.507812 -5.300781 1.800781 -5.359375 2.125 -5.359375 C 2.414062 -5.359375 2.675781 -5.328125 2.90625 -5.265625 C 3.144531 -5.210938 3.367188 -5.144531 3.578125 -5.0625 L 3.375 -4.53125 C 3.1875 -4.613281 2.984375 -4.679688 2.765625 -4.734375 C 2.554688 -4.785156 2.34375 -4.8125 2.125 -4.8125 C 1.894531 -4.8125 1.703125 -4.773438 1.546875 -4.703125 C 1.390625 -4.640625 1.269531 -4.546875 1.1875 -4.421875 C 1.101562 -4.304688 1.0625 -4.164062 1.0625 -4 C 1.0625 -3.8125 1.097656 -3.65625 1.171875 -3.53125 C 1.253906 -3.414062 1.378906 -3.3125 1.546875 -3.21875 C 1.722656 -3.125 1.957031 -3.023438 2.25 -2.921875 C 2.550781 -2.804688 2.8125 -2.6875 3.03125 -2.5625 C 3.25 -2.4375 3.414062 -2.28125 3.53125 -2.09375 C 3.644531 -1.914062 3.703125 -1.6875 3.703125 -1.40625 Z M 3.703125 -1.40625 "/></g></g></g><g fill="#3cacae" fill-opacity="1"><g transform="translate(106.209675, 8.551819)"><g><path d="M 3.890625 -3.953125 L 3.890625 0 L 3.40625 0 L 3.3125 -0.5625 L 3.28125 -0.5625 C 3.207031 -0.414062 3.101562 -0.296875 2.96875 -0.203125 C 2.84375 -0.109375 2.695312 -0.0390625 2.53125 0 C 2.363281 0.0507812 2.191406 0.078125 2.015625 0.078125 C 1.703125 0.078125 1.4375 0.0234375 1.21875 -0.078125 C 1.007812 -0.179688 0.851562 -0.335938 0.75 -0.546875 C 0.644531 -0.753906 0.59375 -1.023438 0.59375 -1.359375 L 0.59375 -3.953125 L 1.1875 -3.953125 L 1.1875 -1.40625 C 1.1875 -1.070312 1.257812 -0.820312 1.40625 -0.65625 C 1.5625 -0.5 1.789062 -0.421875 2.09375 -0.421875 C 2.394531 -0.421875 2.628906 -0.476562 2.796875 -0.59375 C 2.972656 -0.707031 3.097656 -0.867188 3.171875 -1.078125 C 3.253906 -1.296875 3.296875 -1.5625 3.296875 -1.875 L 3.296875 -3.953125 Z M 3.890625 -3.953125 "/></g></g></g><g fill="#3cacae" fill-opacity="1"><g transform="translate(112.070356, 8.551819)"><g><path d="M 2.421875 -4.03125 C 2.503906 -4.03125 2.585938 -4.023438 2.671875 -4.015625 C 2.765625 -4.003906 2.84375 -3.992188 2.90625 -3.984375 L 2.828125 -3.421875 C 2.765625 -3.441406 2.691406 -3.457031 2.609375 -3.46875 C 2.535156 -3.476562 2.460938 -3.484375 2.390625 -3.484375 C 2.234375 -3.484375 2.082031 -3.445312 1.9375 -3.375 C 1.800781 -3.3125 1.679688 -3.222656 1.578125 -3.109375 C 1.472656 -2.992188 1.390625 -2.847656 1.328125 -2.671875 C 1.265625 -2.503906 1.234375 -2.320312 1.234375 -2.125 L 1.234375 0 L 0.625 0 L 0.625 -3.953125 L 1.125 -3.953125 L 1.1875 -3.21875 L 1.21875 -3.21875 C 1.300781 -3.375 1.398438 -3.507812 1.515625 -3.625 C 1.628906 -3.75 1.757812 -3.847656 1.90625 -3.921875 C 2.0625 -3.992188 2.234375 -4.03125 2.421875 -4.03125 Z M 2.421875 -4.03125 "/></g></g></g><g fill="#3cacae" fill-opacity="1"><g transform="translate(116.419546, 8.551819)"><g><path d="M 1.734375 1.78125 C 1.210938 1.78125 0.8125 1.679688 0.53125 1.484375 C 0.25 1.285156 0.109375 1.015625 0.109375 0.671875 C 0.109375 0.421875 0.1875 0.207031 0.34375 0.03125 C 0.5 -0.144531 0.71875 -0.257812 1 -0.3125 C 0.894531 -0.363281 0.804688 -0.4375 0.734375 -0.53125 C 0.660156 -0.625 0.625 -0.734375 0.625 -0.859375 C 0.625 -1.003906 0.664062 -1.128906 0.75 -1.234375 C 0.832031 -1.347656 0.957031 -1.457031 1.125 -1.5625 C 0.914062 -1.644531 0.742188 -1.785156 0.609375 -1.984375 C 0.484375 -2.179688 0.421875 -2.414062 0.421875 -2.6875 C 0.421875 -2.96875 0.476562 -3.207031 0.59375 -3.40625 C 0.71875 -3.613281 0.890625 -3.769531 1.109375 -3.875 C 1.335938 -3.976562 1.609375 -4.03125 1.921875 -4.03125 C 1.992188 -4.03125 2.0625 -4.023438 2.125 -4.015625 C 2.195312 -4.015625 2.265625 -4.007812 2.328125 -4 C 2.398438 -3.988281 2.460938 -3.976562 2.515625 -3.96875 L 3.859375 -3.96875 L 3.859375 -3.578125 L 3.140625 -3.484375 C 3.210938 -3.390625 3.269531 -3.273438 3.3125 -3.140625 C 3.363281 -3.015625 3.390625 -2.867188 3.390625 -2.703125 C 3.390625 -2.304688 3.253906 -1.992188 2.984375 -1.765625 C 2.722656 -1.535156 2.359375 -1.421875 1.890625 -1.421875 C 1.773438 -1.421875 1.660156 -1.429688 1.546875 -1.453125 C 1.429688 -1.378906 1.34375 -1.300781 1.28125 -1.21875 C 1.21875 -1.144531 1.1875 -1.054688 1.1875 -0.953125 C 1.1875 -0.878906 1.207031 -0.816406 1.25 -0.765625 C 1.300781 -0.722656 1.367188 -0.691406 1.453125 -0.671875 C 1.546875 -0.648438 1.65625 -0.640625 1.78125 -0.640625 L 2.484375 -0.640625 C 2.910156 -0.640625 3.238281 -0.546875 3.46875 -0.359375 C 3.695312 -0.179688 3.8125 0.078125 3.8125 0.421875 C 3.8125 0.859375 3.632812 1.191406 3.28125 1.421875 C 2.925781 1.660156 2.410156 1.78125 1.734375 1.78125 Z M 1.75 1.3125 C 2.082031 1.3125 2.351562 1.273438 2.5625 1.203125 C 2.78125 1.140625 2.941406 1.046875 3.046875 0.921875 C 3.160156 0.796875 3.21875 0.648438 3.21875 0.484375 C 3.21875 0.316406 3.179688 0.191406 3.109375 0.109375 C 3.035156 0.0351562 2.925781 -0.0078125 2.78125 -0.03125 C 2.644531 -0.0625 2.476562 -0.078125 2.28125 -0.078125 L 1.59375 -0.078125 C 1.414062 -0.078125 1.257812 -0.0507812 1.125 0 C 0.988281 0.0507812 0.882812 0.128906 0.8125 0.234375 C 0.738281 0.347656 0.703125 0.488281 0.703125 0.65625 C 0.703125 0.863281 0.789062 1.023438 0.96875 1.140625 C 1.15625 1.253906 1.414062 1.3125 1.75 1.3125 Z M 1.90625 -1.859375 C 2.195312 -1.859375 2.410156 -1.925781 2.546875 -2.0625 C 2.691406 -2.207031 2.765625 -2.421875 2.765625 -2.703125 C 2.765625 -2.992188 2.691406 -3.210938 2.546875 -3.359375 C 2.398438 -3.515625 2.1875 -3.59375 1.90625 -3.59375 C 1.625 -3.59375 1.410156 -3.515625 1.265625 -3.359375 C 1.117188 -3.203125 1.046875 -2.976562 1.046875 -2.6875 C 1.046875 -2.414062 1.117188 -2.207031 1.265625 -2.0625 C 1.421875 -1.925781 1.632812 -1.859375 1.90625 -1.859375 Z M 1.90625 -1.859375 "/></g></g></g><g fill="#3cacae" fill-opacity="1"><g transform="translate(121.760765, 8.551819)"><g><path d="M 1.234375 -3.953125 L 1.234375 0 L 0.625 0 L 0.625 -3.953125 Z M 0.9375 -5.4375 C 1.039062 -5.4375 1.125 -5.40625 1.1875 -5.34375 C 1.257812 -5.28125 1.296875 -5.179688 1.296875 -5.046875 C 1.296875 -4.910156 1.257812 -4.804688 1.1875 -4.734375 C 1.125 -4.671875 1.039062 -4.640625 0.9375 -4.640625 C 0.832031 -4.640625 0.742188 -4.671875 0.671875 -4.734375 C 0.609375 -4.804688 0.578125 -4.910156 0.578125 -5.046875 C 0.578125 -5.179688 0.609375 -5.28125 0.671875 -5.34375 C 0.742188 -5.40625 0.832031 -5.4375 0.9375 -5.4375 Z M 0.9375 -5.4375 "/></g></g></g><g fill="#3cacae" fill-opacity="1"><g transform="translate(124.955594, 8.551819)"><g><path d="M 2.21875 0.078125 C 1.863281 0.078125 1.546875 0.00390625 1.265625 -0.140625 C 0.992188 -0.296875 0.78125 -0.519531 0.625 -0.8125 C 0.476562 -1.113281 0.40625 -1.492188 0.40625 -1.953125 C 0.40625 -2.429688 0.484375 -2.820312 0.640625 -3.125 C 0.804688 -3.4375 1.03125 -3.664062 1.3125 -3.8125 C 1.59375 -3.957031 1.914062 -4.03125 2.28125 -4.03125 C 2.46875 -4.03125 2.65625 -4.007812 2.84375 -3.96875 C 3.03125 -3.925781 3.179688 -3.875 3.296875 -3.8125 L 3.125 -3.3125 C 3 -3.363281 2.859375 -3.40625 2.703125 -3.4375 C 2.546875 -3.476562 2.398438 -3.5 2.265625 -3.5 C 1.984375 -3.5 1.75 -3.441406 1.5625 -3.328125 C 1.382812 -3.210938 1.25 -3.039062 1.15625 -2.8125 C 1.070312 -2.582031 1.03125 -2.300781 1.03125 -1.96875 C 1.03125 -1.644531 1.070312 -1.367188 1.15625 -1.140625 C 1.25 -0.921875 1.378906 -0.75 1.546875 -0.625 C 1.722656 -0.507812 1.945312 -0.453125 2.21875 -0.453125 C 2.425781 -0.453125 2.613281 -0.472656 2.78125 -0.515625 C 2.945312 -0.554688 3.097656 -0.609375 3.234375 -0.671875 L 3.234375 -0.140625 C 3.097656 -0.0664062 2.945312 -0.015625 2.78125 0.015625 C 2.625 0.0546875 2.4375 0.078125 2.21875 0.078125 Z M 2.21875 0.078125 "/></g></g></g><g fill="#3cacae" fill-opacity="1"><g transform="translate(129.824247, 8.551819)"><g><path d="M 2.109375 -4.015625 C 2.578125 -4.015625 2.925781 -3.910156 3.15625 -3.703125 C 3.382812 -3.492188 3.5 -3.15625 3.5 -2.6875 L 3.5 0 L 3.0625 0 L 2.953125 -0.578125 L 2.921875 -0.578125 C 2.804688 -0.441406 2.6875 -0.320312 2.5625 -0.21875 C 2.445312 -0.125 2.3125 -0.0507812 2.15625 0 C 2 0.0507812 1.804688 0.078125 1.578125 0.078125 C 1.335938 0.078125 1.125 0.0351562 0.9375 -0.046875 C 0.75 -0.140625 0.601562 -0.269531 0.5 -0.4375 C 0.394531 -0.601562 0.34375 -0.820312 0.34375 -1.09375 C 0.34375 -1.476562 0.5 -1.773438 0.8125 -1.984375 C 1.125 -2.203125 1.597656 -2.320312 2.234375 -2.34375 L 2.921875 -2.375 L 2.921875 -2.609375 C 2.921875 -2.953125 2.847656 -3.191406 2.703125 -3.328125 C 2.554688 -3.460938 2.347656 -3.53125 2.078125 -3.53125 C 1.867188 -3.53125 1.671875 -3.5 1.484375 -3.4375 C 1.296875 -3.382812 1.117188 -3.316406 0.953125 -3.234375 L 0.765625 -3.6875 C 0.941406 -3.78125 1.144531 -3.859375 1.375 -3.921875 C 1.613281 -3.984375 1.859375 -4.015625 2.109375 -4.015625 Z M 2.90625 -1.953125 L 2.3125 -1.921875 C 1.8125 -1.898438 1.460938 -1.816406 1.265625 -1.671875 C 1.066406 -1.535156 0.96875 -1.335938 0.96875 -1.078125 C 0.96875 -0.847656 1.035156 -0.679688 1.171875 -0.578125 C 1.304688 -0.472656 1.488281 -0.421875 1.71875 -0.421875 C 2.0625 -0.421875 2.34375 -0.515625 2.5625 -0.703125 C 2.789062 -0.898438 2.90625 -1.191406 2.90625 -1.578125 Z M 2.90625 -1.953125 "/></g></g></g><g fill="#3cacae" fill-opacity="1"><g transform="translate(135.259257, 8.551819)"><g><path d="M 1.234375 0 L 0.625 0 L 0.625 -5.609375 L 1.234375 -5.609375 Z M 1.234375 0 "/></g></g></g><g fill="#3cacae" fill-opacity="1"><g transform="translate(138.454087, 8.551819)"><g/></g></g><g fill="#3cacae" fill-opacity="1"><g transform="translate(141.703027, 8.551819)"><g><path d="M 3.65625 0 L 0.71875 0 L 0.71875 -5.28125 L 3.65625 -5.28125 L 3.65625 -4.734375 L 1.328125 -4.734375 L 1.328125 -3.03125 L 3.53125 -3.03125 L 3.53125 -2.5 L 1.328125 -2.5 L 1.328125 -0.546875 L 3.65625 -0.546875 Z M 3.65625 0 "/></g></g></g><g fill="#3cacae" fill-opacity="1"><g transform="translate(147.138037, 8.551819)"><g><path d="M 3.28125 1.765625 L 3.28125 0.078125 C 3.28125 -0.015625 3.28125 -0.125 3.28125 -0.25 C 3.289062 -0.375 3.300781 -0.476562 3.3125 -0.5625 L 3.28125 -0.5625 C 3.164062 -0.382812 3.003906 -0.234375 2.796875 -0.109375 C 2.597656 0.015625 2.335938 0.078125 2.015625 0.078125 C 1.523438 0.078125 1.132812 -0.09375 0.84375 -0.4375 C 0.550781 -0.78125 0.40625 -1.289062 0.40625 -1.96875 C 0.40625 -2.414062 0.472656 -2.789062 0.609375 -3.09375 C 0.742188 -3.394531 0.929688 -3.625 1.171875 -3.78125 C 1.421875 -3.945312 1.710938 -4.03125 2.046875 -4.03125 C 2.359375 -4.03125 2.613281 -3.96875 2.8125 -3.84375 C 3.019531 -3.71875 3.175781 -3.566406 3.28125 -3.390625 L 3.3125 -3.390625 L 3.40625 -3.953125 L 3.890625 -3.953125 L 3.890625 1.765625 Z M 2.125 -0.421875 C 2.40625 -0.421875 2.628906 -0.472656 2.796875 -0.578125 C 2.960938 -0.679688 3.082031 -0.835938 3.15625 -1.046875 C 3.238281 -1.265625 3.285156 -1.53125 3.296875 -1.84375 L 3.296875 -1.96875 C 3.296875 -2.476562 3.207031 -2.863281 3.03125 -3.125 C 2.851562 -3.394531 2.550781 -3.53125 2.125 -3.53125 C 1.75 -3.53125 1.472656 -3.390625 1.296875 -3.109375 C 1.117188 -2.828125 1.03125 -2.441406 1.03125 -1.953125 C 1.03125 -1.472656 1.117188 -1.097656 1.296875 -0.828125 C 1.472656 -0.554688 1.75 -0.421875 2.125 -0.421875 Z M 2.125 -0.421875 "/></g></g></g><g fill="#3cacae" fill-opacity="1"><g transform="translate(152.987896, 8.551819)"><g><path d="M 3.890625 -3.953125 L 3.890625 0 L 3.40625 0 L 3.3125 -0.5625 L 3.28125 -0.5625 C 3.207031 -0.414062 3.101562 -0.296875 2.96875 -0.203125 C 2.84375 -0.109375 2.695312 -0.0390625 2.53125 0 C 2.363281 0.0507812 2.191406 0.078125 2.015625 0.078125 C 1.703125 0.078125 1.4375 0.0234375 1.21875 -0.078125 C 1.007812 -0.179688 0.851562 -0.335938 0.75 -0.546875 C 0.644531 -0.753906 0.59375 -1.023438 0.59375 -1.359375 L 0.59375 -3.953125 L 1.1875 -3.953125 L 1.1875 -1.40625 C 1.1875 -1.070312 1.257812 -0.820312 1.40625 -0.65625 C 1.5625 -0.5 1.789062 -0.421875 2.09375 -0.421875 C 2.394531 -0.421875 2.628906 -0.476562 2.796875 -0.59375 C 2.972656 -0.707031 3.097656 -0.867188 3.171875 -1.078125 C 3.253906 -1.296875 3.296875 -1.5625 3.296875 -1.875 L 3.296875 -3.953125 Z M 3.890625 -3.953125 "/></g></g></g><g fill="#3cacae" fill-opacity="1"><g transform="translate(158.848577, 8.551819)"><g><path d="M 1.234375 -3.953125 L 1.234375 0 L 0.625 0 L 0.625 -3.953125 Z M 0.9375 -5.4375 C 1.039062 -5.4375 1.125 -5.40625 1.1875 -5.34375 C 1.257812 -5.28125 1.296875 -5.179688 1.296875 -5.046875 C 1.296875 -4.910156 1.257812 -4.804688 1.1875 -4.734375 C 1.125 -4.671875 1.039062 -4.640625 0.9375 -4.640625 C 0.832031 -4.640625 0.742188 -4.671875 0.671875 -4.734375 C 0.609375 -4.804688 0.578125 -4.910156 0.578125 -5.046875 C 0.578125 -5.179688 0.609375 -5.28125 0.671875 -5.34375 C 0.742188 -5.40625 0.832031 -5.4375 0.9375 -5.4375 Z M 0.9375 -5.4375 "/></g></g></g><g fill="#3cacae" fill-opacity="1"><g transform="translate(162.043397, 8.551819)"><g><path d="M 2.484375 -4.03125 C 2.984375 -4.03125 3.378906 -3.859375 3.671875 -3.515625 C 3.960938 -3.179688 4.109375 -2.671875 4.109375 -1.984375 C 4.109375 -1.535156 4.039062 -1.15625 3.90625 -0.84375 C 3.769531 -0.539062 3.578125 -0.3125 3.328125 -0.15625 C 3.085938 0 2.800781 0.078125 2.46875 0.078125 C 2.257812 0.078125 2.078125 0.0507812 1.921875 0 C 1.765625 -0.0625 1.628906 -0.140625 1.515625 -0.234375 C 1.398438 -0.328125 1.304688 -0.429688 1.234375 -0.546875 L 1.1875 -0.546875 C 1.195312 -0.453125 1.207031 -0.335938 1.21875 -0.203125 C 1.226562 -0.0664062 1.234375 0.046875 1.234375 0.140625 L 1.234375 1.765625 L 0.625 1.765625 L 0.625 -3.953125 L 1.125 -3.953125 L 1.203125 -3.375 L 1.234375 -3.375 C 1.304688 -3.488281 1.398438 -3.59375 1.515625 -3.6875 C 1.628906 -3.789062 1.765625 -3.875 1.921875 -3.9375 C 2.078125 -4 2.265625 -4.03125 2.484375 -4.03125 Z M 2.390625 -3.515625 C 2.109375 -3.515625 1.882812 -3.460938 1.71875 -3.359375 C 1.550781 -3.253906 1.425781 -3.097656 1.34375 -2.890625 C 1.269531 -2.679688 1.234375 -2.414062 1.234375 -2.09375 L 1.234375 -1.984375 C 1.234375 -1.648438 1.269531 -1.363281 1.34375 -1.125 C 1.414062 -0.894531 1.535156 -0.71875 1.703125 -0.59375 C 1.878906 -0.476562 2.109375 -0.421875 2.390625 -0.421875 C 2.640625 -0.421875 2.84375 -0.488281 3 -0.625 C 3.164062 -0.757812 3.289062 -0.941406 3.375 -1.171875 C 3.457031 -1.410156 3.5 -1.6875 3.5 -2 C 3.5 -2.46875 3.40625 -2.835938 3.21875 -3.109375 C 3.039062 -3.378906 2.765625 -3.515625 2.390625 -3.515625 Z M 2.390625 -3.515625 "/></g></g></g><g fill="#3cacae" fill-opacity="1"><g transform="translate(167.893265, 8.551819)"><g><path d="M 4.921875 -4.03125 C 5.359375 -4.03125 5.6875 -3.914062 5.90625 -3.6875 C 6.132812 -3.457031 6.25 -3.09375 6.25 -2.59375 L 6.25 0 L 5.65625 0 L 5.65625 -2.5625 C 5.65625 -2.882812 5.582031 -3.125 5.4375 -3.28125 C 5.300781 -3.4375 5.097656 -3.515625 4.828125 -3.515625 C 4.441406 -3.515625 4.160156 -3.40625 3.984375 -3.1875 C 3.816406 -2.96875 3.734375 -2.644531 3.734375 -2.21875 L 3.734375 0 L 3.140625 0 L 3.140625 -2.5625 C 3.140625 -2.78125 3.109375 -2.957031 3.046875 -3.09375 C 2.984375 -3.238281 2.890625 -3.34375 2.765625 -3.40625 C 2.648438 -3.476562 2.5 -3.515625 2.3125 -3.515625 C 2.050781 -3.515625 1.835938 -3.460938 1.671875 -3.359375 C 1.515625 -3.253906 1.398438 -3.09375 1.328125 -2.875 C 1.265625 -2.664062 1.234375 -2.40625 1.234375 -2.09375 L 1.234375 0 L 0.625 0 L 0.625 -3.953125 L 1.109375 -3.953125 L 1.203125 -3.390625 L 1.234375 -3.390625 C 1.316406 -3.523438 1.414062 -3.640625 1.53125 -3.734375 C 1.65625 -3.835938 1.789062 -3.910156 1.9375 -3.953125 C 2.09375 -4.003906 2.253906 -4.03125 2.421875 -4.03125 C 2.722656 -4.03125 2.972656 -3.972656 3.171875 -3.859375 C 3.378906 -3.742188 3.523438 -3.570312 3.609375 -3.34375 L 3.640625 -3.34375 C 3.773438 -3.570312 3.953125 -3.742188 4.171875 -3.859375 C 4.398438 -3.972656 4.648438 -4.03125 4.921875 -4.03125 Z M 4.921875 -4.03125 "/></g></g></g><g fill="#3cacae" fill-opacity="1"><g transform="translate(176.062677, 8.551819)"><g><path d="M 2.15625 -4.03125 C 2.488281 -4.03125 2.773438 -3.953125 3.015625 -3.796875 C 3.253906 -3.648438 3.4375 -3.441406 3.5625 -3.171875 C 3.695312 -2.910156 3.765625 -2.597656 3.765625 -2.234375 L 3.765625 -1.859375 L 1.03125 -1.859375 C 1.039062 -1.398438 1.15625 -1.046875 1.375 -0.796875 C 1.601562 -0.554688 1.921875 -0.4375 2.328125 -0.4375 C 2.578125 -0.4375 2.796875 -0.457031 2.984375 -0.5 C 3.179688 -0.550781 3.382812 -0.617188 3.59375 -0.703125 L 3.59375 -0.1875 C 3.382812 -0.09375 3.179688 -0.0234375 2.984375 0.015625 C 2.796875 0.0546875 2.566406 0.078125 2.296875 0.078125 C 1.921875 0.078125 1.585938 0 1.296875 -0.15625 C 1.015625 -0.3125 0.796875 -0.539062 0.640625 -0.84375 C 0.484375 -1.144531 0.40625 -1.515625 0.40625 -1.953125 C 0.40625 -2.378906 0.476562 -2.742188 0.625 -3.046875 C 0.769531 -3.359375 0.972656 -3.597656 1.234375 -3.765625 C 1.492188 -3.941406 1.800781 -4.03125 2.15625 -4.03125 Z M 2.140625 -3.53125 C 1.828125 -3.53125 1.570312 -3.425781 1.375 -3.21875 C 1.1875 -3.007812 1.078125 -2.71875 1.046875 -2.34375 L 3.140625 -2.34375 C 3.128906 -2.582031 3.085938 -2.789062 3.015625 -2.96875 C 2.953125 -3.144531 2.847656 -3.28125 2.703125 -3.375 C 2.554688 -3.476562 2.367188 -3.53125 2.140625 -3.53125 Z M 2.140625 -3.53125 "/></g></g></g><g fill="#3cacae" fill-opacity="1"><g transform="translate(181.540966, 8.551819)"><g><path d="M 2.5 -4.03125 C 2.96875 -4.03125 3.320312 -3.914062 3.5625 -3.6875 C 3.8125 -3.457031 3.9375 -3.085938 3.9375 -2.578125 L 3.9375 0 L 3.34375 0 L 3.34375 -2.53125 C 3.34375 -2.863281 3.265625 -3.109375 3.109375 -3.265625 C 2.960938 -3.429688 2.734375 -3.515625 2.421875 -3.515625 C 1.984375 -3.515625 1.675781 -3.390625 1.5 -3.140625 C 1.320312 -2.898438 1.234375 -2.546875 1.234375 -2.078125 L 1.234375 0 L 0.625 0 L 0.625 -3.953125 L 1.109375 -3.953125 L 1.203125 -3.390625 L 1.234375 -3.390625 C 1.316406 -3.523438 1.421875 -3.640625 1.546875 -3.734375 C 1.679688 -3.828125 1.828125 -3.898438 1.984375 -3.953125 C 2.148438 -4.003906 2.320312 -4.03125 2.5 -4.03125 Z M 2.5 -4.03125 "/></g></g></g><g fill="#3cacae" fill-opacity="1"><g transform="translate(187.401637, 8.551819)"><g><path d="M 1.90625 -0.421875 C 2.007812 -0.421875 2.113281 -0.425781 2.21875 -0.4375 C 2.320312 -0.457031 2.40625 -0.476562 2.46875 -0.5 L 2.46875 -0.046875 C 2.394531 -0.015625 2.296875 0.0078125 2.171875 0.03125 C 2.046875 0.0625 1.925781 0.078125 1.8125 0.078125 C 1.601562 0.078125 1.410156 0.0390625 1.234375 -0.03125 C 1.066406 -0.101562 0.929688 -0.226562 0.828125 -0.40625 C 0.722656 -0.582031 0.671875 -0.828125 0.671875 -1.140625 L 0.671875 -3.484375 L 0.109375 -3.484375 L 0.109375 -3.78125 L 0.6875 -4.015625 L 0.921875 -4.875 L 1.28125 -4.875 L 1.28125 -3.953125 L 2.4375 -3.953125 L 2.4375 -3.484375 L 1.28125 -3.484375 L 1.28125 -1.15625 C 1.28125 -0.90625 1.335938 -0.71875 1.453125 -0.59375 C 1.566406 -0.476562 1.71875 -0.421875 1.90625 -0.421875 Z M 1.90625 -0.421875 "/></g></g></g></g></g></svg>